<?xml version="1.0" standalone="no"?>
<!DOCTYPE svg PUBLIC "-//W3C//DTD SVG 1.1//EN" "http://www.w3.org/Graphics/SVG/1.1/DTD/svg11.dtd" >
<svg xmlns="http://www.w3.org/2000/svg">
<metadata></metadata>
<defs>
<font id="square_serifbold" horiz-adv-x="567" >
<font-face units-per-em="1000" ascent="800" descent="-200" />
<missing-glyph horiz-adv-x="250" />
<glyph unicode="&#xfb01;" horiz-adv-x="639" d="M37 0v137h53v229h-53v137h53q3 55 16 88t42 58q28 24 61 32.5t100 8.5h26v-130l-39 1q-31 1 -44 -12.5t-14 -45.5h317v-366h53v-137h-201v366h-169v-229h54v-137h-255zM407 530v137h148v-137h-148z" />
<glyph unicode="&#xfb02;" horiz-adv-x="639" d="M37 0v137h53v229h-53v137h53q4 82 37 124q50 63 160 63q48 0 88 -8q80 -15 87 -15h93v-530h53v-137h-201v510q0 31 -21 41t-86 10q-35 0 -48 -12.5t-14 -45.5h97v-137h-97v-229h54v-137h-255z" />
<glyph unicode="&#xfb03;" horiz-adv-x="956" d="M37 0v137h53v229h-53v137h53q3 55 16 88t42 58q28 24 61 32.5t100 8.5h26v-130l-39 1q-31 1 -44 -12.5t-14 -45.5h169q3 55 16 88t42 58q28 24 60.5 32.5t99.5 8.5h27v-130l-40 1q-31 1 -43.5 -12.5t-13.5 -45.5h317v-366h53v-137h-201v366h-169v-229h53v-137h-201v366 h-169v-229h54v-137h-255zM724 530v137h148v-137h-148z" />
<glyph unicode="&#xfb04;" horiz-adv-x="955" d="M37 0v137h53v229h-53v137h53q4 99 56.5 143t162.5 44h26v-130q-14 1 -39 1q-31 0 -44 -13t-14 -45h169q4 82 37 124q49 63 159 63q47 0 89 -8q80 -15 87 -15h93v-530h52v-137h-200v510q0 31 -21 41t-87 10q-34 0 -47 -12.5t-14 -45.5h97v-137h-97v-229h53v-137h-201v366 h-169v-229h54v-137h-255z" />
<glyph horiz-adv-x="0" />
<glyph horiz-adv-x="333" />
<glyph unicode=" "  horiz-adv-x="250" />
<glyph unicode="&#x09;" horiz-adv-x="250" />
<glyph unicode="&#xa0;" horiz-adv-x="250" />
<glyph unicode="!" horiz-adv-x="257" d="M53 219v448h150v-448h-150zM53 0v151h150v-151h-150z" />
<glyph unicode="&#x22;" horiz-adv-x="413" d="M251 400l-24 267h146l-24 -267h-98zM64 400l-24 267h147l-25 -267h-98z" />
<glyph unicode="#" d="M71 0l29 183h-73l17 107h73l14 86h-73l17 107h73l29 184h117l-30 -184h84l30 184h118l-29 -184h73l-17 -107h-73l-14 -86h73l-16 -107h-74l-29 -183h-118l29 183h-84l-29 -183h-117zM234 290h84l14 86h-84z" />
<glyph unicode="$" d="M63 0v210h144v-7v-5q0 -32 21.5 -52.5t54.5 -20.5q28 0 46.5 17t18.5 42q0 35 -34 55q-18 9 -68 27q-96 35 -133 69q-59 57 -59 138q0 68 43 117.5t116 65.5v115h125v-122q14 -4 29 -12v26h110v-194h-135q-6 63 -66 63q-26 0 -43.5 -15.5t-17.5 -38.5q0 -24 16 -39.5 t53 -26.5q102 -31 142 -58q87 -60 87 -159q0 -71 -47.5 -122t-127.5 -66v-125h-129v129q-17 7 -26 13v-24h-120z" />
<glyph unicode="%" horiz-adv-x="863" d="M203 334q-71 0 -122 51t-51 123q0 71 50.5 121.5t121.5 50.5q73 0 123.5 -51t50.5 -124q0 -70 -51 -120.5t-122 -50.5zM235 0l303 667h90l-302 -667h-91zM203 459q19 0 33.5 14t14.5 33q0 21 -14.5 35.5t-34.5 14.5t-34 -14t-14 -34t14.5 -34.5t34.5 -14.5zM487 161 q0 71 50.5 121.5t121.5 50.5q73 0 123.5 -51t50.5 -124q0 -70 -51 -120.5t-122 -50.5t-122 51t-51 123zM611 161q0 -20 14.5 -34.5t34.5 -14.5q19 0 33.5 14t14.5 33q0 21 -14.5 35.5t-34.5 14.5q-19 0 -33.5 -14.5t-14.5 -33.5z" />
<glyph unicode="&#x26;" horiz-adv-x="661" d="M539 -25l-89 89q-89 -77 -195 -77q-94 0 -158.5 55t-64.5 135q0 69 45 118q22 25 78 65l-7 10q-31 45 -42.5 71.5t-11.5 62.5q0 76 51.5 126t130.5 50q73 0 123.5 -46.5t50.5 -111.5q0 -90 -90 -162l79 -80l51 110h150v-132h-56l-43 -81l99 -102zM274 441q41 33 41 71 q0 19 -11.5 31.5t-28.5 12.5t-28 -13t-11 -32q0 -37 30 -63zM347 168l-99 100q-58 -31 -58 -76q0 -29 21 -48.5t52 -19.5q49 0 84 44z" />
<glyph unicode="'" horiz-adv-x="227" d="M64 400l-24 267h147l-25 -267h-98z" />
<glyph unicode="(" horiz-adv-x="385" d="M358 -23v-191q-149 52 -239 177.5t-90 282.5t90.5 283.5t238.5 175.5v-189q-157 -97 -157 -270q0 -84 42 -156.5t115 -112.5z" />
<glyph unicode=")" horiz-adv-x="385" d="M27 -25q157 97 157 270q0 84 -42 156.5t-115 112.5v191q149 -52 239 -177.5t90 -282.5t-90.5 -283.5t-238.5 -175.5v189z" />
<glyph unicode="*" d="M211 250l-99 73l84 106l-131 33l38 118l127 -48l-9 135h123l-6 -135l126 50l38 -118l-131 -35l87 -105l-100 -72l-74 113z" />
<glyph unicode="+" d="M223 102v181h-185v114h185v181h119v-181h186v-114h-186v-181h-119z" />
<glyph unicode="," horiz-adv-x="245" d="M47 0v151h152v-185q0 -57 -30 -88.5t-84 -31.5h-38v72q6 -1 17 -1q48 0 48 59v24h-65z" />
<glyph unicode="-" horiz-adv-x="254" d="M0 184v146h254v-146h-254z" />
<glyph unicode="." horiz-adv-x="245" d="M47 0v151h151v-151h-151z" />
<glyph unicode="/" horiz-adv-x="458" d="M-41 -174l362 841h104l-362 -841h-104z" />
<glyph unicode="0" d="M527 428v-189q0 -63 -17.5 -106t-58.5 -78q-74 -66 -168 -66q-103 0 -179 76q-64 64 -64 174v189q0 62 17.5 105.5t57.5 78.5q74 66 168 66q104 0 180 -78q64 -67 64 -172zM200 427v-190q0 -47 16 -70q22 -31 67 -31q49 0 71 36q13 21 13 65v190q0 104 -84 104 q-49 0 -70 -37q-13 -21 -13 -67z" />
<glyph unicode="1" d="M140 0v137h71v407h-77v123h237v-530h71v-137h-302z" />
<glyph unicode="2" d="M50 0v137l222 211q43 41 50 50q22 29 22 56q0 28 -21 47.5t-51 19.5q-33 0 -52.5 -22.5t-20.5 -61.5h-156q4 107 69 174t165 67q95 0 161 -64.5t66 -157.5q0 -59 -30 -108.5t-103 -111.5l-117 -99h101v48h142v-185h-447z" />
<glyph unicode="3" d="M208 487h-148q2 84 63 138t153 54q88 0 148 -51.5t60 -127.5q0 -83 -71 -134q19 -9 34 -19q32 -23 51 -62.5t19 -81.5q0 -88 -73 -153q-67 -61 -168 -61q-131 0 -205 85q-40 46 -46 119h164q19 -64 77 -64q34 0 57.5 23.5t23.5 57.5q0 37 -25 60t-65 23q-11 0 -30 -2v126 q10 -2 24 -2q86 0 86 69q0 27 -18 44.5t-46 17.5q-57 0 -65 -59z" />
<glyph unicode="4" d="M5 188v123l271 356h183v-356h102v-123h-102v-51h72v-137h-303v137h71v51h-294zM179 311h120v159z" />
<glyph unicode="5" d="M27 178h170q28 -42 79 -42q39 0 67 27.5t28 66.5q0 40 -27.5 66t-69.5 26q-62 0 -87 -59l-134 36l58 368h371v-137h-244l-17 -95q48 27 101 27q92 0 155.5 -66t63.5 -161q0 -107 -76 -176.5t-193 -69.5q-92 0 -156.5 50t-88.5 139z" />
<glyph unicode="6" d="M435 667l-140 -198q17 4 32 4q88 0 150 -67.5t62 -162.5q0 -104 -75 -179t-180 -75q-107 0 -181.5 76t-74.5 185q0 82 57 166l169 251h181zM188 241q0 -38 28 -65t68 -27q39 0 67 27t28 64q0 39 -28 66t-68 27q-39 0 -67 -27t-28 -65z" />
<glyph unicode="7" d="M112 0l244 530h-140v-100h-160v237h467v-137l-232 -530h-179z" />
<glyph unicode="8" d="M42 192q0 56 28 99.5t80 66.5q-79 43 -79 132q0 77 62.5 132.5t149.5 55.5t149 -55.5t62 -132.5q0 -88 -77 -132q51 -24 79 -67.5t28 -98.5q0 -87 -69 -145t-172 -58t-172 58.5t-69 144.5zM283 414q26 0 45 18.5t19 44.5q0 27 -19 45.5t-46 18.5q-26 0 -45 -18.5 t-19 -44.5t19.5 -45t45.5 -19zM202 207q0 -33 24 -57t58 -24q33 0 56.5 23.5t23.5 55.5q0 35 -23.5 59t-57.5 24t-57.5 -23.5t-23.5 -57.5z" />
<glyph unicode="9" d="M125 0l152 194q-19 -6 -41 -6q-85 0 -147 69.5t-62 164.5q0 103 77 179.5t181 76.5q49 0 99.5 -22t86.5 -60q69 -72 69 -185q0 -80 -49 -156l-166 -255h-200zM284 328q39 0 67.5 27.5t28.5 65.5q0 40 -28 68t-69 28q-40 0 -68 -27.5t-28 -66.5t28.5 -67t68.5 -28z" />
<glyph unicode=":" horiz-adv-x="245" d="M47 352v151h151v-151h-151zM47 0v151h151v-151h-151z" />
<glyph unicode=";" horiz-adv-x="245" d="M47 352v151h151v-151h-151zM47 0v151h152v-185q0 -57 -30 -88.5t-84 -31.5h-38v72q6 -1 17 -1q48 0 48 59v24h-65z" />
<glyph unicode="&#x3c;" horiz-adv-x="500" d="M33 273v128l433 229v-152l-272 -141l271 -141l1 -151z" />
<glyph unicode="=" d="M38 373v104h490v-104h-490zM38 203v104h490v-104h-490z" />
<glyph unicode="&#x3e;" horiz-adv-x="500" d="M33 45v152l271 141l-270 141l-1 151l433 -229v-128z" />
<glyph unicode="?" horiz-adv-x="510" d="M176 200q-1 6 -1 13q0 48 34 94q11 16 57 59q35 32 45.5 48t10.5 38q0 29 -21 50t-50 21q-34 0 -53.5 -21.5t-21.5 -60.5h-156v13q0 91 68.5 158.5t160.5 67.5q96 0 164 -66.5t68 -160.5q0 -89 -81 -155q-70 -58 -76 -98h-148zM176 0v150h148v-150h-148z" />
<glyph unicode="@" horiz-adv-x="775" d="M587 10l24 -77q-92 -30 -204 -30q-162 0 -262 91q-53 48 -82.5 115.5t-29.5 138.5q0 151 108 255t264 104q144 0 240.5 -85.5t96.5 -212.5q0 -59 -27 -116.5t-68 -85.5q-23 -15 -51 -20.5t-83 -5.5h-110l4 24q-37 -30 -88 -30q-56 0 -90.5 39.5t-34.5 103.5 q0 77 48.5 131.5t115.5 54.5q54 0 91 -32l6 -5l6 32h128l-16 -84h-35l-26 -151h51q38 0 53 16q43 43 43 124q0 103 -66 164.5t-177 61.5q-130 0 -213.5 -81.5t-83.5 -208.5q0 -118 80 -192q75 -68 208 -68q93 0 180 30zM281 228q0 -32 18.5 -52.5t47.5 -20.5q36 0 61 28 t25 69q0 32 -18.5 51.5t-48.5 19.5q-34 0 -59.5 -28.5t-25.5 -66.5z" />
<glyph unicode="A" horiz-adv-x="683" d="M-7 0v137h64l163 393h-64v137h254l215 -530h64v-137h-304v119h63l-20 61h-186l-18 -61h63v-119h-294zM282 305h106l-53 169z" />
<glyph unicode="B" horiz-adv-x="609" d="M36 0v137h64v393h-64v137h321q92 0 143 -44.5t51 -124.5q0 -100 -84 -141q109 -46 109 -164q0 -88 -56.5 -140.5t-151.5 -52.5h-332zM265 411h52q46 0 64.5 13t18.5 44q0 32 -18.5 45t-64.5 13h-52v-115zM265 144h52q46 0 64 11q28 16 28 56q0 68 -85 68h-59v-135z" />
<glyph unicode="C" horiz-adv-x="723" d="M528 248h178q-13 -45 -28.5 -74.5t-42.5 -61.5q-51 -59 -121 -92t-143 -33q-141 0 -242.5 103.5t-101.5 246.5q0 140 99.5 241.5t237.5 101.5q113 0 187 -73v60h135v-246h-158q-25 45 -67 69.5t-92 24.5q-74 0 -124.5 -50.5t-50.5 -125.5q0 -77 52 -132t126 -55 q50 0 90.5 25t65.5 71z" />
<glyph unicode="D" horiz-adv-x="713" d="M36 0v137h64v393h-64v137h339q146 0 234 -103q77 -92 77 -229q0 -147 -88 -241t-225 -94h-337zM265 147h92q87 0 126 56q36 50 36 131q0 88 -44 140q-39 46 -118 46h-92v-373z" />
<glyph unicode="E" horiz-adv-x="571" d="M36 0v137h64v393h-64v137h508v-220h-165v73h-114v-119h154v-127h-154v-127h114v73h165v-220h-508z" />
<glyph unicode="F" horiz-adv-x="558" d="M36 0v137h64v393h-64v137h512v-218h-165v71h-118v-124h154v-127h-154v-132h64v-137h-293z" />
<glyph unicode="G" horiz-adv-x="756" d="M571 0v69q-68 -82 -199 -82q-143 0 -244 101.5t-101 246.5q0 143 100.5 244t242.5 101q76 0 139 -33q19 -10 47 -29v49h135v-218h-181q-56 66 -134 66t-130 -51.5t-52 -128.5q0 -78 52.5 -131t129.5 -53q97 0 147 85h-191v139h374v-375h-135z" />
<glyph unicode="H" horiz-adv-x="739" d="M36 0v137h64v393h-64v137h293v-137h-64v-115h209v115h-63v137h292v-137h-64v-393h64v-137h-292v137h63v123h-209v-123h64v-137h-293z" />
<glyph unicode="I" horiz-adv-x="365" d="M36 0v137h64v393h-64v137h293v-137h-64v-393h64v-137h-293z" />
<glyph unicode="J" horiz-adv-x="534" d="M447 530v-318q0 -61 -15 -100.5t-50 -70.5q-61 -55 -154 -55t-157 56q-64 57 -64 154q0 10 1 16h173q0 -71 51 -71q27 0 38.5 20.5t11.5 67.5v301h-63v137h292v-137h-64z" />
<glyph unicode="K" horiz-adv-x="687" d="M36 0v137h64v393h-64v137h293v-137h-64v-161l163 161h-50v137h296v-137h-42l-204 -192l211 -201h48v-137h-309v137h54l-167 162v-162h64v-137h-293z" />
<glyph unicode="L" horiz-adv-x="559" d="M36 0v137h64v393h-64v137h293v-137h-64v-383h122v73h165v-220h-516z" />
<glyph unicode="M" horiz-adv-x="920" d="M36 0v137h64v393h-64v137h284l135 -410l132 410h297v-137h-64v-393h64v-137h-293v137h64v301l-146 -438h-113l-145 433v-296h64v-137h-279z" />
<glyph unicode="N" horiz-adv-x="759" d="M36 0v137h64v393h-64v137h208l263 -374v237h-64v137h293v-137h-64v-530h-150l-257 363v-226h64v-137h-293z" />
<glyph unicode="O" horiz-adv-x="751" d="M27 333q0 143 102.5 245t245.5 102q146 0 247.5 -101.5t101.5 -247.5q0 -141 -103 -242.5t-246 -101.5q-144 0 -246 101.5t-102 244.5zM194 334q0 -75 53.5 -128.5t128.5 -53.5q74 0 127.5 53.5t53.5 127.5q0 77 -52.5 129.5t-129.5 52.5q-75 0 -128 -53t-53 -128z" />
<glyph unicode="P" horiz-adv-x="591" d="M36 0v137h64v393h-64v137h272q121 0 183 -47q83 -63 83 -178q0 -101 -64.5 -166.5t-164.5 -65.5h-80v-73h64v-137h-293zM265 357h59q39 0 61 21t22 59q0 39 -24.5 61t-67.5 22h-50v-163z" />
<glyph unicode="Q" horiz-adv-x="824" d="M824 172v-190q-26 -7 -58 -7q-115 0 -206 69q-93 -58 -189 -58q-143 0 -244 101.5t-101 246.5q0 143 101 244.5t244 101.5t244 -101t101 -244q0 -107 -61 -197q26 -20 50 -18v52h119zM193 358q49 20 102 20q127 0 235 -128q19 37 19 80q0 77 -52 131t-127 54 q-68 0 -120.5 -46.5t-56.5 -110.5zM224 229q53 -78 149 -78q32 0 59 13q-70 83 -147 83q-35 0 -61 -18z" />
<glyph unicode="R" horiz-adv-x="635" d="M36 0v137h64v393h-64v137h314q115 0 178 -64q67 -67 67 -168q0 -77 -38 -132t-101 -68l82 -98h67v-137h-173l-167 245v-108h42v-137h-271zM265 327h52q52 0 81.5 26.5t29.5 72.5q0 42 -27 71q-22 23 -65 23h-71v-193z" />
<glyph unicode="S" horiz-adv-x="514" d="M30 0v214h150q2 -86 73 -86q30 0 49 17.5t19 45.5q0 26 -17.5 41t-70.5 33q-59 20 -85.5 33t-52.5 35q-68 57 -68 142t60.5 145t146.5 60q34 0 57 -8.5t51 -30.5v26h124v-194h-147q-2 32 -19 50.5t-45 18.5q-27 0 -44.5 -16.5t-17.5 -42.5q0 -29 19.5 -44.5t82.5 -34.5 q87 -27 130 -63q63 -51 63 -141q0 -91 -61.5 -152t-153.5 -61q-69 0 -114 44v-31h-129z" />
<glyph unicode="T" horiz-adv-x="572" d="M140 0v137h64v383h-67v-83h-130v230h559v-230h-130v83h-67v-383h64v-137h-293z" />
<glyph unicode="U" horiz-adv-x="673" d="M586 530v-307q0 -112 -70 -176q-63 -60 -179 -60q-126 0 -191 71q-59 63 -59 165v307h-64l1 137h276v-137h-48v-290q0 -47 22 -72.5t63 -25.5q84 0 84 98v290h-47v137h275l1 -137h-64z" />
<glyph unicode="V" horiz-adv-x="636" d="M218 0l-161 530h-64v137h289v-137h-51l86 -302l97 302h-51v137h279v-137h-64l-177 -530h-183z" />
<glyph unicode="W" horiz-adv-x="926" d="M206 0l-150 530h-56v137h291v-137h-64l64 -250l98 387h142l110 -383l57 246h-65v137h293v-137h-70l-135 -530h-152l-108 378l-106 -378h-149z" />
<glyph unicode="X" horiz-adv-x="667" d="M0 0v137h62l175 198l-166 195h-59v137h295v-127h-47l77 -90l78 90h-46v127h298v-137h-61l-171 -195l171 -198h61v-137h-298v127h56l-88 96l-89 -96h52v-127h-300z" />
<glyph unicode="Y" horiz-adv-x="594" d="M149 0v137h64v101l-161 292h-59v137h273v-137h-47l77 -157l82 157h-49v137h271v-137h-58l-164 -292v-101h64v-137h-293z" />
<glyph unicode="Z" horiz-adv-x="553" d="M23 0v128l299 395h-133v-79h-147v223h478v-124l-301 -399h158v78h153v-222h-507z" />
<glyph unicode="[" horiz-adv-x="385" d="M47 -174v841h310v-138h-147v-563h147v-140h-310z" />
<glyph unicode="\" horiz-adv-x="509" d="M412 -174l-362 841h104l362 -841h-104z" />
<glyph unicode="]" horiz-adv-x="385" d="M28 -36h147v563h-147v140h310v-841h-310v138z" />
<glyph unicode="^" horiz-adv-x="500" d="M14 349l151 322h169l151 -322h-135l-100 219l-101 -219h-135z" />
<glyph unicode="_" horiz-adv-x="500" d="M0 -56h500v-91h-500v91z" />
<glyph unicode="`" horiz-adv-x="500" d="M320 547l-246 99l54 115l231 -131z" />
<glyph unicode="a" horiz-adv-x="656" d="M418 0v43q-50 -58 -138 -58q-104 0 -179.5 78t-75.5 185q0 110 77 190t184 80q82 0 132 -63v48h201v-137h-53v-229h53v-137h-201zM178 251q0 -49 35 -84.5t85 -35.5t85.5 35.5t35.5 85.5t-34.5 85t-85.5 35q-49 0 -85 -36t-36 -85z" />
<glyph unicode="b" horiz-adv-x="644" d="M31 0v137h53v393h-53v137h201v-213q47 59 138 59q102 0 175 -77.5t73 -185.5q0 -105 -72.5 -182.5t-170.5 -77.5q-83 0 -143 66v-56h-201zM229 253q0 -50 35.5 -86.5t85.5 -36.5q48 0 83 35.5t35 84.5q0 52 -35 87.5t-85 35.5q-49 0 -84 -35t-35 -85z" />
<glyph unicode="c" horiz-adv-x="561" d="M380 176h164q-26 -86 -96 -138.5t-158 -52.5q-109 0 -187 79t-78 189q0 108 75 186.5t178 78.5q69 0 120 -52v37h126v-180h-138q-41 50 -96 50q-48 0 -81.5 -35.5t-33.5 -85.5q0 -52 34.5 -87t84.5 -35q60 0 86 46z" />
<glyph unicode="d" horiz-adv-x="651" d="M418 0v54q-49 -64 -139 -64q-103 0 -179 78.5t-76 185.5q0 105 74.5 182t176.5 77q80 0 143 -57v74h-54v137h202v-530h54v-137h-202zM178 251q0 -49 36 -85t85 -36q50 0 86 36t36 86q0 51 -35 86t-86 35q-50 0 -86 -36t-36 -86z" />
<glyph unicode="e" horiz-adv-x="573" d="M377 150h152q-31 -76 -95 -121t-143 -45q-112 0 -189 77t-77 190q0 112 75.5 189.5t185.5 77.5t186 -76t76 -187q0 -25 -7 -60h-374q38 -80 124 -80q56 0 86 35zM166 304h246q-17 40 -50.5 62t-75.5 22q-40 0 -73 -23t-47 -61z" />
<glyph unicode="f" horiz-adv-x="328" d="M37 0v137h53v229h-53v137h53q6 194 212 187v-130q-6 1 -14 1q-30 0 -44 -23q-6 -12 -6 -35h64v-137h-64v-229h54v-137h-255z" />
<glyph unicode="g" horiz-adv-x="640" d="M50 -40h171q21 -41 78 -41q50 0 81 31.5t31 81.5v19q-19 -23 -31 -31q-39 -30 -102 -30q-104 0 -179 76.5t-75 183.5t76.5 185t182.5 78q89 0 138 -61v51h188v-137h-53v-315q0 -71 -15.5 -113t-53.5 -76q-75 -68 -191 -68q-122 0 -194 69q-39 39 -52 97zM175 252 q0 -50 36.5 -86t87.5 -36q50 0 87 36t37 85q0 51 -36.5 86.5t-88.5 35.5q-50 0 -86.5 -35.5t-36.5 -85.5z" />
<glyph unicode="h" horiz-adv-x="627" d="M31 0v137h53v393h-53v137h201v-231q50 77 139 77q80 0 129.5 -59.5t49.5 -156.5v-160h53v-137h-201v262q0 55 -17 77q-21 29 -65 29q-43 0 -70 -32q-18 -22 -18 -68v-131h54v-137h-255z" />
<glyph unicode="i" horiz-adv-x="323" d="M90 530v137h148v-137h-148zM37 0v137h53v229h-53v137h201v-366h54v-137h-255z" />
<glyph unicode="j" horiz-adv-x="297" d="M90 530v137h149v-137h-149zM15 -52q4 -1 11 -1q18 0 34 10t22 24q8 22 8 74v311h-53v137h201v-508q0 -90 -56.5 -137t-166.5 -47v137z" />
<glyph unicode="k" horiz-adv-x="578" d="M31 0v137h53v393h-53v137h201v-390l94 104h-42v122h260v-137h-48l-107 -111l107 -118h72v-137h-165l-171 225v-225h-201z" />
<glyph unicode="l" horiz-adv-x="317" d="M31 0v137h53v393h-53v137h201v-530h54v-137h-255z" />
<glyph unicode="m" horiz-adv-x="930" d="M37 0v137h53v229h-53v137h186v-73q55 83 138 83q97 0 149 -100q52 100 161 100q42 0 80.5 -17.5t63.5 -48.5q39 -46 39 -135v-175h53v-137h-201v276q0 45 -17 66q-20 25 -58 25q-42 0 -64.5 -25.5t-22.5 -74.5v-130h53v-137h-201v262q0 38 -2.5 51.5t-11.5 25.5 q-20 28 -59 28q-41 0 -63 -28t-22 -79v-123h54v-137h-255z" />
<glyph unicode="n" horiz-adv-x="631" d="M37 0v137h53v229h-53v137h201v-65q46 75 136 75q92 0 146 -65q20 -25 27.5 -51t7.5 -73v-187h53v-137h-201v283q0 84 -78 84q-55 0 -78 -38q-13 -20 -13 -77v-115h54v-137h-255z" />
<glyph unicode="o" horiz-adv-x="586" d="M25 252q0 110 78.5 188t188.5 78q113 0 191 -78t78 -191q0 -108 -79 -186t-189 -78t-189 78.5t-79 188.5zM175 252q0 -50 34.5 -86t83.5 -36q48 0 83 36t35 85q0 51 -34.5 86.5t-83.5 35.5t-83.5 -35.5t-34.5 -85.5z" />
<glyph unicode="p" horiz-adv-x="652" d="M31 -35h53v401h-53v137h201v-58q50 68 141 68q104 0 179 -78t75 -186q0 -104 -73 -181.5t-172 -77.5q-70 0 -121 35q-1 1 -29 22v-82h54v-139h-255v139zM227 251q0 -49 37 -85t88 -36t88 35.5t37 84.5q0 52 -36 87.5t-88 35.5t-89 -36t-37 -86z" />
<glyph unicode="q" horiz-adv-x="652" d="M420 -35v82q-23 -18 -29 -22q-51 -35 -121 -35q-99 0 -172 77t-73 182q0 108 75 186t179 78q91 0 141 -68v58h201v-137h-53v-401h53v-139h-255v139h54zM175 253q0 -52 36 -87.5t89 -35.5q51 0 88 36t37 85q0 50 -37 86t-89 36q-51 0 -87.5 -35.5t-36.5 -84.5z" />
<glyph unicode="r" horiz-adv-x="378" d="M37 0v137h53v229h-53v137h189v-76q49 78 142 83v-152q-63 -3 -96.5 -36t-33.5 -92v-93h54v-137h-255z" />
<glyph unicode="s" horiz-adv-x="470" d="M34 0v147h143q9 -53 62 -53q23 0 37 11.5t14 30.5t-15 30t-55 22q-67 18 -87.5 25.5t-43.5 21.5q-66 39 -66 120q0 70 50.5 114t130.5 44q70 0 110 -39v29h98v-142h-135q-4 43 -50 43q-20 0 -33.5 -10t-13.5 -26q0 -25 35 -38q12 -5 97 -29q134 -37 134 -150 q0 -71 -51 -116t-131 -45q-77 0 -128 42v-32h-102z" />
<glyph unicode="t" horiz-adv-x="329" d="M85 0v366h-69v137h69v164h148v-164h70v-137h-70v-229h73v-137h-221z" />
<glyph unicode="u" horiz-adv-x="617" d="M76 181v185h-53v137h201v-280q0 -97 75 -97q45 0 69 37q11 19 11 66v137h-53v137h206v-366h54v-137h-193v51q-55 -61 -141 -61q-77 0 -126.5 53.5t-49.5 137.5z" />
<glyph unicode="v" horiz-adv-x="513" d="M178 0l-139 366h-46v137h237v-137h-28l52 -179l62 179h-31v137h234v-137h-46l-142 -366h-153z" />
<glyph unicode="w" horiz-adv-x="779" d="M151 0l-102 366h-49v137h236v-137h-42l42 -159l91 296h119l86 -296l47 159h-42v137h242v-137h-57l-122 -366h-139l-79 263l-97 -263h-134z" />
<glyph unicode="x" horiz-adv-x="560" d="M7 0v137h44l128 119l-121 110h-43v137h222v-111l45 -41l44 41v111h221v-137h-44l-119 -110l128 -119h42v-137h-228v119l-44 43l-45 -43v-119h-230z" />
<glyph unicode="y" horiz-adv-x="525" d="M115 -40h45l22 55l-138 351h-51v137h242v-137h-30l57 -168l60 168h-30v137h239v-137h-47l-169 -406h52v-137h-252v137z" />
<glyph unicode="z" horiz-adv-x="471" d="M21 0v117l236 249h-98v-36h-127v173h407v-132l-218 -234h102v33h127v-170h-429z" />
<glyph unicode="{" horiz-adv-x="385" d="M55 -36v140q0 65 -52 74v137q52 9 52 73v140q0 72 31.5 105.5t98.5 33.5h143v-137h-35q-50 0 -62.5 -11t-12.5 -55v-95q0 -50 -13.5 -78t-44.5 -45q31 -16 44.5 -44t13.5 -78v-95q0 -46 11.5 -56.5t60.5 -10.5h3h35v-136h-143q-67 0 -98.5 33.5t-31.5 104.5z" />
<glyph unicode="|" horiz-adv-x="500" d="M173 -167v834h154v-834h-154z" />
<glyph unicode="}" horiz-adv-x="385" d="M57 -37h35q51 0 63.5 11t12.5 55v95q0 50 13.5 78t44.5 45q-31 16 -44.5 44t-13.5 78v95q0 32 -3.5 43t-15.5 17q-13 7 -53 7h-4h-35v136h144q67 0 98.5 -33.5t31.5 -104.5v-140q0 -65 51 -74v-137q-51 -9 -51 -73v-140q0 -72 -31.5 -105.5t-98.5 -33.5h-144v137z" />
<glyph unicode="~" horiz-adv-x="667" d="M167 551l-74 62q56 137 150 137q32 0 112 -34q58 -25 76 -25q40 0 71 62l75 -62q-31 -74 -66.5 -105t-90.5 -31q-20 0 -38.5 6t-72.5 29q-50 22 -73 22q-36 0 -69 -61z" />
<glyph unicode="&#xa1;" horiz-adv-x="257" d="M53 352v151h150v-151h-150zM53 -163v448h150v-448h-150z" />
<glyph unicode="&#xa2;" d="M224 20v98q-74 19 -120.5 78.5t-46.5 135.5q0 77 46.5 139t120.5 83v95h118v-92q30 -10 62 -37v26h90v-171h-141q-20 38 -65 38q-32 0 -55.5 -23.5t-23.5 -56.5q0 -34 23 -55.5t59 -21.5q30 0 56 27h162q-18 -65 -56.5 -105t-110.5 -66v-92h-118z" />
<glyph unicode="&#xa3;" d="M35 0v127h69q34 0 49 13t15 40q0 34 -33 81h-111v119h40q-22 48 -22 96q0 88 55 145t139 57q52 0 86 -33v22h148v-200h-148q-6 76 -56 76q-26 0 -42 -20.5t-16 -53.5q0 -44 28 -89h129v-119h-54q24 -36 24 -66q0 -38 -39 -68h38q68 0 68 65q0 16 -10 39h139 q12 -33 12 -59q0 -88 -77 -138q-52 -34 -157 -34h-274z" />
<glyph unicode="&#xa4;" d="M100 74l-78 77l57 57l-3 9l-17 32q-17 31 -17 85q0 35 5 52t29 62l5 10l-57 57l78 78l57 -57q2 1 5 2q4 2 5 2l32 17q32 16 82 16q36 0 53.5 -5t61.5 -28h2q1 -1 3 -2l4 -2l57 57l75 -76l-56 -56q1 -3 5 -11l17 -32q17 -32 17 -87q0 -35 -5 -52.5t-27 -60.5q-1 -1 -4 -9 l56 -57l-77 -78l-57 57l-11 -6l-31 -17q-32 -17 -84 -17q-36 0 -53.5 5.5t-61.5 28.5q-2 2 -11 5zM282 207q50 0 86 36.5t36 87.5q0 53 -35.5 89.5t-86.5 36.5q-50 0 -86 -36.5t-36 -88.5q0 -51 36 -88t86 -37z" />
<glyph unicode="&#xa5;" d="M137 0v137h67v68h-140v87h113l-30 66h-101v91h57l-38 81h-51v137h237v-137h-41l73 -171l77 171h-42v137h234v-137h-49l-39 -81h57v-91h-101l-32 -66h113v-87h-140v-68h65v-137h-289z" />
<glyph unicode="&#xa6;" horiz-adv-x="500" d="M173 314v353h154v-353h-154zM173 153h154v-320h-154v320z" />
<glyph unicode="&#xa7;" d="M73 35h150q1 -43 16.5 -61.5t51.5 -18.5q26 0 41.5 15t15.5 40q0 34 -31 48q-13 6 -73 27q-67 23 -100 52q-56 51 -56 123q0 71 63 130q-60 45 -60 115q0 76 54.5 125.5t137.5 49.5q95 0 150 -60q24 -26 33.5 -53.5t9.5 -73.5h-135q-5 57 -54 57q-20 0 -32.5 -12.5 t-12.5 -32.5q0 -22 10.5 -32.5t44.5 -22.5q97 -35 140.5 -79.5t43.5 -109.5q0 -74 -61 -118q40 -24 57 -54t17 -76q0 -88 -56 -138t-154 -50q-80 0 -132.5 36t-70.5 104q-8 29 -8 70zM231 261q0 -20 16 -35t38 -15q23 0 39.5 15t16.5 36t-16 35.5t-39 14.5t-39 -15t-16 -36z " />
<glyph unicode="&#xa8;" horiz-adv-x="500" d="M277 580v145h147v-145h-147zM76 580v145h147v-145h-147z" />
<glyph unicode="&#xa9;" horiz-adv-x="779" d="M37 333q0 148 104 251t253 103q143 0 245.5 -104.5t102.5 -249.5q0 -146 -103.5 -249.5t-248.5 -103.5q-146 0 -249.5 104t-103.5 249zM96 333q0 -123 86.5 -210.5t207.5 -87.5t207 87.5t86 211.5q0 122 -85.5 210t-203.5 88q-125 0 -211.5 -87t-86.5 -212zM477 292h107 q-19 -69 -72 -111t-121 -42q-80 0 -138 59t-58 141q0 80 56.5 138t135.5 58q56 0 102 -37v29h82v-144h-94q-30 53 -87 53q-41 0 -68 -27.5t-27 -68.5q0 -42 28.5 -72t68.5 -30q57 0 85 54z" />
<glyph unicode="&#xaa;" horiz-adv-x="378" d="M233 400v17q-28 -25 -67 -25q-55 0 -94 41t-39 97q0 57 40.5 99.5t95.5 42.5q36 0 64 -28v19h109v-76h-27v-111h27v-76h-109zM175 472q24 0 41.5 17.5t17.5 42.5q0 24 -17 41.5t-41 17.5t-41.5 -17.5t-17.5 -42.5t17 -42t41 -17zM29 283v63h313v-63h-313z" />
<glyph unicode="&#xab;" horiz-adv-x="359" d="M202 196v117l120 123v-147l-46 -39l46 -40v-131zM149 79l-119 117v121l119 116v-142l-46 -40l46 -38v-134z" />
<glyph unicode="&#xac;" horiz-adv-x="500" d="M33 157v134h433v-291h-149v157h-284z" />
<glyph unicode="&#xad;" horiz-adv-x="254" d="M0 184v146h254v-146h-254z" />
<glyph unicode="&#xae;" horiz-adv-x="779" d="M37 333q0 148 104 251t253 103q143 0 245.5 -104.5t102.5 -249.5q0 -146 -103.5 -249.5t-248.5 -103.5q-146 0 -249.5 104t-103.5 249zM96 333q0 -123 86.5 -210.5t207.5 -87.5t207 87.5t86 211.5q0 122 -85.5 210t-203.5 88q-125 0 -211.5 -87t-86.5 -212zM227 147v83 h36v214h-36v83h179q65 0 103 -36.5t38 -97.5q0 -43 -21 -74t-55 -40l42 -49h39v-83h-92l-101 136v-53h19v-83h-151zM359 336h29q28 0 43.5 14t15.5 39q0 49 -49 49h-39v-102z" />
<glyph unicode="&#xaf;" horiz-adv-x="500" d="M80 607v93h340v-93h-340z" />
<glyph unicode="&#xb0;" horiz-adv-x="382" d="M191 376q-63 0 -107 44.5t-44 108.5q0 61 44.5 105t106.5 44t106.5 -44.5t44.5 -106.5t-44.5 -106.5t-106.5 -44.5zM191 457q28 0 47.5 20.5t19.5 49.5t-19.5 49.5t-47.5 20.5q-27 0 -47 -20.5t-20 -48.5q0 -29 19.5 -50t47.5 -21z" />
<glyph unicode="&#xb1;" d="M223 115v168h-185v114h185v181h119v-181h186v-114h-186v-168h-119zM38 -37v114h490v-114h-490z" />
<glyph unicode="&#xb2;" horiz-adv-x="374" d="M37 267v85l141 126q29 26 36.5 36.5t7.5 24.5t-12.5 25t-29.5 11q-41 0 -43 -50h-105q4 69 44.5 109t106.5 40q61 0 103.5 -39t42.5 -95q0 -43 -26 -80q-8 -10 -67 -54l-57 -52h57v28h89v-115h-288z" />
<glyph unicode="&#xb3;" horiz-adv-x="374" d="M141 554h-99q1 53 40 86.5t100 33.5q56 0 95 -31.5t39 -77.5q0 -49 -41 -79q61 -30 61 -96q0 -54 -45.5 -92t-109.5 -38q-70 0 -114 34.5t-47 92.5h109q11 -38 45 -38q20 0 34 13t14 32q0 40 -54 45l-12 1l-9 1v76q9 1 19 1q51 1 51 38q0 14 -10.5 23.5t-26.5 9.5 q-35 0 -39 -35z" />
<glyph unicode="&#xb4;" horiz-adv-x="500" d="M180 547l-39 83l231 131l54 -115z" />
<glyph unicode="&#xb5;" d="M64 -170v650h129v-251q0 -63 17 -88q28 -43 73 -43q43 0 67 35.5t24 99.5v247h129v-480h-129v67q-29 -77 -93 -77q-56 0 -88 60v-220h-129z" />
<glyph unicode="&#xb6;" d="M140 -37h66v348q-89 -1 -137.5 45t-48.5 131q0 180 223 180h293v-137h-66v-567h66v-137h-167v704h-62v-704h-167v137z" />
<glyph unicode="&#xb7;" horiz-adv-x="245" d="M47 181v151h151v-151h-151z" />
<glyph unicode="&#xb8;" horiz-adv-x="500" d="M179 -103l44 103h80l-23 -51q43 -5 67 -30t24 -64q0 -45 -30 -75t-74 -30t-72.5 27.5t-32.5 73.5h75q9 -26 29 -26q13 0 21 8t8 21q0 12 -9 20.5t-21 8.5q-13 0 -26 -12z" />
<glyph unicode="&#xb9;" horiz-adv-x="374" d="M94 267v87h45v234h-49v79h156v-313h45v-87h-197z" />
<glyph unicode="&#xba;" horiz-adv-x="378" d="M189 392q-58 0 -99 41t-41 99t41 99t99 41q59 0 99.5 -41t40.5 -100q0 -57 -41.5 -98t-98.5 -41zM189 473q23 0 40 17.5t17 41.5q0 25 -16.5 42t-40.5 17q-23 0 -40 -17.5t-17 -41.5t17 -41.5t40 -17.5zM32 283v63h313v-63h-313z" />
<glyph unicode="&#xbb;" horiz-adv-x="359" d="M37 79v131l47 40l-47 39v147l121 -123v-117zM210 79v134l46 38l-46 40v142l119 -116v-121z" />
<glyph unicode="&#xbc;" horiz-adv-x="885" d="M249 0l304 667h83l-302 -667h-85zM94 267v87h45v234h-49v79h156v-313h45v-87h-197zM520 114v74l173 212h120v-210h64v-76h-64v-30h45v-84h-198v84h46v30h-186zM630 185h81v100z" />
<glyph unicode="&#xbd;" horiz-adv-x="885" d="M249 0l304 667h83l-302 -667h-85zM94 267v87h45v234h-49v79h156v-313h45v-87h-197zM548 0v85l141 126q29 26 36.5 36.5t7.5 24.5t-12.5 25t-29.5 11q-41 0 -43 -50h-105q4 69 44.5 109t106.5 40q61 0 103.5 -39t42.5 -95q0 -43 -26 -80q-8 -10 -67 -53l-57 -53h57v29h89 v-116h-288z" />
<glyph unicode="&#xbe;" horiz-adv-x="885" d="M141 554h-99q1 53 40 86.5t100 33.5q56 0 95 -31.5t39 -77.5q0 -49 -41 -79q61 -30 61 -96q0 -54 -45.5 -92t-109.5 -38q-70 0 -114 34.5t-47 92.5h109q11 -38 45 -38q20 0 34 13t14 32q0 40 -54 45l-12 1l-9 1v76q9 1 19 1q51 1 51 38q0 14 -10.5 23.5t-26.5 9.5 q-35 0 -39 -35zM249 0l304 667h83l-303 -667h-84zM519 114v74l173 212h120v-210h64v-76h-64v-30h45v-84h-197v84h45v30h-186zM630 185h80v100z" />
<glyph unicode="&#xbf;" horiz-adv-x="510" d="M186 353v150h148v-150h-148zM335 62h155q1 -7 1 -13q0 -91 -68.5 -158.5t-160.5 -67.5q-96 0 -164 66.5t-68 160.5q0 89 80 155q39 33 55.5 54t20.5 44h149v-13q0 -49 -33 -94q-9 -13 -58 -59q-35 -32 -45 -48t-10 -38q0 -29 21 -50t50 -21q33 0 52.5 21.5t22.5 60.5z " />
<glyph unicode="&#xc0;" horiz-adv-x="683" d="M103 775l31 131l286 -90l-23 -103zM-7 0v137h64l163 393h-64v137h254l215 -530h64v-137h-304v119h63l-20 61h-186l-18 -61h63v-119h-294zM282 305h106l-53 169z" />
<glyph unicode="&#xc1;" horiz-adv-x="683" d="M266 713l-23 103l286 90l31 -131zM-7 0v137h64l163 393h-64v137h254l215 -530h64v-137h-304v119h63l-20 61h-186l-18 -61h63v-119h-294zM282 305h106l-53 169z" />
<glyph unicode="&#xc2;" horiz-adv-x="683" d="M109 727l172 158h128l172 -158h-178l-58 60l-58 -60h-178zM-7 0v137h64l163 393h-64v137h254l215 -530h64v-137h-304v119h63l-20 61h-186l-18 -61h63v-119h-294zM282 305h106l-53 169z" />
<glyph unicode="&#xc3;" horiz-adv-x="683" d="M168 730l-26 100q43 46 99 46q45 0 108 -26q22 -10 52 -10q31 0 50 8t54 35l28 -106l-9 -7q-34 -26 -59 -34q-29 -8 -51 -8q-23 0 -70 20q-46 20 -76 20q-55 0 -100 -38zM-7 0v137h64l163 393h-64v137h254l215 -530h64v-137h-304v119h63l-20 61h-186l-18 -61h63v-119 h-294zM282 305h106l-53 169z" />
<glyph unicode="&#xc4;" horiz-adv-x="683" d="M362 732v145h153v-145h-153zM153 732v145h153v-145h-153zM-7 0v137h64l163 393h-64v137h254l215 -530h64v-137h-304v119h63l-20 61h-186l-18 -61h63v-119h-294zM282 305h106l-53 169z" />
<glyph unicode="&#xc5;" horiz-adv-x="683" d="M338 707q-47 0 -81.5 34.5t-34.5 81.5q0 48 34 82t82 34q49 0 82.5 -34t33.5 -84q0 -46 -34.5 -80t-81.5 -34zM338 786q15 0 26 11t11 26q0 16 -10.5 26.5t-26.5 10.5q-15 0 -26 -11t-11 -26t11 -26t26 -11zM-7 0v137h64l163 393h-64v137h254l215 -530h64v-137h-304v119 h63l-20 61h-186l-18 -61h63v-119h-294zM282 305h106l-53 169z" />
<glyph unicode="&#xc6;" horiz-adv-x="885" d="M-20 0v137h67l265 393h-62v137h609v-220h-165v73h-117v-119h153v-127h-153v-127h117v73h165v-220h-511v115h64v66h-166l-41 -66h66v-115h-291zM318 300h94v155z" />
<glyph unicode="&#xc7;" horiz-adv-x="723" d="M269 -106l44 99q-82 13 -155 70q-62 49 -96.5 121t-34.5 153q0 140 99.5 241.5t237.5 101.5q113 0 187 -73v60h135v-246h-158q-25 45 -67 69.5t-92 24.5q-74 0 -124.5 -50.5t-50.5 -125.5q0 -78 52 -133t126 -55q104 0 156 97h178q-26 -106 -115.5 -180t-202.5 -82 l-19 -41q31 -2 49 -12q41 -25 41 -78q0 -43 -30 -73.5t-73 -30.5t-70.5 26.5t-30.5 70.5h73q9 -24 30 -24q11 0 19 8t8 19q0 12 -9 21t-21 9q-13 0 -23 -13z" />
<glyph unicode="&#xc8;" horiz-adv-x="571" d="M82 775l31 131l286 -90l-23 -103zM36 0v137h64v393h-64v137h508v-220h-165v73h-114v-119h154v-127h-154v-127h114v73h165v-220h-508z" />
<glyph unicode="&#xc9;" horiz-adv-x="571" d="M225 713l-23 103l286 90l31 -131zM36 0v137h64v393h-64v137h508v-220h-165v73h-114v-119h154v-127h-154v-127h114v73h165v-220h-508z" />
<glyph unicode="&#xca;" horiz-adv-x="571" d="M66 727l172 158h128l172 -158h-178l-58 60l-58 -60h-178zM36 0v137h64v393h-64v137h508v-220h-165v73h-114v-119h154v-127h-154v-127h114v73h165v-220h-508z" />
<glyph unicode="&#xcb;" horiz-adv-x="571" d="M333 732v145h153v-145h-153zM124 732v145h153v-145h-153zM36 0v137h64v393h-64v137h508v-220h-165v73h-114v-119h154v-127h-154v-127h114v73h165v-220h-508z" />
<glyph unicode="&#xcc;" horiz-adv-x="365" d="M251 713l-294 62l31 131l286 -90zM36 0v137h64v393h-64v137h292v-137h-63v-393h63v-137h-292z" />
<glyph unicode="&#xcd;" horiz-adv-x="365" d="M134 713l-23 103l286 90l31 -131zM36 0v137h64v393h-64v137h293v-137h-64v-393h64v-137h-293z" />
<glyph unicode="&#xce;" horiz-adv-x="365" d="M-34 727l158 158h129l158 -158h-171l-52 66l-51 -66h-171zM36 0v137h64v393h-64v137h292v-137h-63v-393h63v-137h-292z" />
<glyph unicode="&#xcf;" horiz-adv-x="365" d="M214 732v145h133v-145h-133zM31 732v145h133v-145h-133zM36 0v137h64v393h-64v137h293v-137h-64v-393h64v-137h-293z" />
<glyph unicode="&#xd0;" horiz-adv-x="713" d="M36 0v137h64v153h-60v107h60v133h-64v137h339q146 0 234 -103q77 -92 77 -229q0 -147 -88 -241t-225 -94h-337zM265 147h92q86 0 126 56q36 50 36 131q0 88 -44 140q-39 46 -118 46h-92v-123h120v-107h-120v-143z" />
<glyph unicode="&#xd1;" horiz-adv-x="759" d="M240 730l-26 100q43 46 99 46q45 0 108 -26q22 -10 52 -10q31 0 50 8t54 35l28 -106l-9 -7q-34 -26 -59 -34q-29 -8 -51 -8q-23 0 -70 20q-46 20 -76 20q-55 0 -100 -38zM36 0v137h64v393h-64v137h208l263 -374v237h-64v137h293v-137h-64v-530h-150l-257 363v-226h64 v-137h-293z" />
<glyph unicode="&#xd2;" horiz-adv-x="751" d="M157 775l31 131l286 -90l-23 -103zM27 333q0 143 102.5 245t245.5 102q146 0 247.5 -101.5t101.5 -247.5q0 -141 -103 -242.5t-246 -101.5q-144 0 -246 101.5t-102 244.5zM194 334q0 -75 53.5 -128.5t128.5 -53.5q74 0 127.5 53.5t53.5 127.5q0 77 -52.5 129.5 t-129.5 52.5q-75 0 -128 -53t-53 -128z" />
<glyph unicode="&#xd3;" horiz-adv-x="751" d="M320 713l-23 103l286 90l31 -131zM27 333q0 143 102.5 245t245.5 102q146 0 247.5 -101.5t101.5 -247.5q0 -141 -103 -242.5t-246 -101.5q-144 0 -246 101.5t-102 244.5zM194 334q0 -75 53.5 -128.5t128.5 -53.5q74 0 127.5 53.5t53.5 127.5q0 77 -52.5 129.5 t-129.5 52.5q-75 0 -128 -53t-53 -128z" />
<glyph unicode="&#xd4;" horiz-adv-x="751" d="M143 727l172 158h128l172 -158h-178l-58 60l-58 -60h-178zM27 333q0 143 102.5 245t245.5 102q146 0 247.5 -101.5t101.5 -247.5q0 -141 -103 -242.5t-246 -101.5q-144 0 -246 101.5t-102 244.5zM194 334q0 -75 53.5 -128.5t128.5 -53.5q74 0 127.5 53.5t53.5 127.5 q0 77 -52.5 129.5t-129.5 52.5q-75 0 -128 -53t-53 -128z" />
<glyph unicode="&#xd5;" horiz-adv-x="751" d="M230 730l-26 100q43 46 99 46q45 0 108 -26q22 -10 52 -10q31 0 50 8t54 35l28 -106l-9 -7q-34 -26 -59 -34q-29 -8 -51 -8q-23 0 -70 20q-46 20 -76 20q-55 0 -100 -38zM27 333q0 143 102.5 245t245.5 102q146 0 247.5 -101.5t101.5 -247.5q0 -141 -103 -242.5 t-246 -101.5q-144 0 -246 101.5t-102 244.5zM194 334q0 -75 53.5 -128.5t128.5 -53.5q74 0 127.5 53.5t53.5 127.5q0 77 -52.5 129.5t-129.5 52.5q-75 0 -128 -53t-53 -128z" />
<glyph unicode="&#xd6;" horiz-adv-x="751" d="M407 732v145h153v-145h-153zM198 732v145h153v-145h-153zM27 333q0 143 102.5 245t245.5 102q146 0 247.5 -101.5t101.5 -247.5q0 -141 -103 -242.5t-246 -101.5q-144 0 -246 101.5t-102 244.5zM194 334q0 -75 53.5 -128.5t128.5 -53.5q74 0 127.5 53.5t53.5 127.5 q0 77 -52.5 129.5t-129.5 52.5q-75 0 -128 -53t-53 -128z" />
<glyph unicode="&#xd7;" d="M140 119l-78 77l142 142l-142 142l82 82l141 -142l142 142l78 -78l-142 -142l142 -142l-81 -81l-142 141z" />
<glyph unicode="&#xd8;" horiz-adv-x="748" d="M53 31l59 71q-85 104 -85 224q0 150 102 252t252 102q33 0 47.5 -2.5t67.5 -19.5q28 -9 47 -22l60 74l83 -68l-55 -69q38 -43 52 -69q39 -70 39 -168q0 -149 -102.5 -249t-254.5 -100q-91 0 -170 51l-64 -70zM223 239l217 265q-36 11 -64 11q-76 0 -129 -53.5t-53 -130.5 q0 -49 29 -92zM297 169q37 -17 81 -17q74 0 127 54.5t53 130.5q0 56 -34 106z" />
<glyph unicode="&#xd9;" horiz-adv-x="673" d="M122 775l31 131l286 -90l-23 -103zM586 530v-307q0 -112 -70 -176q-63 -60 -179 -60q-126 0 -191 71q-59 63 -59 165v307h-64l1 137h276v-137h-48v-290q0 -47 22 -72.5t63 -25.5q84 0 84 98v290h-47v137h275l1 -137h-64z" />
<glyph unicode="&#xda;" horiz-adv-x="673" d="M268 713l-23 103l286 90l31 -131zM586 530v-307q0 -112 -70 -176q-63 -60 -179 -60q-126 0 -191 71q-59 63 -59 165v307h-64l1 137h276v-137h-48v-290q0 -47 22 -72.5t63 -25.5q84 0 84 98v290h-47v137h275l1 -137h-64z" />
<glyph unicode="&#xdb;" horiz-adv-x="673" d="M108 727l172 158h128l172 -158h-178l-58 60l-58 -60h-178zM586 530v-307q0 -112 -70 -176q-63 -60 -179 -60q-126 0 -191 71q-59 63 -59 165v307h-64l1 137h276v-137h-48v-290q0 -47 22 -72.5t63 -25.5q84 0 84 98v290h-47v137h275l1 -137h-64z" />
<glyph unicode="&#xdc;" horiz-adv-x="673" d="M367 732v145h153v-145h-153zM158 732v145h153v-145h-153zM584 530v-307q0 -112 -70 -176q-63 -60 -179 -60q-126 0 -191 71q-59 63 -59 165v307h-64l1 137h276v-137h-48v-290q0 -47 22 -72.5t63 -25.5q84 0 84 98v290h-47v137h275l1 -137h-64z" />
<glyph unicode="&#xdd;" horiz-adv-x="594" d="M231 713l-23 103l286 90l31 -131zM149 0v137h64v101l-161 292h-59v137h273v-137h-47l77 -157l82 157h-49v137h271v-137h-58l-164 -292v-101h64v-137h-293z" />
<glyph unicode="&#xde;" horiz-adv-x="591" d="M36 0v115h64v437h-64v115h229v-52h43q121 0 183 -47q83 -63 83 -178q0 -101 -64.5 -166.5t-164.5 -65.5h-80v-43h64v-115h-293zM265 305h59q39 0 61 21t22 59q0 39 -24.5 61t-67.5 22h-50v-163z" />
<glyph unicode="&#xdf;" horiz-adv-x="611" d="M31 0v137h53v301q0 104 59 167q71 77 170 77q88 0 146 -54t58 -136q0 -83 -61 -120q46 -14 73 -35q56 -46 56 -146q0 -92 -58 -149t-151 -57q-44 0 -96 15v137q34 -12 67 -12q41 0 64.5 20.5t23.5 55.5q0 87 -136 87q-11 0 -19 -1v131q16 -2 22 -2q28 0 46.5 18t18.5 45 q0 26 -17.5 42t-45.5 16q-38 0 -59 -30q-13 -21 -13 -69v-438h-201z" />
<glyph unicode="&#xe0;" horiz-adv-x="656" d="M129 646l54 115l231 -131l-39 -83zM418 0v43q-50 -58 -138 -58q-104 0 -179.5 78t-75.5 185q0 110 77 190t184 80q82 0 132 -63v48h201v-137h-53v-229h53v-137h-201zM178 251q0 -49 35 -84.5t85 -35.5t85.5 35.5t35.5 85.5t-34.5 85t-85.5 35q-49 0 -85 -36t-36 -85z" />
<glyph unicode="&#xe1;" horiz-adv-x="656" d="M281 547l-39 83l231 131l54 -115zM418 0v43q-50 -58 -138 -58q-104 0 -179.5 78t-75.5 185q0 110 77 190t184 80q82 0 132 -63v48h201v-137h-53v-229h53v-137h-201zM178 251q0 -49 35 -84.5t85 -35.5t85.5 35.5t35.5 85.5t-34.5 85t-85.5 35q-49 0 -85 -36t-36 -85z" />
<glyph unicode="&#xe2;" horiz-adv-x="656" d="M123 573l135 159h119l135 -159h-142l-53 66l-53 -66h-141zM418 0v43q-50 -58 -138 -58q-104 0 -179.5 78t-75.5 185q0 110 77 190t184 80q82 0 132 -63v48h201v-137h-53v-229h53v-137h-201zM178 251q0 -49 35 -84.5t85 -35.5t85.5 35.5t35.5 85.5t-34.5 85t-85.5 35 q-49 0 -85 -36t-36 -85z" />
<glyph unicode="&#xe3;" horiz-adv-x="656" d="M196 580l-26 95q36 42 91 42q32 0 92 -25q23 -10 50 -10q37 0 83 43l28 -101q-32 -26 -51 -35.5t-41 -9.5q-25 0 -73 20q-51 19 -69 19q-47 0 -84 -38zM418 0v43q-50 -58 -138 -58q-104 0 -179.5 78t-75.5 185q0 110 77 190t184 80q82 0 132 -63v48h201v-137h-53v-229h53 v-137h-201zM178 251q0 -49 35 -84.5t85 -35.5t85.5 35.5t35.5 85.5t-34.5 85t-85.5 35q-49 0 -85 -36t-36 -85z" />
<glyph unicode="&#xe4;" horiz-adv-x="656" d="M352 580v145h147v-145h-147zM151 580v145h147v-145h-147zM418 0v43q-50 -58 -138 -58q-104 0 -179.5 78t-75.5 185q0 110 77 190t184 80q82 0 132 -63v48h201v-137h-53v-229h53v-137h-201zM178 251q0 -49 35 -84.5t85 -35.5t85.5 35.5t35.5 85.5t-34.5 85t-85.5 35 q-49 0 -85 -36t-36 -85z" />
<glyph unicode="&#xe5;" horiz-adv-x="656" d="M323 560q-47 0 -81.5 34.5t-34.5 81.5q0 48 34 82t82 34q49 0 82.5 -34t33.5 -84q0 -46 -34.5 -80t-81.5 -34zM323 636q16 0 27 11.5t11 28.5q0 16 -11 27.5t-27 11.5t-27 -11.5t-11 -28.5q0 -16 11 -27.5t27 -11.5zM418 0v43q-50 -58 -138 -58q-104 0 -179.5 78 t-75.5 185q0 110 77 190t184 80q82 0 132 -63v48h201v-137h-53v-229h53v-137h-201zM178 251q0 -49 35 -84.5t85 -35.5t85.5 35.5t35.5 85.5t-34.5 85t-85.5 35q-49 0 -85 -36t-36 -85z" />
<glyph unicode="&#xe6;" horiz-adv-x="973" d="M416 0v45q-48 -60 -129 -60q-105 0 -183.5 81t-78.5 189q0 103 75.5 183.5t173.5 80.5q88 0 142 -65v49h147v-46q58 61 135 61q101 0 175 -79.5t74 -187.5q0 -23 -5 -50h-367q16 -40 46.5 -63t67.5 -23q39 0 79 40h163q-37 -83 -97 -127t-136 -44q-46 0 -76 15.5 t-59 53.5v-53h-147zM574 309h231q-39 78 -117 78q-73 0 -114 -78zM175 254q0 -50 36 -86.5t86 -36.5q49 0 85 36t36 86q0 51 -35.5 86t-87.5 35q-49 0 -84.5 -35t-35.5 -85z" />
<glyph unicode="&#xe7;" horiz-adv-x="561" d="M199 -103l40 93q-94 19 -154 93t-60 170q0 108 75 186.5t178 78.5q69 0 120 -52v37h126v-180h-138q-41 50 -96 50q-48 0 -81.5 -35.5t-33.5 -86.5t34.5 -86t84.5 -35q60 0 86 46h164q-19 -75 -82.5 -127.5t-144.5 -61.5l-17 -38q44 -5 68 -29.5t24 -64.5q0 -45 -30 -75 t-74 -30q-45 0 -73.5 27.5t-32.5 73.5h75q10 -26 30 -26q13 0 21 8t8 21t-9 21.5t-21 8.5q-13 0 -27 -13z" />
<glyph unicode="&#xe8;" horiz-adv-x="573" d="M336 547l-246 99l54 115l231 -131zM377 150h152q-31 -76 -95 -121t-143 -45q-112 0 -189 77t-77 190q0 112 75.5 189.5t185.5 77.5t186 -76t76 -187q0 -25 -7 -60h-374q38 -80 124 -80q56 0 86 35zM166 304h246q-17 40 -50.5 62t-75.5 22q-40 0 -73 -23t-47 -61z" />
<glyph unicode="&#xe9;" horiz-adv-x="573" d="M246 547l-39 83l231 131l54 -115zM377 150h152q-31 -76 -95 -121t-143 -45q-112 0 -189 77t-77 190q0 112 75.5 189.5t185.5 77.5t186 -76t76 -187q0 -25 -7 -60h-374q38 -80 124 -80q56 0 86 35zM166 304h246q-17 40 -50.5 62t-75.5 22q-40 0 -73 -23t-47 -61z" />
<glyph unicode="&#xea;" horiz-adv-x="573" d="M102 573l135 159h119l135 -159h-142l-53 66l-53 -66h-141zM377 150h152q-31 -76 -95 -121t-143 -45q-112 0 -189 77t-77 190q0 112 75.5 189.5t185.5 77.5t186 -76t76 -187q0 -25 -7 -60h-374q38 -80 124 -80q56 0 86 35zM166 304h246q-17 40 -50.5 62t-75.5 22 q-40 0 -73 -23t-47 -61z" />
<glyph unicode="&#xeb;" horiz-adv-x="573" d="M327 580v145h147v-145h-147zM126 580v145h147v-145h-147zM377 150h152q-31 -76 -95 -121t-143 -45q-112 0 -189 77t-77 190q0 112 75.5 189.5t185.5 77.5t186 -76t76 -187q0 -25 -7 -60h-374q38 -80 124 -80q56 0 86 35zM166 304h246q-17 40 -50.5 62t-75.5 22 q-40 0 -73 -23t-47 -61z" />
<glyph unicode="&#xec;" horiz-adv-x="323" d="M193 547l-236 106l54 108l221 -138zM36 0v137h54v229h-54v137h202v-366h53v-137h-255z" />
<glyph unicode="&#xed;" horiz-adv-x="323" d="M120 547l-40 76l222 138l54 -108zM37 0v137h53v229h-53v137h201v-366h54v-137h-255z" />
<glyph unicode="&#xee;" horiz-adv-x="323" d="M-10 573l115 159h119l115 -159h-128l-47 66l-46 -66h-128zM37 0v137h53v229h-53v137h201v-366h54v-137h-255z" />
<glyph unicode="&#xef;" horiz-adv-x="323" d="M190 580v145h130v-145h-130zM10 580v145h130v-145h-130zM37 0v137h53v229h-53v137h201v-366h53v-137h-254z" />
<glyph unicode="&#xf0;" horiz-adv-x="589" d="M397 638l-60 -30q72 -30 135 -105q91 -110 91 -240q0 -118 -77 -198t-190 -80q-112 0 -190.5 79.5t-78.5 193.5q0 119 88 187q69 52 151 52q4 0 34 -2q-37 30 -88 53l-123 -61l-30 71l56 28l-23 7l-28 9q-8 2 -27 10l74 75q23 -4 129 -38l123 62zM177 252q0 -50 34.5 -86 t83.5 -36q48 0 83 36t35 85q0 52 -34 87.5t-84 35.5q-49 0 -83.5 -36t-34.5 -86z" />
<glyph unicode="&#xf1;" horiz-adv-x="631" d="M197 580l-26 95q36 42 91 42q32 0 92 -25q23 -10 50 -10q37 0 83 43l28 -101q-32 -26 -51 -35.5t-41 -9.5q-25 0 -73 20q-51 19 -69 19q-47 0 -84 -38zM37 0v137h53v229h-53v137h201v-65q46 75 136 75q92 0 146 -65q20 -25 27.5 -51t7.5 -73v-187h53v-137h-201v283 q0 84 -78 84q-55 0 -78 -38q-13 -20 -13 -77v-115h54v-137h-255z" />
<glyph unicode="&#xf2;" horiz-adv-x="586" d="M343 547l-246 99l54 115l231 -131zM25 252q0 110 78.5 188t188.5 78q113 0 191 -78t78 -191q0 -108 -79 -186t-189 -78t-189 78.5t-79 188.5zM175 252q0 -50 34.5 -86t83.5 -36q48 0 83 36t35 85q0 51 -34.5 86.5t-83.5 35.5t-83.5 -35.5t-34.5 -85.5z" />
<glyph unicode="&#xf3;" horiz-adv-x="586" d="M259 547l-39 83l231 131l54 -115zM25 252q0 110 78.5 188t188.5 78q113 0 191 -78t78 -191q0 -108 -79 -186t-189 -78t-189 78.5t-79 188.5zM175 252q0 -50 34.5 -86t83.5 -36q48 0 83 36t35 85q0 51 -34.5 86.5t-83.5 35.5t-83.5 -35.5t-34.5 -85.5z" />
<glyph unicode="&#xf4;" horiz-adv-x="586" d="M105 573l135 159h119l135 -159h-142l-53 66l-53 -66h-141zM25 252q0 110 78.5 188t188.5 78q113 0 191 -78t78 -191q0 -108 -79 -186t-189 -78t-189 78.5t-79 188.5zM175 252q0 -50 34.5 -86t83.5 -36q48 0 83 36t35 85q0 51 -34.5 86.5t-83.5 35.5t-83.5 -35.5 t-34.5 -85.5z" />
<glyph unicode="&#xf5;" horiz-adv-x="586" d="M170 580l-26 95q36 42 91 42q32 0 92 -25q23 -10 50 -10q37 0 83 43l28 -101q-32 -26 -51 -35.5t-41 -9.5q-25 0 -73 20q-51 19 -69 19q-47 0 -84 -38zM25 252q0 110 78.5 188t188.5 78q113 0 191 -78t78 -191q0 -108 -79 -186t-189 -78t-189 78.5t-79 188.5zM175 252 q0 -50 34.5 -86t83.5 -36q48 0 83 36t35 85q0 51 -34.5 86.5t-83.5 35.5t-83.5 -35.5t-34.5 -85.5z" />
<glyph unicode="&#xf6;" horiz-adv-x="586" d="M327 580v145h147v-145h-147zM126 580v145h147v-145h-147zM25 252q0 110 78.5 188t188.5 78q113 0 191 -78t78 -191q0 -108 -79 -186t-189 -78t-189 78.5t-79 188.5zM175 252q0 -50 34.5 -86t83.5 -36q48 0 83 36t35 85q0 51 -34.5 86.5t-83.5 35.5t-83.5 -35.5 t-34.5 -85.5z" />
<glyph unicode="&#xf7;" d="M214 454v130h137v-130h-137zM38 287v107h490v-107h-490zM214 96v130h137v-130h-137z" />
<glyph unicode="&#xf8;" horiz-adv-x="590" d="M59 -4l46 65q-80 75 -80 189q0 110 80.5 189t192.5 79q74 0 122 -35l47 64l61 -49l-44 -59q41 -52 53 -73q24 -46 24 -112q0 -115 -78 -192t-194 -77q-55 0 -120 29l-48 -61zM195 180l140 188q-24 9 -40 9q-52 0 -87.5 -35t-35.5 -86q0 -38 23 -76zM253 133 q24 -10 43 -10q49 0 84 36t35 87q0 39 -21 74z" />
<glyph unicode="&#xf9;" horiz-adv-x="617" d="M355 547l-246 99l54 115l231 -131zM76 181v185h-53v137h201v-280q0 -97 75 -97q45 0 69 37q11 19 11 66v137h-53v137h206v-366h54v-137h-193v51q-55 -61 -141 -61q-77 0 -126.5 53.5t-49.5 137.5z" />
<glyph unicode="&#xfa;" horiz-adv-x="617" d="M251 547l-39 83l231 131l54 -115zM76 181v185h-53v137h201v-280q0 -97 75 -97q45 0 69 37q11 19 11 66v137h-53v137h206v-366h54v-137h-193v51q-55 -61 -141 -61q-77 0 -126.5 53.5t-49.5 137.5z" />
<glyph unicode="&#xfb;" horiz-adv-x="617" d="M104 573l135 159h119l135 -159h-142l-53 66l-53 -66h-141zM76 181v185h-53v137h201v-280q0 -97 75 -97q45 0 69 37q11 19 11 66v137h-53v137h206v-366h54v-137h-193v51q-55 -61 -141 -61q-77 0 -126.5 53.5t-49.5 137.5z" />
<glyph unicode="&#xfc;" horiz-adv-x="617" d="M328 580v145h147v-145h-147zM127 580v145h147v-145h-147zM76 181v185h-53v137h201v-280q0 -97 75 -97q45 0 69 37q11 19 11 66v137h-53v137h206v-366h54v-137h-193v51q-55 -61 -141 -61q-77 0 -126.5 53.5t-49.5 137.5z" />
<glyph unicode="&#xfd;" horiz-adv-x="525" d="M215 547l-39 83l231 131l54 -115zM115 -40h45l22 55l-138 351h-51v137h242v-137h-30l57 -168l60 168h-30v137h239v-137h-47l-169 -406h52v-137h-252v137z" />
<glyph unicode="&#xfe;" horiz-adv-x="654" d="M31 -35h53v565h-53v137h201v-222q51 68 141 68q104 0 179 -78t75 -186q0 -104 -73 -181.5t-172 -77.5q-68 0 -121 35q-6 4 -29 22v-82h54v-139h-255v139zM227 251q0 -49 37 -85t88 -36t88 35.5t37 84.5q0 52 -36 87.5t-88 35.5t-89 -36t-37 -86z" />
<glyph unicode="&#xff;" horiz-adv-x="525" d="M292 580v145h147v-145h-147zM91 580v145h147v-145h-147zM115 -40h45l22 55l-138 351h-51v137h242v-137h-30l57 -168l60 168h-30v137h239v-137h-47l-169 -406h52v-137h-252v137z" />
<glyph unicode="&#x152;" horiz-adv-x="1027" d="M555 0v55q-42 -38 -83 -53t-99 -15q-154 0 -253 108q-93 99 -93 241q0 143 101 243.5t245 100.5q56 0 95 -13.5t87 -49.5v50h446v-214h-165v67h-116v-118h154v-127h-154v-128h116v73h165v-220h-446zM194 332q0 -75 52 -128t125 -53q72 0 124.5 53t52.5 126 q0 77 -51.5 131t-124.5 54t-125.5 -54t-52.5 -129z" />
<glyph unicode="&#x153;" horiz-adv-x="993" d="M782 156h168q-36 -77 -89 -116q-74 -55 -169 -55q-115 0 -194 80q-70 -81 -191 -81q-119 0 -200.5 78t-81.5 192q0 109 81 186.5t196 77.5q113 0 196 -79q85 79 197 79t192.5 -77.5t80.5 -185.5q0 -23 -7 -55h-384q35 -84 118 -84q48 0 87 40zM582 309h226 q-38 79 -115 79q-69 0 -111 -79zM175 252q0 -50 37.5 -86t89.5 -36t89.5 35.5t37.5 84.5q0 52 -37 87.5t-91 35.5q-52 0 -89 -35.5t-37 -85.5z" />
<glyph unicode="&#x178;" horiz-adv-x="594" d="M328 732v145h153v-145h-153zM119 732v145h153v-145h-153zM149 0v137h64v101l-161 292h-59v137h273v-137h-47l77 -157l82 157h-49v137h271v-137h-58l-164 -292v-101h64v-137h-293z" />
<glyph unicode="&#x2c6;" horiz-adv-x="500" d="M56 573l135 159h119l135 -159h-142l-53 66l-53 -66h-141z" />
<glyph unicode="&#x2dc;" horiz-adv-x="500" d="M104 580l-26 95q36 42 91 42q32 0 92 -25q23 -10 50 -10q37 0 83 43l28 -101q-32 -26 -51 -35.5t-41 -9.5q-25 0 -73 20q-51 19 -69 19q-47 0 -84 -38z" />
<glyph unicode="&#x2000;" horiz-adv-x="469" />
<glyph unicode="&#x2001;" horiz-adv-x="939" />
<glyph unicode="&#x2002;" horiz-adv-x="469" />
<glyph unicode="&#x2003;" horiz-adv-x="939" />
<glyph unicode="&#x2004;" horiz-adv-x="313" />
<glyph unicode="&#x2005;" horiz-adv-x="234" />
<glyph unicode="&#x2006;" horiz-adv-x="156" />
<glyph unicode="&#x2007;" horiz-adv-x="156" />
<glyph unicode="&#x2008;" horiz-adv-x="117" />
<glyph unicode="&#x2009;" horiz-adv-x="187" />
<glyph unicode="&#x200a;" horiz-adv-x="52" />
<glyph unicode="&#x2010;" horiz-adv-x="254" d="M0 184v146h254v-146h-254z" />
<glyph unicode="&#x2011;" horiz-adv-x="254" d="M0 184v146h254v-146h-254z" />
<glyph unicode="&#x2012;" horiz-adv-x="254" d="M0 184v146h254v-146h-254z" />
<glyph unicode="&#x2013;" d="M51 184v146h464v-146h-464z" />
<glyph unicode="&#x2014;" horiz-adv-x="763" d="M0 184v146h763v-146h-763z" />
<glyph unicode="&#x2018;" horiz-adv-x="245" d="M47 369v185q0 57 29.5 88t84.5 31h37v-72q-6 1 -17 1q-47 0 -47 -58v-24h64v-151h-151z" />
<glyph unicode="&#x2019;" horiz-adv-x="245" d="M47 363v72q6 -1 17 -1q48 0 48 58v24h-65v151h152v-185q0 -56 -30 -87.5t-84 -31.5h-38z" />
<glyph unicode="&#x201a;" horiz-adv-x="245" d="M47 0v151h152v-185q0 -57 -30 -88.5t-84 -31.5h-38v72q6 -1 17 -1q48 0 48 59v24h-65z" />
<glyph unicode="&#x201c;" horiz-adv-x="465" d="M267 369v185q0 57 29.5 88t84.5 31h37v-72q-6 1 -17 1q-47 0 -47 -58v-24h64v-151h-151zM47 369v185q0 57 29.5 88t84.5 31h37v-72q-6 1 -17 1q-47 0 -47 -58v-24h64v-151h-151z" />
<glyph unicode="&#x201d;" horiz-adv-x="465" d="M267 363v72q6 -1 17 -1q47 0 47 58v24h-64v151h151v-185q0 -56 -30 -87.5t-84 -31.5h-37zM47 363v72q6 -1 17 -1q48 0 48 58v24h-65v151h152v-185q0 -56 -30 -87.5t-84 -31.5h-38z" />
<glyph unicode="&#x201e;" horiz-adv-x="465" d="M267 0v151h151v-185q0 -57 -30 -88.5t-84 -31.5h-37v72q6 -1 17 -1q47 0 47 59v24h-64zM47 0v151h152v-185q0 -57 -30 -88.5t-84 -31.5h-38v72q6 -1 17 -1q48 0 48 59v24h-65z" />
<glyph unicode="&#x2022;" horiz-adv-x="667" d="M335 200q-57 0 -98 40.5t-41 97.5q0 58 41 98.5t100 40.5q55 0 95.5 -41t40.5 -97q0 -58 -40.5 -98.5t-97.5 -40.5z" />
<glyph unicode="&#x2026;" horiz-adv-x="734" d="M537 0v151h151v-151h-151zM292 0v151h151v-151h-151zM47 0v151h151v-151h-151z" />
<glyph unicode="&#x202f;" horiz-adv-x="187" />
<glyph unicode="&#x2039;" horiz-adv-x="186" d="M149 79l-119 117v121l119 116v-142l-46 -40l46 -38v-134z" />
<glyph unicode="&#x203a;" horiz-adv-x="186" d="M37 79v134l46 38l-46 40v142l119 -116v-121z" />
<glyph unicode="&#x205f;" horiz-adv-x="234" />
<glyph unicode="&#x20ac;" horiz-adv-x="849" d="M631 248h178q-13 -45 -28.5 -74.5t-42.5 -61.5q-51 -59 -121 -92t-143 -33q-92 0 -174.5 49.5t-126.5 131.5q-31 57 -40 123h-93l38 89h55q14 126 111.5 213t222.5 87q113 0 187 -73v60h135v-246h-158q-53 94 -160 94q-62 0 -109 -37.5t-61 -97.5h239l-38 -89h-199 q17 -63 64 -101t108 -38q50 0 90.5 25t65.5 71z" />
<glyph unicode="&#x2122;" horiz-adv-x="874" d="M364 287v83h36v214h-36v83h165l73 -222l72 222h172v-83h-37v-214h37v-83h-161v83h28v155l-82 -238h-61l-82 236v-153h29v-83h-153zM91 287v83h36v208h-37v-47h-73v136h320v-136h-73v47h-38v-208h36v-83h-171z" />
<glyph unicode="&#x25fc;" horiz-adv-x="505" d="M0 505h505v-505h-505v505z" />
</font>
</defs>
</svg>
