<?xml version="1.0" standalone="no"?>
<!DOCTYPE svg PUBLIC "-//W3C//DTD SVG 1.1//EN" "http://www.w3.org/Graphics/SVG/1.1/DTD/svg11.dtd" >
<svg xmlns="http://www.w3.org/2000/svg">
<metadata></metadata>
<defs>
<font id="square_seriflight_italic" horiz-adv-x="523" >
<font-face units-per-em="1000" ascent="800" descent="-200" />
<missing-glyph horiz-adv-x="250" />
<glyph unicode="&#xfb01;" horiz-adv-x="573" d="M-4 0l5 27h87l75 426h-87l5 27h86q14 70 25 96.5t35 48.5q49 46 124 46q12 0 22 -1l-5 -26h-19q-41 0 -74.5 -17.5t-49.5 -47.5q-15 -28 -30 -99h296l-79 -453h86l-5 -27h-201l5 27h87l75 426h-268l-75 -426h86l-5 -27h-201zM483 593l13 74h28l-13 -74h-28z" />
<glyph unicode="&#xfb02;" horiz-adv-x="576" d="M0 0l5 27h87l75 426h-87l5 27h86q14 68 25 94t35 48q47 45 125 45h40h132l-112 -640h86l-5 -27h-201l5 27h87l107 613h-93q-70 0 -94 -6q-49 -13 -70.5 -43.5t-38.5 -110.5h124l-5 -27h-123l-75 -426h86l-5 -27h-201z" />
<glyph unicode="&#xfb03;" horiz-adv-x="869" d="M-4 0l5 27h87l75 426h-87l5 27h86q14 70 25 96.5t35 48.5q49 46 124 46q12 0 22 -1l-5 -26h-19q-41 0 -74.5 -17.5t-49.5 -47.5q-15 -28 -30 -99h268q14 70 25 96.5t35 48.5q49 46 124 46q12 0 22 -1l-5 -26h-19q-41 0 -74.5 -17.5t-49.5 -47.5q-15 -28 -30 -99h296 l-79 -453h86l-5 -27h-201l5 27h87l75 426h-268l-75 -426h86l-5 -27h-201l5 27h87l75 426h-268l-75 -426h86l-5 -27h-201zM779 593l13 74h28l-13 -74h-28z" />
<glyph unicode="&#xfb04;" horiz-adv-x="869" d="M-4 0l5 27h87l75 426h-87l5 27h86q14 69 25 96t35 50q48 45 124 45q12 0 22 -1l-5 -26q-82 0 -119 -35t-54 -129h268q17 82 34 110q37 64 120 75q16 2 91 2h112l-112 -640h86l-5 -27h-201l5 27h87l107 613h-93q-70 0 -94 -6q-49 -13 -70.5 -43.5t-38.5 -110.5h124l-5 -27 h-123l-75 -426h86l-5 -27h-201l5 27h87l75 426h-268l-75 -426h86l-5 -27h-201z" />
<glyph horiz-adv-x="0" />
<glyph horiz-adv-x="333" />
<glyph unicode=" "  horiz-adv-x="250" />
<glyph unicode="&#x09;" horiz-adv-x="250" />
<glyph unicode="&#xa0;" horiz-adv-x="250" />
<glyph unicode="!" horiz-adv-x="187" d="M66 164l88 503h27l-89 -503h-26zM30 0l16 87h40l-16 -87h-40z" />
<glyph unicode="&#x22;" horiz-adv-x="227" d="M186 459l36 208h30l-37 -208h-29zM88 459l37 208h29l-37 -208h-29z" />
<glyph unicode="#" d="M108 0l59 238h-86l6 25h86l35 140h-86l6 25h86l58 239h27l-59 -239h122l59 239h26l-58 -239h85l-6 -25h-85l-35 -140h86l-6 -25h-86l-59 -238h-26l58 238h-121l-59 -238h-27zM200 263h122l34 140h-122z" />
<glyph unicode="$" d="M18 21l38 212h29q-9 -64 -9 -83q0 -54 39 -85.5t106 -31.5q88 0 149.5 54.5t61.5 131.5q0 28 -14 53.5t-36 38.5q-19 11 -39.5 17t-84.5 19q-76 16 -108 44q-40 37 -40 94q0 76 66 131.5t155 55.5l16 93h30l-17 -93q80 -16 102 -77l11 62h29l-28 -158h-29q3 22 3 41 q0 46 -33.5 74.5t-88.5 28.5q-77 0 -131.5 -47.5t-54.5 -114.5q0 -25 13 -47.5t34 -32.5q29 -15 115 -33q79 -16 113 -42q47 -38 47 -107q0 -87 -65 -147t-166 -66l-19 -109h-29l19 109q-116 12 -141 91l-14 -76h-29z" />
<glyph unicode="%" horiz-adv-x="740" d="M215 380q-58 0 -96 38.5t-38 96.5q0 67 44.5 113t108.5 46q61 0 99 -36.5t38 -95.5q0 -68 -45 -115t-111 -47zM156 0l429 667h30l-428 -667h-31zM216 406q53 0 90.5 39t37.5 94q0 49 -30 78.5t-79 29.5q-53 0 -90 -38t-37 -93q0 -48 30.5 -79t77.5 -31zM400 128 q0 67 44.5 113t108.5 46q61 0 99 -36.5t38 -95.5q0 -68 -45 -115t-111 -47q-58 0 -96 38.5t-38 96.5zM427 129q0 -48 30.5 -79t77.5 -31q53 0 90.5 39t37.5 94q0 49 -30 78.5t-79 29.5q-53 0 -90 -38t-37 -93z" />
<glyph unicode="&#x26;" horiz-adv-x="660" d="M567 0l-137 162q-50 -72 -75 -99q-69 -70 -157 -70q-77 0 -125.5 44.5t-48.5 115.5q0 100 91 166q33 25 127 65q-46 57 -58 81.5t-12 60.5q0 63 43 105.5t107 42.5q59 0 97 -36t38 -91q0 -74 -69 -124q-29 -20 -100 -50l140 -166l95 148h127l-6 -26h-108l-90 -145 l154 -184h-33zM270 394l17 7q143 54 143 145q0 44 -30 72.5t-77 28.5q-52 0 -88 -35t-36 -86q0 -32 15.5 -61t55.5 -71zM412 184l-152 180q-97 -42 -127 -65q-79 -57 -79 -146q0 -58 40.5 -95.5t103.5 -37.5q61 0 110.5 37.5t103.5 126.5z" />
<glyph unicode="'" horiz-adv-x="129" d="M88 459l37 208h29l-37 -208h-29z" />
<glyph unicode="(" horiz-adv-x="307" d="M359 696l-5 -29q-129 -87 -204 -200q-95 -144 -95 -302q0 -138 64 -239q38 -61 112 -117l-5 -26q-92 57 -144.5 157t-52.5 221q0 158 91 306t239 229z" />
<glyph unicode=")" horiz-adv-x="308" d="M75 670l5 26q93 -57 145 -157t52 -221q0 -220 -162 -399q-81 -89 -168 -136l5 29q129 86 204 201q95 143 95 303q0 136 -64 238q-37 60 -112 116z" />
<glyph unicode="*" horiz-adv-x="453" d="M163 372l-23 24l103 100l-127 67l16 30l127 -68l25 142l33 -6l-25 -142l142 20l5 -33l-143 -20l63 -129l-30 -15l-63 130z" />
<glyph unicode="+" d="M264 134v191h-197v29h197v192h29v-192h197v-29h-197v-191h-29z" />
<glyph unicode="," horiz-adv-x="174" d="M12 -91h-33l90 164h34z" />
<glyph unicode="-" horiz-adv-x="205" d="M-2 235l5 30h206l-6 -30h-205z" />
<glyph unicode="." horiz-adv-x="174" d="M23 0l13 73h40l-13 -73h-40z" />
<glyph unicode="/" horiz-adv-x="372" d="M-69 -187h-30l470 854h29z" />
<glyph unicode="0" d="M504 420l-36 -203q-19 -108 -63 -157q-58 -67 -162 -67q-89 0 -145 47t-56 121q0 38 11 98l30 173q14 80 30 119t45 68q58 55 157 55q90 0 143.5 -46t53.5 -124q0 -36 -8 -84zM112 432l-33 -187q-8 -48 -8 -81q0 -63 47 -102.5t122 -39.5q97 0 149 66q35 46 52 140 l34 192q8 48 8 82q0 65 -47 104t-127 39q-91 0 -138 -52q-22 -24 -34.5 -58t-24.5 -103z" />
<glyph unicode="1" d="M77 0l5 29h141l107 609h-160l5 29h190l-113 -638h127l-5 -29h-297z" />
<glyph unicode="2" d="M0 0l5 29q193 146 298 243q98 90 120 127q31 50 31 103q0 63 -40.5 103t-104.5 40q-83 0 -137 -63q-29 -34 -42 -98h-30q14 75 50 118q59 72 158 72q77 0 126.5 -47.5t49.5 -121.5q0 -56 -29.5 -107t-97.5 -114q-86 -78 -260 -217l-9 -7q-9 -7 -20.5 -16.5t-17.5 -14.5 h354l25 144h30l-31 -173h-428z" />
<glyph unicode="3" d="M141 497h-30q19 86 72 131.5t134 45.5q78 0 125.5 -42t47.5 -110q0 -45 -23 -82t-63 -57q-23 -11 -58 -20q53 -14 85.5 -58t32.5 -103q0 -86 -66 -147.5t-160 -61.5q-86 0 -142 50q-58 50 -58 148v16h28q0 -80 24 -115q21 -32 62 -51t87 -19q80 0 137.5 54t57.5 129 q0 65 -48 107.5t-121 42.5q-16 0 -28 -1l5 27q8 0 17 -0.5t14 -1t10 -0.5q79 0 128 39t49 101q0 55 -40.5 90.5t-103.5 35.5q-68 0 -113.5 -38.5t-61.5 -109.5z" />
<glyph unicode="4" d="M17 154l5 29l403 484h30l-86 -484h110l-5 -29h-110l-22 -125h85l-5 -29h-198l6 29h83l22 125h-318zM58 183h282l76 429z" />
<glyph unicode="5" d="M226 638l-91 -240q61 47 140 47q90 0 146 -55.5t56 -144.5q0 -96 -55 -168q-65 -84 -181 -84q-58 0 -104.5 23.5t-72.5 65.5q-26 40 -27 120h26q3 -67 22 -101q47 -79 153 -79q92 0 150.5 61.5t58.5 159.5q0 79 -47.5 126t-127.5 47q-96 0 -156 -74l-26 11l115 314h306 l-5 -29h-280z" />
<glyph unicode="6" d="M399 667l-223 -246q50 23 99 23q91 0 148 -57.5t57 -148.5q0 -106 -69 -175.5t-173 -69.5q-89 0 -145.5 57t-56.5 147q0 62 27.5 116t100.5 134l199 220h36zM66 201q0 -78 49.5 -128.5t125.5 -50.5q88 0 148.5 62.5t60.5 151.5q0 80 -49 129.5t-129 49.5 q-85 0 -145.5 -62.5t-60.5 -151.5z" />
<glyph unicode="7" d="M143 0l343 638h-317l-23 -131h-29l28 160h381l-5 -29l-344 -638h-34z" />
<glyph unicode="8" d="M42 170q0 49 25 94.5t66 72.5q33 21 85 32q-86 46 -86 135q0 73 53 121.5t133 48.5q75 0 123 -43t48 -110q0 -121 -136 -163q108 -46 108 -158q0 -88 -62 -147.5t-154 -59.5q-88 0 -145.5 50t-57.5 127zM304 374q63 0 109 42.5t46 100.5q0 56 -39.5 92t-101.5 36 q-65 0 -110.5 -41.5t-45.5 -101.5q0 -55 40 -91.5t102 -36.5zM72 173q0 -64 49 -107.5t122 -43.5q78 0 133 51.5t55 124.5q0 68 -46.5 110t-120.5 42q-79 0 -135.5 -52t-56.5 -125z" />
<glyph unicode="9" d="M160 0l225 249q-57 -29 -110 -29q-88 0 -144.5 58t-56.5 148q0 106 69 177t170 71q89 0 145 -58t56 -150q0 -64 -26 -116.5t-98 -133.5l-193 -216h-37zM279 249q93 0 151 69q54 64 54 147q0 80 -48.5 130t-125.5 50q-86 0 -146 -63.5t-60 -154.5q0 -79 48.5 -128.5 t126.5 -49.5z" />
<glyph unicode=":" horiz-adv-x="174" d="M84 343l13 74h40l-13 -74h-40zM23 0l13 73h40l-13 -73h-40z" />
<glyph unicode=";" horiz-adv-x="174" d="M77 343l12 74h40l-12 -74h-40zM12 -91h-33l90 164h34z" />
<glyph unicode="&#x3c;" horiz-adv-x="500" d="M33 320v29l433 189v-31l-399 -173l399 -173v-31z" />
<glyph unicode="=" d="M67 379v29h423v-29h-423zM67 272v29h423v-29h-423z" />
<glyph unicode="&#x3e;" horiz-adv-x="500" d="M34 130v31l399 173l-399 173v31l433 -190v-29z" />
<glyph unicode="?" horiz-adv-x="439" d="M186 148q19 114 120 194q44 36 58.5 49.5t25.5 30.5q28 43 28 90q0 58 -39 96.5t-97 38.5q-88 0 -149 -75q-28 -34 -43 -86h-28q14 80 76.5 134t143.5 54q71 0 118.5 -46t47.5 -115q0 -100 -94 -169q-71 -53 -99.5 -92t-43.5 -104h-25zM153 0l15 87h41l-16 -87h-40z" />
<glyph unicode="@" horiz-adv-x="740" d="M607 -18l9 -23q-123 -60 -244 -60q-166 0 -257 103q-76 85 -76 213q0 154 111 263.5t266 109.5q130 0 211.5 -76.5t81.5 -197.5q0 -74 -32.5 -146t-81.5 -106q-26 -19 -67 -19h-68l11 63q-51 -68 -139 -68q-71 0 -119 47.5t-48 118.5q0 80 56 137.5t135 57.5 q50 0 91.5 -27.5t58.5 -72.5l15 88h88l-5 -25h-62l-52 -294h35q36 0 65 23q41 32 67 94t26 128q0 111 -75 180.5t-195 69.5q-143 0 -245 -102.5t-102 -246.5q0 -113 68 -193q83 -98 241 -98q61 0 112 13t120 46zM191 206q0 -62 39.5 -102t101.5 -40q69 0 115 49t46 122 q0 62 -38.5 100t-101.5 38q-68 0 -115 -48.5t-47 -118.5z" />
<glyph unicode="A" horiz-adv-x="715" d="M29 29l376 609h-93l5 29h149l159 -638h82l-5 -29h-209l5 29h95l-55 225h-336l-139 -225h89l-6 -29h-209l5 29h87zM219 283h313l-91 364z" />
<glyph unicode="B" horiz-adv-x="608" d="M4 0l5 29h87l107 609h-86l5 29h228q68 0 98 -5t56 -22q59 -38 59 -121q0 -59 -33.5 -101.5t-95.5 -63.5q57 -23 83 -59t26 -91q0 -49 -24.5 -94t-66.5 -72q-34 -22 -75 -30t-115 -8h-258zM185 369h141q103 0 147 33q27 20 43.5 53t16.5 66q0 56 -37 87q-20 17 -46 23.5 t-74 6.5h-143zM125 29h144q110 0 164 31q36 21 58 61.5t22 85.5q0 71 -54 106q-24 16 -51 21.5t-80 5.5h-148z" />
<glyph unicode="C" horiz-adv-x="723" d="M648 189h35q-41 -92 -125 -144t-192 -52q-139 0 -227 85t-88 220q0 82 32 157.5t89 127.5q99 91 248 91q86 0 153 -35t107 -100l23 128h29l-31 -178h-26q-35 68 -85 103q-76 53 -173 53q-143 0 -239.5 -100t-96.5 -248q0 -120 78.5 -197.5t200.5 -77.5q118 0 208 69 q44 35 80 98z" />
<glyph unicode="D" horiz-adv-x="683" d="M4 0l5 29h87l107 609h-86l5 29h197q177 0 262 -82q81 -78 81 -214q0 -91 -40 -173.5t-108 -130.5q-62 -46 -156 -61q-35 -6 -145 -6h-209zM125 29h88q113 0 173 13t110 49q61 43 98.5 121t37.5 162q0 117 -72 189q-40 41 -95 58t-146 17h-86z" />
<glyph unicode="E" horiz-adv-x="559" d="M4 0l5 29h87l107 609h-86l5 29h448l-28 -160h-29l23 131h-303l-48 -268h304l-5 -29h-304l-55 -312h317l25 144h30l-31 -173h-462z" />
<glyph unicode="F" horiz-adv-x="517" d="M4 0l5 29h87l107 609h-86l5 29h436l-29 -160h-29l23 131h-290l-48 -268h282l-5 -29h-282l-55 -312h87l-5 -29h-203z" />
<glyph unicode="G" horiz-adv-x="778" d="M631 0l26 147q-41 -65 -97 -100q-86 -54 -196 -54q-138 0 -226 86t-88 221q0 160 105.5 267t263.5 107q185 0 270 -145l25 138h29l-36 -204h-21q-20 75 -84 123q-79 59 -187 59q-143 0 -239 -98.5t-96 -246.5q0 -125 79.5 -201.5t208.5 -76.5q159 0 250 113q54 68 67 148 h-382l5 29h408l-55 -312h-30z" />
<glyph unicode="H" horiz-adv-x="690" d="M4 0l5 29h87l107 609h-86l5 29h204l-5 -29h-88l-48 -267h364l47 267h-87l5 29h203l-5 -29h-87l-107 -609h86l-5 -29h-203l5 29h87l56 313h-364l-55 -313h88l-5 -29h-204z" />
<glyph unicode="I" horiz-adv-x="297" d="M4 0l5 29h87l107 609h-86l5 29h202l-5 -29h-86l-108 -609h87l-5 -29h-203z" />
<glyph unicode="J" horiz-adv-x="452" d="M401 638l-79 -453q-15 -88 -63 -136q-56 -56 -134 -56q-63 0 -104 35.5t-41 90.5q0 9 1 17h29q0 -53 30 -83.5t83 -30.5q36 0 70 16.5t56 43.5q34 43 47 122l76 434h-88l5 29h215l-5 -29h-98z" />
<glyph unicode="K" horiz-adv-x="654" d="M395 0l5 29h79l-293 346l377 263h-84l5 29h220l-5 -29h-88l-379 -263l289 -346h101l-5 -29h-222zM4 0l5 29h87l107 609h-86l5 29h208l-5 -29h-92l-108 -609h93l-5 -29h-209z" />
<glyph unicode="L" horiz-adv-x="530" d="M4 0l5 29h87l107 609h-86l5 29h198l-5 -29h-82l-108 -609h314l24 138h30l-30 -167h-459z" />
<glyph unicode="M" horiz-adv-x="882" d="M4 0l5 29h87l107 609h-86l5 29h134l134 -631l385 631h134l-5 -29h-87l-107 -609h86l-5 -29h-200l5 29h84l108 609l-389 -638h-28l-138 638l-108 -609h91l-5 -29h-207z" />
<glyph unicode="N" horiz-adv-x="757" d="M4 0l5 29h87l107 609h-86l5 29h132l310 -629l106 600h-91l5 29h207l-5 -29h-87l-112 -638h-41l-313 638l-108 -609h98l-5 -29h-214z" />
<glyph unicode="O" horiz-adv-x="754" d="M51 301q0 159 104.5 266t261.5 107q144 0 235 -94q81 -84 81 -218q0 -156 -105.5 -262.5t-260.5 -106.5q-139 0 -227.5 86.5t-88.5 221.5zM81 298q0 -122 78 -199t202 -77q146 0 244 97.5t98 243.5q0 131 -77 204q-82 77 -210 77q-143 0 -239 -99t-96 -247z" />
<glyph unicode="P" horiz-adv-x="571" d="M4 0l5 29h87l107 609h-86l5 29h237q66 0 102.5 -8t64.5 -29q60 -44 60 -130q0 -53 -30 -100.5t-81 -76.5q-61 -35 -209 -35h-95l-46 -259h95l-5 -29h-211zM176 317h114q122 0 180 37q39 26 62.5 66t23.5 82q0 37 -17 67.5t-46 46.5q-41 22 -145 22h-115z" />
<glyph unicode="Q" horiz-adv-x="780" d="M747 106l-22 -121q-92 8 -162 65q-86 -57 -197 -57q-140 0 -227.5 85t-87.5 220q0 161 106 268.5t264 107.5q138 0 224 -84t86 -219q0 -188 -144 -303q59 -42 114 -52l16 90h30zM88 230q80 28 144 28q93 0 169 -41q44 -23 106 -82q31 -30 58 -52q136 107 136 281 q0 125 -78 203t-204 78q-144 0 -241 -99t-97 -246q0 -28 7 -70zM518 87l-31 30q-62 60 -121.5 86t-133.5 26q-69 0 -137 -26q32 -88 101 -134.5t166 -46.5t179 46z" />
<glyph unicode="R" horiz-adv-x="644" d="M4 0l5 29h87l107 609h-86l6 29h278q65 0 99.5 -9t60.5 -32q51 -43 51 -122q0 -60 -33.5 -113t-89.5 -81q-53 -27 -156 -27l137 -254h96l-5 -29h-114l-162 310h53q98 0 157 37q87 55 87 156q0 76 -58 113q-36 22 -150 22h-141l-108 -609h97l-5 -29h-213z" />
<glyph unicode="S" horiz-adv-x="506" d="M7 0l39 220h29q-1 -5 -2 -14t-1 -11q-6 -36 -6 -58q0 -52 41 -83.5t108 -31.5q88 0 150 55t62 132q0 59 -42 92q-26 20 -130 41q-88 17 -122 54q-31 34 -31 83q0 81 61.5 138t147.5 57q103 0 142 -83l12 66h29l-28 -160h-29q3 21 3 36q0 50 -35 81t-91 31 q-74 0 -128 -48.5t-54 -115.5q0 -50 37 -77q27 -20 100 -35q65 -13 93 -23t48 -27q47 -39 47 -107q0 -93 -70.5 -156t-174.5 -63q-122 0 -160 94l-16 -87h-29z" />
<glyph unicode="T" horiz-adv-x="529" d="M115 0l6 29h90l108 609h-188l-23 -131h-29l28 160h463l-28 -160h-30l23 131h-187l-107 -609h96l-6 -29h-216z" />
<glyph unicode="U" horiz-adv-x="655" d="M605 638l-71 -402q-13 -71 -32 -111.5t-53 -71.5q-66 -60 -164 -60q-80 0 -128 40.5t-48 107.5q0 37 10 95l71 402h-87l5 29h205l-5 -29h-89l-76 -429q-6 -33 -6 -63q0 -56 40.5 -90t107.5 -34q97 0 155 61q27 28 41 61t24 92l71 402h-88l5 29h204l-5 -29h-87z" />
<glyph unicode="V" horiz-adv-x="685" d="M284 0l-165 638h-83l5 29h211l-5 -29h-98l156 -603l351 603h-95l5 29h214l-5 -29h-82l-379 -638h-30z" />
<glyph unicode="W" horiz-adv-x="937" d="M222 0l-67 638h-86l5 29h209l-5 -29h-92l59 -594l280 623h27l61 -623l281 594h-96l5 29h214l-5 -29h-86l-304 -638h-34l-60 604l-271 -604h-35z" />
<glyph unicode="X" horiz-adv-x="666" d="M-33 0l5 29h86l270 317l-146 292h-86l5 29h210l-5 -29h-87l134 -264l225 264h-98l5 29h210l-5 -29h-74l-248 -292l154 -317h83l-5 -29h-212l5 29h93l-143 289l-248 -289h89l-6 -29h-211z" />
<glyph unicode="Y" horiz-adv-x="578" d="M144 0l6 29h88l42 243l-146 366h-85l5 29h208l-5 -29h-89l131 -334l243 334h-92l5 29h210l-5 -29h-82l-268 -366l-43 -243h90l-5 -29h-208z" />
<glyph unicode="Z" horiz-adv-x="519" d="M1 0l6 34l477 604h-336l-23 -131h-29l28 160h399l-6 -34l-479 -604h377l27 155h30l-33 -184h-438z" />
<glyph unicode="[" horiz-adv-x="308" d="M53 -173h133l-4 -27h-164l155 880h164l-5 -27h-134z" />
<glyph unicode="\" horiz-adv-x="375" d="M290 -187l-169 854h29l169 -854h-29z" />
<glyph unicode="]" horiz-adv-x="308" d="M-27 -173h133l146 826h-134l5 27h164l-155 -880h-164z" />
<glyph unicode="^" horiz-adv-x="500" d="M41 388l189 279h40l190 -279h-38l-173 255l-172 -255h-36z" />
<glyph unicode="_" horiz-adv-x="500" d="M0 -80h500v-30h-500v30z" />
<glyph unicode="`" horiz-adv-x="500" d="M371 550l-158 105l15 23l158 -104z" />
<glyph unicode="a" horiz-adv-x="641" d="M444 0l17 100q-28 -48 -82.5 -77.5t-116.5 -29.5q-98 0 -163.5 64.5t-65.5 161.5q0 112 76.5 190t185.5 78q75 0 132 -40.5t76 -108.5l25 142h115l-5 -27h-86l-75 -426h86l-5 -27h-114zM62 223q0 -89 56 -145.5t144 -56.5q98 0 162.5 69t64.5 173q0 89 -54.5 142.5 t-144.5 53.5q-95 0 -161.5 -68.5t-66.5 -167.5z" />
<glyph unicode="b" horiz-adv-x="640" d="M-7 0l5 27h87l107 613h-86l5 27h114l-52 -296q69 116 208 116q99 0 162 -62t63 -159q0 -115 -77 -194t-188 -79q-75 0 -133 43t-74 111l-26 -147h-115zM150 216q0 -86 54.5 -140.5t142.5 -54.5q94 0 162 69.5t68 166.5q0 90 -55 146t-144 56q-98 0 -163 -69t-65 -174z " />
<glyph unicode="c" horiz-adv-x="550" d="M476 159h29q-27 -77 -92.5 -122t-151.5 -45q-101 0 -164.5 62.5t-63.5 162.5q0 105 70 185q75 84 198 84q145 0 197 -113l19 107h28l-29 -166h-25q-19 59 -52 92q-55 52 -141 52q-100 0 -168 -69.5t-68 -170.5q0 -88 56 -143t145 -55q71 0 126 35.5t87 103.5z" />
<glyph unicode="d" horiz-adv-x="636" d="M442 0l17 96q-35 -49 -88 -76t-112 -27q-97 0 -162 65t-65 163q0 112 74.5 189t184.5 77q82 0 138.5 -39.5t72.5 -109.5l53 302h-91l5 27h119l-113 -640h87l-5 -27h-115zM61 222q0 -87 56 -144t142 -57q98 0 163 68.5t65 171.5q0 89 -54 143.5t-143 54.5 q-94 0 -161.5 -70t-67.5 -167z" />
<glyph unicode="e" horiz-adv-x="552" d="M467 145h30q-30 -71 -92.5 -111.5t-141.5 -40.5q-103 0 -166.5 62.5t-63.5 163.5q0 115 74.5 191.5t185.5 76.5q64 0 114.5 -28t78.5 -78q26 -47 27 -143h-451q-1 -10 -1 -23q0 -84 57 -139t144 -55q67 0 120 32.5t85 91.5zM65 265h424q-4 77 -38 122q-54 72 -157 72 q-88 0 -150 -52.5t-79 -141.5z" />
<glyph unicode="f" horiz-adv-x="309" d="M-4 0l5 27h87l75 426h-87l5 27h86q14 70 25 96.5t35 48.5q49 46 124 46q12 0 22 -1l-5 -26h-19q-41 0 -74.5 -17.5t-49.5 -47.5q-15 -28 -30 -99h124l-5 -27h-123l-75 -426h86l-5 -27h-201z" />
<glyph unicode="g" horiz-adv-x="641" d="M4 -63q11 -47 40 -72q57 -46 150 -46q141 0 212 99q22 30 34 67.5t24 111.5q-70 -104 -203 -104q-100 0 -165 62t-65 157q0 114 76 194.5t184 80.5q80 0 137 -42.5t77 -116.5l26 152h115l-5 -27h-86l-73 -410q-22 -126 -96 -187q-80 -65 -195 -65q-89 0 -144.5 38 t-71.5 108h29zM60 216q0 -86 56 -140.5t144 -54.5q98 0 163.5 70t65.5 173q0 85 -55 140t-140 55q-100 0 -166 -72q-31 -33 -49.5 -79.5t-18.5 -91.5z" />
<glyph unicode="h" horiz-adv-x="624" d="M-7 0l5 27h87l107 613h-86l5 27h114l-49 -281q79 101 183 101q72 0 120.5 -46t48.5 -115q0 -29 -8 -77l-39 -222h86l-5 -27h-202l5 27h88l40 227q6 34 6 66q0 61 -40 100t-102 39q-82 0 -142 -63q-48 -50 -62 -137l-40 -232h86l-5 -27h-201z" />
<glyph unicode="i" horiz-adv-x="277" d="M187 593l13 74h28l-13 -74h-28zM-4 0l5 27h87l75 426h-87l5 27h114l-79 -453h86l-5 -27h-201z" />
<glyph unicode="j" horiz-adv-x="246" d="M184 593l13 74h28l-13 -74h-28zM82 13l77 440h-88l5 27h116l-84 -475q-11 -64 -27 -99t-45 -58q-46 -37 -110 -37q-15 0 -39 4l4 24q30 -2 36 -2q46 0 85 26q29 20 43.5 51.5t26.5 98.5z" />
<glyph unicode="k" horiz-adv-x="524" d="M-7 0l5 27h87l107 613h-86l5 27h114l-112 -640h86l-5 -27h-201zM270 0l5 27h96l-212 257l241 169h-80l5 27h208l-5 -27h-90l-241 -169l210 -257h79l-5 -27h-211z" />
<glyph unicode="l" horiz-adv-x="273" d="M-7 0l5 27h87l107 613h-86l5 27h114l-112 -640h86l-5 -27h-201z" />
<glyph unicode="m" horiz-adv-x="847" d="M-4 0l5 27h87l75 426h-87l5 27h114l-16 -92q21 29 32 41q54 58 122 58q103 0 126 -124q67 124 163 124q56 0 94 -41t38 -102q0 -30 -6 -63l-44 -254h86l-5 -27h-202l5 27h88l45 256q5 26 5 59q0 50 -30.5 83.5t-75.5 33.5q-76 0 -125 -78q-32 -49 -48 -143l-37 -211h88 l-5 -27h-204l5 27h88l40 225q10 53 10 89q0 50 -30.5 84t-74.5 34q-64 0 -111 -56q-43 -51 -60 -146l-40 -230h88l-5 -27h-203z" />
<glyph unicode="n" horiz-adv-x="628" d="M-4 0l5 27h87l75 426h-87l5 27h114l-17 -97q76 104 184 104q71 0 120 -47t49 -116q0 -25 -9 -81l-38 -216h87l-5 -27h-203l5 27h88l38 216q9 54 9 79q0 58 -42 97.5t-103 39.5q-83 0 -142 -67q-45 -50 -60 -136l-40 -229h86l-5 -27h-201z" />
<glyph unicode="o" horiz-adv-x="557" d="M32 214q0 115 75 194t185 79q112 0 177 -76q51 -58 51 -156q0 -110 -75.5 -186t-184.5 -76q-100 0 -164 62t-64 159zM61 215q0 -86 55.5 -140t143.5 -54q97 0 164 69.5t67 170.5q0 89 -54.5 143.5t-145.5 54.5q-98 0 -164 -70t-66 -174z" />
<glyph unicode="p" horiz-adv-x="639" d="M-35 -160h86l108 613h-86l5 27h114l-17 -95q83 102 199 102q98 0 164 -65t66 -162q0 -113 -75 -190t-186 -77q-94 0 -156 57q-33 31 -55 89l-53 -299h91l-5 -27h-205zM148 215q0 -87 54 -140.5t142 -53.5q95 0 163 69t68 166q0 91 -55.5 147t-144.5 56q-99 0 -163 -69 t-64 -175z" />
<glyph unicode="q" horiz-adv-x="637" d="M416 -160l44 251q-75 -98 -199 -98q-101 0 -165.5 63t-64.5 161q0 112 76.5 191t184.5 79q79 0 135.5 -41t75.5 -112l25 146h115l-5 -27h-86l-108 -613h86l-4 -27h-214l5 27h99zM60 218q0 -86 56 -141.5t144 -55.5q98 0 162.5 68t64.5 171q0 90 -54 144.5t-143 54.5 q-95 0 -162.5 -70.5t-67.5 -170.5z" />
<glyph unicode="r" horiz-adv-x="371" d="M-4 0l5 27h87l75 426h-87l5 27h114l-19 -112q67 113 222 114l-5 -28q-100 0 -160.5 -54t-78.5 -157l-38 -216h95l-6 -27h-209z" />
<glyph unicode="s" horiz-adv-x="441" d="M13 0l28 157h28q-1 -11 -1 -30q0 -48 33.5 -77t89.5 -29q66 0 114.5 39.5t48.5 93.5q0 44 -39 65q-23 13 -85 23q-70 13 -98 31q-42 28 -42 80q0 55 48 94.5t113 39.5q90 0 117 -64l10 57h28l-22 -125h-28q-3 104 -104 104q-54 0 -93.5 -32t-39.5 -76q0 -32 25 -50.5 t81 -29.5q73 -13 107 -29q51 -26 51 -88q0 -68 -57 -114.5t-139 -46.5q-102 0 -134 77l-12 -70h-28z" />
<glyph unicode="t" horiz-adv-x="306" d="M79 0l80 453h-92l5 27h92l33 187h28l-33 -187h118l-5 -27h-118l-75 -426h128l-5 -27h-156z" />
<glyph unicode="u" horiz-adv-x="633" d="M438 0l20 108q-37 -55 -87.5 -85t-106.5 -30q-70 0 -120 46.5t-50 110.5q0 36 12 101l36 202h-87l5 27h114l-42 -241q-10 -62 -10 -87q0 -53 42.5 -92t101.5 -39q92 0 155 76q44 53 60 142l37 214h-88l5 27h116l-80 -453h87l-5 -27h-115z" />
<glyph unicode="v" horiz-adv-x="567" d="M218 0l-118 453h-95l5 27h218l-4 -27h-94l108 -420l256 420h-93l5 27h219l-5 -27h-94l-277 -453h-31z" />
<glyph unicode="w" horiz-adv-x="802" d="M200 0l-84 453h-93l5 27h207l-5 -27h-85l77 -417l209 444h27l42 -444l226 417h-84l5 27h196l-5 -27h-82l-248 -453h-30l-43 429l-205 -429h-30z" />
<glyph unicode="x" horiz-adv-x="537" d="M-30 0l5 27h92l186 214l-111 212h-83l5 27h209l-5 -27h-91l97 -189l162 189h-91l5 27h215l-5 -27h-90l-183 -212l108 -214h90l-5 -27h-215l5 27h91l-96 191l-163 -191h91l-5 -27h-218z" />
<glyph unicode="y" d="M10 -160h86l90 148l-95 465h-86l5 27h205l-5 -27h-92l89 -430l253 430h-92l5 27h208l-5 -27h-85l-363 -613h89l-5 -27h-207z" />
<glyph unicode="z" horiz-adv-x="441" d="M4 0l5 27l371 426h-253l-19 -108h-28l23 135h315l-5 -27l-365 -426h286l19 112h28l-24 -139h-353z" />
<glyph unicode="{" horiz-adv-x="308" d="M47 -49l31 178q4 24 4 35q0 47 -45 62l5 27q34 10 50.5 31.5t24.5 65.5l32 179q13 76 35 107q33 44 100 44h39l-4 -26h-20q-54 0 -80 -24t-37 -82l-35 -196q-8 -48 -26.5 -73t-54.5 -39q26 -14 35.5 -30t9.5 -44q0 -11 -4 -39l-34 -196q-4 -32 -4 -45q0 -61 83 -61 q11 0 21 1l-5 -26h-39q-43 0 -66.5 20t-23.5 57q0 26 8 74z" />
<glyph unicode="|" horiz-adv-x="500" d="M235 -167v834h30v-834h-30z" />
<glyph unicode="}" horiz-adv-x="308" d="M124 -68l34 196q8 47 26.5 72.5t54.5 39.5q-26 14 -35.5 30t-9.5 44q0 18 4 39l35 196q3 21 3 46q0 60 -82 60q-12 0 -21 -1l4 26h40q43 0 66 -20.5t23 -57.5t-7 -73l-32 -178q-4 -19 -4 -35q0 -47 45 -62l-4 -27q-34 -10 -51 -32t-25 -65l-31 -179q-13 -74 -36 -107 q-33 -44 -100 -44h-39l5 26h19q54 0 81 24t37 82z" />
<glyph unicode="~" horiz-adv-x="667" d="M117 599l-22 14q29 52 58.5 74.5t68.5 22.5q40 0 117 -42q72 -38 105 -38q31 0 55 18.5t50 63.5l22 -13q-54 -97 -128 -97q-23 0 -48 9.5t-90 42.5q-53 28 -85 28q-30 0 -53.5 -19.5t-49.5 -63.5z" />
<glyph unicode="&#xa1;" horiz-adv-x="187" d="M100 393l15 87h40l-15 -87h-40zM4 -187l89 503h26l-88 -503h-27z" />
<glyph unicode="&#xa2;" d="M200 -4l24 135q-73 14 -113 62.5t-40 121.5q0 94 60.5 156t154.5 64l22 126h30l-23 -126q83 -6 118 -77l13 73h29l-25 -142h-29v10q0 51 -35 81.5t-94 30.5q-85 0 -138 -55.5t-53 -143.5q0 -69 44 -112t114 -43q99 0 150 85h29q-23 -52 -73 -82t-112 -29l-23 -135h-30z " />
<glyph unicode="&#xa3;" d="M-40 0l5 29h125q54 47 75.5 82.5t21.5 78.5q0 34 -30 110l-16 43h-116l5 29h104q-16 57 -16 87q0 41 17.5 82.5t46.5 70.5q60 62 155 62q66 0 116.5 -28t74.5 -78l12 72h30l-28 -160h-30q2 22 2 28q0 57 -51 96.5t-124 39.5q-82 0 -136.5 -54t-54.5 -134q0 -28 15 -84 h243l-5 -29h-229l14 -35q31 -78 31 -120q0 -62 -42 -115q-11 -15 -43 -44h90q65 0 106 15.5t72 52.5t53 125h25q-17 -107 -81 -166q-34 -31 -75 -43.5t-106 -12.5h-256z" />
<glyph unicode="&#xa4;" horiz-adv-x="618" d="M123 113l-21 21l59 59q-53 65 -53 144q0 80 53 143l-59 59l21 21l58 -59q64 56 146 56q81 0 145 -53l56 56l21 -21l-56 -56q57 -63 57 -147q0 -83 -56 -147l55 -55l-21 -21l-55 55q-64 -52 -143 -52q-84 0 -148 56zM329 146q79 0 135 56t56 135q0 77 -56 133.5t-133 56.5 q-81 0 -137 -55.5t-56 -135.5q0 -79 56 -134.5t135 -55.5z" />
<glyph unicode="&#xa5;" d="M117 0l6 29h88l37 214h-155l5 29h155l-30 130h-129l5 29h117l-49 207h-85l5 29h181l-5 -29h-62l72 -329l182 329h-65l5 29h183l-5 -29h-82l-118 -207h116l-5 -29h-127l-74 -130h152l-5 -29h-152l-38 -214h90l-5 -29h-208z" />
<glyph unicode="&#xa6;" horiz-adv-x="500" d="M235 344v323h30v-323h-30zM235 153h30v-320h-30v320z" />
<glyph unicode="&#xa7;" d="M22 33h26q-9 -49 -9 -78q0 -56 40.5 -89t109.5 -33q86 0 148 56.5t62 134.5q0 52 -36 77q-23 16 -117 34q-93 17 -130 46q-44 33 -44 99t70 129q-31 33 -31 84q0 71 63 126t144 55q74 0 115 -44q9 -9 26 -39l12 64h26l-30 -158h-25q2 28 2 36q0 51 -34 82.5t-89 31.5 q-72 0 -127 -47.5t-55 -109.5q0 -46 39 -74q25 -18 97 -31q114 -21 150 -54q39 -36 39 -97q0 -70 -62 -128q26 -27 26 -81q0 -92 -70.5 -155.5t-172.5 -63.5q-125 0 -161 90l-15 -83h-28zM151 194q28 -16 102 -29q93 -17 129 -40q52 44 52 106q0 29 -14.5 54t-38.5 37 q-27 14 -119 35q-72 16 -99 33q-60 -43 -60 -112q0 -55 48 -84z" />
<glyph unicode="&#xa8;" horiz-adv-x="500" d="M334 562l17 96h32l-17 -96h-32zM242 562l17 96h32l-17 -96h-32z" />
<glyph unicode="&#xa9;" horiz-adv-x="776" d="M54 315q0 151 109.5 259t261.5 108q136 0 231 -96.5t95 -233.5q0 -149 -108.5 -258t-257.5 -109q-139 0 -235 96t-96 234zM84 316q0 -128 87.5 -216.5t214.5 -88.5q137 0 236 100.5t99 239.5q0 127 -87 216t-211 89q-140 0 -239.5 -100t-99.5 -240zM540 264h33 q-25 -58 -72.5 -89.5t-112.5 -31.5q-79 0 -129.5 48.5t-50.5 125.5q0 92 60 153t149 61q87 0 141 -64l10 60h29l-19 -112h-24q-42 86 -137 86q-77 0 -128 -52.5t-51 -131.5q0 -63 41.5 -103.5t105.5 -40.5q105 0 155 91z" />
<glyph unicode="&#xaa;" horiz-adv-x="349" d="M285 400l6 34q-44 -37 -94 -37q-54 0 -91 36.5t-37 90.5q0 62 42.5 105t103.5 43q64 0 107 -61l11 58h75l-5 -29h-46l-37 -211h46l-6 -29h-75zM198 426q49 0 81 34t32 85q0 45 -27 71.5t-72 26.5q-48 0 -81 -34t-33 -84q0 -44 28 -71.5t72 -27.5zM20 304l5 29h334l-6 -29 h-333z" />
<glyph unicode="&#xab;" horiz-adv-x="300" d="M200 65l-77 184l120 163l26 -7l-114 -155l69 -169zM111 65l-77 185l119 162l25 -6l-113 -155l68 -170z" />
<glyph unicode="&#xac;" horiz-adv-x="500" d="M33 239v28h433v-267h-30v239h-403z" />
<glyph unicode="&#xad;" horiz-adv-x="205" d="M-2 235l5 30h206l-6 -30h-205z" />
<glyph unicode="&#xae;" horiz-adv-x="776" d="M54 315q0 151 109.5 259t261.5 108q136 0 231 -96.5t95 -233.5q0 -149 -108.5 -258t-257.5 -109q-139 0 -235 96t-96 234zM84 316q0 -128 87.5 -216.5t214.5 -88.5q137 0 236 100.5t99 239.5q0 127 -87 216t-211 89q-140 0 -239.5 -100t-99.5 -240zM229 147l5 29h47 l57 322h-48l6 29h159q65 0 93 -24q30 -27 30 -72q0 -34 -20 -65t-52 -48q-32 -15 -77 -15l68 -127h56l-5 -29h-72l-96 184h40q60 0 94 26.5t34 73.5q0 38 -29 56q-17 11 -79 11h-73l-56 -322h54l-6 -29h-130z" />
<glyph unicode="&#xaf;" horiz-adv-x="500" d="M187 588l5 29h249l-5 -29h-249z" />
<glyph unicode="&#xb0;" horiz-adv-x="364" d="M235 420q-55 0 -93.5 38t-38.5 92q0 52 39 89.5t93 37.5q55 0 93.5 -37.5t38.5 -90.5t-38.5 -91t-93.5 -38zM235 444q44 0 75.5 30.5t31.5 73.5t-31.5 74t-75.5 31t-75.5 -30.5t-31.5 -72.5q0 -44 31 -75t76 -31z" />
<glyph unicode="&#xb1;" d="M237 134v191h-197v29h197v192h29v-192h197v-29h-197v-191h-29zM47 59v29h423v-29h-423z" />
<glyph unicode="&#xb2;" horiz-adv-x="334" d="M33 266l4 24q125 93 182 144q55 49 72 74t17 56q0 35 -24 57.5t-61 22.5q-84 0 -104 -94h-27q10 58 44 89.5t88 31.5q49 0 80.5 -29t31.5 -75q0 -40 -24 -73.5t-91 -90.5q-51 -41 -139 -110h199l15 85h27l-20 -112h-270z" />
<glyph unicode="&#xb3;" horiz-adv-x="334" d="M126 558h-28q23 113 132 113q50 0 80 -25.5t30 -67.5q0 -68 -75 -94q27 -12 43.5 -37t16.5 -56q0 -53 -42 -90.5t-101 -37.5q-51 0 -89 30q-37 30 -37 94v11h27q-1 -47 14 -69q29 -39 88 -39q46 0 79 29.5t33 71.5q0 36 -28.5 60t-71.5 24q-2 0 -22 -2l5 28q16 -2 30 -2 q46 0 74 21t28 55q0 30 -24 49.5t-61 19.5q-83 0 -101 -86z" />
<glyph unicode="&#xb4;" horiz-adv-x="500" d="M253 550l-13 24l185 104l13 -23z" />
<glyph unicode="&#xb5;" d="M74 68l-41 -231h-30l113 643h30l-50 -285q-8 -46 -8 -72q0 -49 35 -81t90 -32q73 0 128 55t71 143l48 272h30l-85 -480h-30l19 108q-71 -123 -187 -123q-95 0 -133 83z" />
<glyph unicode="&#xb6;" d="M74 -158h87l88 503q-77 0 -112 21q-62 36 -62 111q0 42 21.5 82.5t58.5 66.5q57 41 165 41h239l-5 -29h-93l-140 -796h93l-5 -29h-123l146 825h-102l-145 -825h-116z" />
<glyph unicode="&#xb7;" horiz-adv-x="173" d="M61 213l13 74h40l-13 -74h-40z" />
<glyph unicode="&#xb8;" horiz-adv-x="500" d="M179 -87l42 88h29l-27 -59q16 8 29 8q26 0 43 -16.5t17 -42.5q0 -35 -24.5 -59t-61.5 -24q-32 0 -49 16.5t-17 47.5h27q6 -36 42 -36q23 0 38.5 15t15.5 37q0 37 -41 37q-25 0 -40 -21z" />
<glyph unicode="&#xb9;" horiz-adv-x="334" d="M80 266l5 27h86l61 347h-98l5 27h125l-66 -374h77l-5 -27h-190z" />
<glyph unicode="&#xba;" horiz-adv-x="349" d="M218 397q-56 0 -92 35t-36 89q0 64 42 107.5t103 43.5q58 0 92.5 -35.5t34.5 -95.5q0 -61 -41.5 -102.5t-102.5 -41.5zM217 426q49 0 82.5 35t33.5 85q0 44 -27 70.5t-72 26.5q-49 0 -82 -35t-33 -87q0 -42 27.5 -68.5t70.5 -26.5zM19 304l5 29h334l-6 -29h-333z" />
<glyph unicode="&#xbb;" horiz-adv-x="294" d="M109 82l123 170l-61 153l22 9l68 -164l-133 -183zM37 67l-19 16l123 169l-61 153l22 9l69 -165z" />
<glyph unicode="&#xbc;" horiz-adv-x="817" d="M195 0l428 667h31l-429 -667h-30zM80 266l5 27h86l61 347h-98l5 27h125l-66 -374h77l-5 -27h-190zM479 90l4 24l247 286h25l-50 -283h66l-5 -27h-66l-11 -63h51l-4 -27h-130l5 27h50l12 63h-194zM519 117h158l41 231z" />
<glyph unicode="&#xbd;" horiz-adv-x="817" d="M195 0l428 667h31l-429 -667h-30zM80 266l5 27h86l61 347h-98l5 27h125l-66 -374h77l-5 -27h-190zM469 0l5 24q116 86 181 143q55 49 72 74t17 56q0 35 -24 57.5t-61 22.5q-85 0 -103 -94h-28q10 58 44.5 89.5t87.5 31.5q49 0 80.5 -29t31.5 -75q0 -39 -24.5 -74 t-90.5 -90q-17 -15 -138 -109h198l15 84h27l-20 -111h-270z" />
<glyph unicode="&#xbe;" horiz-adv-x="817" d="M126 558h-28q23 113 132 113q50 0 80 -25.5t30 -67.5q0 -68 -75 -94q27 -12 43.5 -37t16.5 -56q0 -53 -42 -90.5t-101 -37.5q-51 0 -89 30q-37 30 -37 94v11h27q-1 -47 14 -69q29 -39 88 -39q46 0 79 29.5t33 71.5q0 36 -28.5 60t-71.5 24q-2 0 -22 -2l5 28q16 -2 30 -2 q46 0 74 21t28 55q0 30 -24 49.5t-61 19.5q-83 0 -101 -86zM194 0l429 667h30l-428 -667h-31zM478 90l5 24l246 286h25l-50 -283h67l-5 -27h-67l-11 -63h52l-5 -27h-130l5 27h51l11 63h-194zM519 117h158l40 231z" />
<glyph unicode="&#xbf;" horiz-adv-x="439" d="M228 393l15 87h41l-15 -87h-41zM347 -6h28q-13 -80 -76 -134t-143 -54q-72 0 -119.5 46t-47.5 115q0 98 94 169q71 53 99.5 92t43.5 104h25q-19 -114 -120 -194q-69 -56 -84 -79q-28 -42 -28 -91q0 -58 39 -96.5t98 -38.5q87 0 148 75q25 32 43 86z" />
<glyph unicode="&#xc0;" horiz-adv-x="715" d="M482 721l-169 96l16 26l168 -96zM29 29l376 609h-93l5 29h149l159 -638h82l-5 -29h-209l5 29h95l-55 225h-336l-139 -225h89l-6 -29h-209l5 29h87zM219 283h313l-91 364z" />
<glyph unicode="&#xc1;" horiz-adv-x="715" d="M434 721l-14 26l196 96l14 -26zM29 29l376 609h-93l5 29h149l159 -638h82l-5 -29h-209l5 29h95l-55 225h-336l-139 -225h89l-6 -29h-209l5 29h87zM219 283h313l-91 364z" />
<glyph unicode="&#xc2;" horiz-adv-x="715" d="M298 727l184 110l131 -110h-45l-91 76l-129 -76h-50zM29 29l376 609h-93l5 29h149l159 -638h82l-5 -29h-209l5 29h95l-55 225h-336l-139 -225h89l-6 -29h-209l5 29h87zM219 283h313l-91 364z" />
<glyph unicode="&#xc3;" horiz-adv-x="715" d="M331 743l-17 17q43 50 88 50q25 0 67 -24q25 -15 50 -15q43 0 80 41l18 -17q-49 -53 -102 -53q-19 0 -32.5 5t-46.5 23q-19 11 -35 11q-37 0 -70 -38zM29 29l376 609h-93l5 29h149l159 -638h82l-5 -29h-209l5 29h95l-55 225h-336l-139 -225h89l-6 -29h-209l5 29h87z M219 283h313l-91 364z" />
<glyph unicode="&#xc4;" horiz-adv-x="715" d="M486 730l18 103h33l-18 -103h-33zM393 730l18 103h33l-18 -103h-33zM29 29l376 609h-93l5 29h149l159 -638h82l-5 -29h-209l5 29h95l-55 225h-336l-139 -225h89l-6 -29h-209l5 29h87zM219 283h313l-91 364z" />
<glyph unicode="&#xc5;" horiz-adv-x="715" d="M454 697q-37 0 -63 26.5t-26 64.5t26 64t63 26q38 0 65 -27t27 -65q0 -36 -27.5 -62.5t-64.5 -26.5zM453 725q26 0 45.5 18.5t19.5 43.5q0 26 -19 44.5t-46 18.5q-25 0 -42.5 -18t-17.5 -44t17.5 -44.5t42.5 -18.5zM29 29l376 609h-93l5 29h149l159 -638h82l-5 -29h-209 l5 29h95l-55 225h-336l-139 -225h89l-6 -29h-209l5 29h87zM219 283h313l-91 364z" />
<glyph unicode="&#xc6;" horiz-adv-x="927" d="M14 29l530 609h-84l5 29h486l-28 -160h-29l23 131h-301l-47 -266h280l-5 -29h-280l-55 -314h301l27 153h29l-32 -182h-447l5 29h88l36 208h-281l-181 -208h88l-5 -29h-210l5 29h82zM260 266h261l67 377z" />
<glyph unicode="&#xc7;" horiz-adv-x="723" d="M275 -87l41 84q-79 7 -148 57q-117 84 -117 244q0 82 32 157.5t89 127.5q99 91 248 91q86 0 153 -35t107 -100l23 128h29l-31 -178h-26q-35 68 -85 103q-76 53 -173 53q-143 0 -239.5 -100t-96.5 -248q0 -120 78.5 -197.5t200.5 -77.5q118 0 208 69q44 35 80 98h35 q-40 -91 -124 -143.5t-190 -52.5q-14 0 -25 1l-26 -52q17 8 30 8q26 0 43 -16.5t17 -42.5q0 -35 -24.5 -59t-61.5 -24q-30 0 -48 16t-18 44v4h27q6 -36 42 -36q23 0 38.5 15t15.5 37q0 37 -41 37q-25 0 -40 -21z" />
<glyph unicode="&#xc8;" horiz-adv-x="559" d="M418 721l-169 96l16 26l168 -96zM4 0l5 29h87l107 609h-86l5 29h448l-28 -160h-29l23 131h-303l-48 -268h304l-5 -29h-304l-55 -312h317l25 144h30l-31 -173h-462z" />
<glyph unicode="&#xc9;" horiz-adv-x="559" d="M360 721l-14 26l196 96l14 -26zM4 0l5 29h87l107 609h-86l5 29h448l-28 -160h-29l23 131h-303l-48 -268h304l-5 -29h-304l-55 -312h317l25 144h30l-31 -173h-462z" />
<glyph unicode="&#xca;" horiz-adv-x="559" d="M226 727l184 110l131 -110h-45l-91 76l-129 -76h-50zM4 0l5 29h87l107 609h-86l5 29h448l-28 -160h-29l23 131h-303l-48 -268h304l-5 -29h-304l-55 -312h317l25 144h30l-31 -173h-462z" />
<glyph unicode="&#xcb;" horiz-adv-x="559" d="M415 730l18 103h33l-18 -103h-33zM322 730l18 103h33l-18 -103h-33zM4 0l5 29h87l107 609h-86l5 29h448l-28 -160h-29l23 131h-303l-48 -268h304l-5 -29h-304l-55 -312h317l25 144h30l-31 -173h-462z" />
<glyph unicode="&#xcc;" horiz-adv-x="297" d="M257 721l-162 96l16 26l161 -96zM4 0l5 29h87l107 609h-87l6 29h202l-5 -29h-87l-107 -609h87l-5 -29h-203z" />
<glyph unicode="&#xcd;" horiz-adv-x="297" d="M215 721l-14 26l183 96l13 -26zM4 0l5 29h87l107 609h-86l5 29h202l-5 -29h-86l-108 -609h87l-5 -29h-203z" />
<glyph unicode="&#xce;" horiz-adv-x="297" d="M91 727l160 110l106 -110h-42l-69 76l-108 -76h-47zM4 0l5 29h87l107 609h-86l5 29h202l-5 -29h-86l-108 -609h87l-5 -29h-203z" />
<glyph unicode="&#xcf;" horiz-adv-x="297" d="M265 730l18 103h33l-18 -103h-33zM172 730l18 103h33l-18 -103h-33zM4 0l5 29h87l107 609h-86l5 29h202l-5 -29h-86l-108 -609h87l-5 -29h-203z" />
<glyph unicode="&#xd0;" horiz-adv-x="683" d="M4 0l5 29h87l55 313h-87l5 29h87l47 267h-86l5 29h197q177 0 262 -82q81 -78 81 -213q0 -92 -40 -174t-108 -131q-65 -46 -156 -61q-35 -6 -145 -6h-209zM125 29h88q113 0 173 13t110 49q61 43 98.5 121t37.5 162q0 117 -72 189q-40 41 -95 58t-146 17h-86l-48 -267h200 l-5 -29h-200z" />
<glyph unicode="&#xd1;" horiz-adv-x="757" d="M356 743l-17 17q43 50 88 50q25 0 67 -24q25 -15 50 -15q43 0 80 41l18 -17q-49 -53 -102 -53q-19 0 -32.5 5t-46.5 23q-19 11 -35 11q-37 0 -70 -38zM4 0l5 29h87l107 609h-86l5 29h132l310 -629l106 600h-91l5 29h207l-5 -29h-87l-112 -638h-41l-313 638l-108 -609h98 l-5 -29h-214z" />
<glyph unicode="&#xd2;" horiz-adv-x="754" d="M479 721l-169 96l16 26l168 -96zM51 301q0 159 104.5 266t261.5 107q144 0 235 -94q81 -84 81 -218q0 -156 -105.5 -262.5t-260.5 -106.5q-139 0 -227.5 86.5t-88.5 221.5zM81 298q0 -122 78 -199t202 -77q146 0 244 97.5t98 243.5q0 131 -77 204q-82 77 -210 77 q-143 0 -239 -99t-96 -247z" />
<glyph unicode="&#xd3;" horiz-adv-x="754" d="M411 721l-14 26l196 96l14 -26zM51 301q0 159 104.5 266t261.5 107q144 0 235 -94q81 -84 81 -218q0 -156 -105.5 -262.5t-260.5 -106.5q-139 0 -227.5 86.5t-88.5 221.5zM81 298q0 -122 78 -199t202 -77q146 0 244 97.5t98 243.5q0 131 -77 204q-82 77 -210 77 q-143 0 -239 -99t-96 -247z" />
<glyph unicode="&#xd4;" horiz-adv-x="754" d="M298 727l184 110l131 -110h-45l-91 76l-129 -76h-50zM51 301q0 159 104.5 266t261.5 107q144 0 235 -94q81 -84 81 -218q0 -156 -105.5 -262.5t-260.5 -106.5q-139 0 -227.5 86.5t-88.5 221.5zM81 298q0 -122 78 -199t202 -77q146 0 244 97.5t98 243.5q0 131 -77 204 q-82 77 -210 77q-143 0 -239 -99t-96 -247z" />
<glyph unicode="&#xd5;" horiz-adv-x="754" d="M337 743l-17 17q43 50 88 50q25 0 67 -24q25 -15 50 -15q43 0 80 41l18 -17q-49 -53 -102 -53q-19 0 -32.5 5t-46.5 23q-19 11 -35 11q-37 0 -70 -38zM51 301q0 159 104.5 266t261.5 107q144 0 235 -94q81 -84 81 -218q0 -156 -105.5 -262.5t-260.5 -106.5 q-139 0 -227.5 86.5t-88.5 221.5zM81 298q0 -122 78 -199t202 -77q146 0 244 97.5t98 243.5q0 131 -77 204q-82 77 -210 77q-143 0 -239 -99t-96 -247z" />
<glyph unicode="&#xd6;" horiz-adv-x="754" d="M483 730l18 103h33l-18 -103h-33zM390 730l18 103h33l-18 -103h-33zM51 301q0 159 104.5 266t261.5 107q144 0 235 -94q81 -84 81 -218q0 -156 -105.5 -262.5t-260.5 -106.5q-139 0 -227.5 86.5t-88.5 221.5zM81 298q0 -122 78 -199t202 -77q146 0 244 97.5t98 243.5 q0 131 -77 204q-82 77 -210 77q-143 0 -239 -99t-96 -247z" />
<glyph unicode="&#xd7;" d="M112 158l-16 16l166 166l-166 167l16 16l166 -167l167 167l16 -16l-167 -167l167 -166l-16 -16l-167 166z" />
<glyph unicode="&#xd8;" horiz-adv-x="754" d="M52 -8l85 90q-46 50 -66 101t-20 118q0 160 104.5 266.5t261.5 106.5q123 0 208 -69l82 89l20 -19l-82 -88q88 -85 88 -220q0 -160 -105 -267t-261 -107q-117 0 -210 71l-86 -91zM156 102l450 482q-76 60 -190 60q-144 0 -239.5 -99t-95.5 -248q0 -60 17.5 -105t57.5 -90 zM176 85q80 -63 185 -63q148 0 245 98.5t97 247.5q0 123 -76 199z" />
<glyph unicode="&#xd9;" horiz-adv-x="655" d="M447 721l-169 96l16 26l168 -96zM605 638l-71 -402q-13 -71 -32 -111.5t-53 -71.5q-66 -60 -164 -60q-80 0 -128 40.5t-48 107.5q0 37 10 95l71 402h-87l5 29h205l-5 -29h-89l-76 -429q-6 -33 -6 -63q0 -56 40.5 -90t107.5 -34q97 0 155 61q27 28 41 61t24 92l71 402h-88 l5 29h204l-5 -29h-87z" />
<glyph unicode="&#xda;" horiz-adv-x="655" d="M396 721l-14 26l196 96l14 -26zM605 638l-71 -402q-13 -71 -32 -111.5t-53 -71.5q-66 -60 -164 -60q-80 0 -128 40.5t-48 107.5q0 37 10 95l71 402h-87l5 29h205l-5 -29h-89l-76 -429q-6 -33 -6 -63q0 -56 40.5 -90t107.5 -34q97 0 155 61q27 28 41 61t24 92l71 402h-88 l5 29h204l-5 -29h-87z" />
<glyph unicode="&#xdb;" horiz-adv-x="655" d="M266 727l184 110l131 -110h-45l-91 76l-129 -76h-50zM605 638l-71 -402q-13 -71 -32 -111.5t-53 -71.5q-66 -60 -164 -60q-80 0 -128 40.5t-48 107.5q0 37 10 95l71 402h-87l5 29h205l-5 -29h-89l-76 -429q-6 -33 -6 -63q0 -56 40.5 -90t107.5 -34q97 0 155 61 q27 28 41 61t24 92l71 402h-88l5 29h204l-5 -29h-87z" />
<glyph unicode="&#xdc;" horiz-adv-x="655" d="M454 730l18 103h33l-18 -103h-33zM361 730l18 103h33l-18 -103h-33zM605 638l-71 -402q-13 -71 -32 -111.5t-53 -71.5q-66 -60 -164 -60q-80 0 -128 40.5t-48 107.5q0 37 10 95l71 402h-87l5 29h205l-5 -29h-89l-76 -429q-6 -33 -6 -63q0 -56 40.5 -90t107.5 -34 q97 0 155 61q27 28 41 61t24 92l71 402h-88l5 29h204l-5 -29h-87z" />
<glyph unicode="&#xdd;" horiz-adv-x="578" d="M360 721l-14 26l196 96l14 -26zM144 0l6 29h88l42 243l-146 366h-85l5 29h208l-5 -29h-89l131 -334l243 334h-92l5 29h210l-5 -29h-82l-268 -366l-43 -243h90l-5 -29h-208z" />
<glyph unicode="&#xde;" horiz-adv-x="571" d="M4 0l5 29h87l107 609h-86l5 29h201l-5 -29h-85l-14 -75h122q65 0 101.5 -8t64.5 -29q60 -44 60 -130q0 -52 -30 -99.5t-80 -76.5q-62 -35 -209 -35h-95l-28 -156h95l-5 -29h-211zM158 214h114q123 0 179 37q39 25 62.5 65t23.5 82q0 37 -17 67.5t-46 46.5q-40 22 -144 22 h-116z" />
<glyph unicode="&#xdf;" horiz-adv-x="571" d="M-4 0l5 27h87l54 310h-87l5 27h87l17 95q12 66 23 97t30 54q25 29 64 46.5t80 17.5q71 0 117.5 -43t46.5 -109q0 -56 -35 -101.5t-96 -67.5q60 -18 92.5 -60.5t32.5 -103.5q0 -81 -58.5 -138.5t-139.5 -57.5q-70 0 -117 44t-47 110q0 16 1 26h24v-23q0 -56 39 -92.5 t100 -36.5q70 0 119.5 51t49.5 122q0 66 -45.5 105t-122.5 39q-13 0 -23 -1l5 27q71 3 109 24q38 22 60.5 58.5t22.5 76.5q0 53 -39.5 88t-99.5 35q-38 0 -72.5 -16.5t-53.5 -44.5q-23 -33 -39 -126l-81 -459h-115z" />
<glyph unicode="&#xe0;" horiz-adv-x="640" d="M383 550l-158 105l15 23l158 -104zM444 0l17 100q-28 -48 -82.5 -77.5t-116.5 -29.5q-98 0 -163.5 64.5t-65.5 161.5q0 112 76.5 190t185.5 78q75 0 132 -40.5t76 -108.5l25 142h115l-5 -27h-86l-75 -426h86l-5 -27h-114zM62 223q0 -89 56 -145.5t144 -56.5 q98 0 162.5 69t64.5 173q0 89 -54.5 142.5t-144.5 53.5q-95 0 -161.5 -68.5t-66.5 -167.5z" />
<glyph unicode="&#xe1;" horiz-adv-x="640" d="M329 550l-13 24l185 104l13 -23zM444 0l17 100q-28 -48 -82.5 -77.5t-116.5 -29.5q-98 0 -163.5 64.5t-65.5 161.5q0 112 76.5 190t185.5 78q75 0 132 -40.5t76 -108.5l25 142h115l-5 -27h-86l-75 -426h86l-5 -27h-114zM62 223q0 -89 56 -145.5t144 -56.5q98 0 162.5 69 t64.5 173q0 89 -54.5 142.5t-144.5 53.5q-95 0 -161.5 -68.5t-66.5 -167.5z" />
<glyph unicode="&#xe2;" horiz-adv-x="640" d="M210 557l171 115l125 -115h-42l-87 80l-120 -80h-47zM444 0l17 100q-28 -48 -82.5 -77.5t-116.5 -29.5q-98 0 -163.5 64.5t-65.5 161.5q0 112 76.5 190t185.5 78q75 0 132 -40.5t76 -108.5l25 142h115l-5 -27h-86l-75 -426h86l-5 -27h-114zM62 223q0 -89 56 -145.5 t144 -56.5q98 0 162.5 69t64.5 173q0 89 -54.5 142.5t-144.5 53.5q-95 0 -161.5 -68.5t-66.5 -167.5z" />
<glyph unicode="&#xe3;" horiz-adv-x="640" d="M249 567l-17 18q44 49 82 49q20 0 57 -24q24 -15 46 -15q35 0 70 41l17 -17q-49 -53 -94 -53q-24 0 -52 18q-33 21 -48 21q-26 0 -61 -38zM444 0l17 100q-28 -48 -82.5 -77.5t-116.5 -29.5q-98 0 -163.5 64.5t-65.5 161.5q0 112 76.5 190t185.5 78q75 0 132 -40.5 t76 -108.5l25 142h115l-5 -27h-86l-75 -426h86l-5 -27h-114zM62 223q0 -89 56 -145.5t144 -56.5q98 0 162.5 69t64.5 173q0 89 -54.5 142.5t-144.5 53.5q-95 0 -161.5 -68.5t-66.5 -167.5z" />
<glyph unicode="&#xe4;" horiz-adv-x="640" d="M391 562l17 96h32l-17 -96h-32zM299 562l17 96h32l-17 -96h-32zM444 0l17 100q-28 -48 -82.5 -77.5t-116.5 -29.5q-98 0 -163.5 64.5t-65.5 161.5q0 112 76.5 190t185.5 78q75 0 132 -40.5t76 -108.5l25 142h115l-5 -27h-86l-75 -426h86l-5 -27h-114zM62 223 q0 -89 56 -145.5t144 -56.5q98 0 162.5 69t64.5 173q0 89 -54.5 142.5t-144.5 53.5q-95 0 -161.5 -68.5t-66.5 -167.5z" />
<glyph unicode="&#xe5;" horiz-adv-x="640" d="M366 528q-36 0 -61.5 26t-25.5 63t25.5 63t62.5 26t64 -27t27 -64q0 -35 -27.5 -61t-64.5 -26zM365 555q26 0 45.5 18t19.5 43q0 26 -19 44.5t-46 18.5q-25 0 -42 -18t-17 -44q0 -25 17.5 -43.5t41.5 -18.5zM444 0l17 100q-28 -48 -82.5 -77.5t-116.5 -29.5 q-98 0 -163.5 64.5t-65.5 161.5q0 112 76.5 190t185.5 78q75 0 132 -40.5t76 -108.5l25 142h115l-5 -27h-86l-75 -426h86l-5 -27h-114zM62 223q0 -89 56 -145.5t144 -56.5q98 0 162.5 69t64.5 173q0 89 -54.5 142.5t-144.5 53.5q-95 0 -161.5 -68.5t-66.5 -167.5z" />
<glyph unicode="&#xe6;" horiz-adv-x="1005" d="M443 0l17 96q-65 -103 -198 -103q-100 0 -164.5 63.5t-64.5 162.5q0 52 20.5 103.5t54.5 87.5q72 77 185 77q77 0 132.5 -37.5t78.5 -105.5l24 136h28l-18 -101q45 58 92.5 83t111.5 25q104 0 164.5 -62.5t60.5 -171.5v-16h-454q-1 -10 -1 -28q0 -81 57.5 -134.5 t144.5 -53.5q67 0 120.5 32t84.5 91h31q-28 -68 -91.5 -109.5t-139.5 -41.5q-98 0 -162 56q-37 33 -61 95l-25 -144h-28zM518 264h423q-2 89 -55.5 142t-141.5 53q-86 0 -148.5 -54t-77.5 -141zM62 220q0 -88 55.5 -143.5t143.5 -55.5q111 0 176 85q52 69 52 158 q0 88 -54 141.5t-143 53.5q-96 0 -163 -69.5t-67 -169.5z" />
<glyph unicode="&#xe7;" horiz-adv-x="550" d="M182 -87l40 81q-87 13 -138 73t-51 149q0 106 70 186q75 84 198 84q145 0 197 -113l19 107h28l-29 -166h-25q-19 59 -52 92q-55 52 -141 52q-100 0 -168 -69.5t-68 -170.5q0 -88 56 -143t145 -55q71 0 126 35.5t87 103.5h29q-26 -77 -97.5 -124t-158.5 -43l-23 -50 q16 8 30 8q26 0 42.5 -17t16.5 -42q0 -35 -24.5 -59t-61.5 -24q-29 0 -48.5 17.5t-17.5 42.5v4h28q6 -36 42 -36q22 0 37.5 15t15.5 37q0 37 -40 37q-26 0 -40 -21z" />
<glyph unicode="&#xe8;" horiz-adv-x="552" d="M342 550l-158 105l15 23l158 -104zM467 145h30q-30 -71 -92.5 -111.5t-141.5 -40.5q-103 0 -166.5 62.5t-63.5 163.5q0 115 74.5 191.5t185.5 76.5q64 0 114.5 -28t78.5 -78q26 -47 27 -143h-451q-1 -10 -1 -23q0 -84 57 -139t144 -55q67 0 120 32.5t85 91.5zM65 265h424 q-4 77 -38 122q-54 72 -157 72q-88 0 -150 -52.5t-79 -141.5z" />
<glyph unicode="&#xe9;" horiz-adv-x="552" d="M291 550l-13 24l185 104l13 -23zM467 145h30q-30 -71 -92.5 -111.5t-141.5 -40.5q-103 0 -166.5 62.5t-63.5 163.5q0 115 74.5 191.5t185.5 76.5q64 0 114.5 -28t78.5 -78q26 -47 27 -143h-451q-1 -10 -1 -23q0 -84 57 -139t144 -55q67 0 120 32.5t85 91.5zM65 265h424 q-4 77 -38 122q-54 72 -157 72q-88 0 -150 -52.5t-79 -141.5z" />
<glyph unicode="&#xea;" horiz-adv-x="552" d="M182 557l171 115l125 -115h-42l-87 80l-120 -80h-47zM467 145h30q-30 -71 -92.5 -111.5t-141.5 -40.5q-103 0 -166.5 62.5t-63.5 163.5q0 115 74.5 191.5t185.5 76.5q64 0 114.5 -28t78.5 -78q26 -47 27 -143h-451q-1 -10 -1 -23q0 -84 57 -139t144 -55q67 0 120 32.5 t85 91.5zM65 265h424q-4 77 -38 122q-54 72 -157 72q-88 0 -150 -52.5t-79 -141.5z" />
<glyph unicode="&#xeb;" horiz-adv-x="552" d="M355 562l17 96h32l-17 -96h-32zM263 562l17 96h32l-17 -96h-32zM467 145h30q-30 -71 -92.5 -111.5t-141.5 -40.5q-103 0 -166.5 62.5t-63.5 163.5q0 115 74.5 191.5t185.5 76.5q64 0 114.5 -28t78.5 -78q26 -47 27 -143h-451q-1 -10 -1 -23q0 -84 57 -139t144 -55 q67 0 120 32.5t85 91.5zM65 265h424q-4 77 -38 122q-54 72 -157 72q-88 0 -150 -52.5t-79 -141.5z" />
<glyph unicode="&#xec;" horiz-adv-x="277" d="M206 550l-138 106l16 22l137 -104zM-4 0l5 27h86l75 426h-86l5 27h114l-80 -453h87l-5 -27h-201z" />
<glyph unicode="&#xed;" horiz-adv-x="277" d="M169 550l-13 24l165 104l13 -22zM-4 0l5 27h87l75 426h-87l5 27h114l-79 -453h86l-5 -27h-201z" />
<glyph unicode="&#xee;" horiz-adv-x="277" d="M62 557l144 115l98 -115h-37l-65 80l-99 -80h-41zM-4 0l5 27h87l75 426h-87l5 27h114l-79 -453h86l-5 -27h-201z" />
<glyph unicode="&#xef;" horiz-adv-x="277" d="M218 562l17 96h32l-17 -96h-32zM133 562l17 96h32l-17 -96h-32zM-4 0l5 27h87l75 426h-87l5 27h114l-79 -453h86l-5 -27h-201z" />
<glyph unicode="&#xf0;" horiz-adv-x="557" d="M491 662l-113 -53q35 -27 55.5 -50t37.5 -55q51 -96 51 -215q0 -132 -68 -210q-77 -86 -194 -86q-100 0 -164 62t-64 159q0 116 75.5 194.5t187.5 78.5q78 0 133 -39q23 -16 57 -59q-16 70 -46.5 116.5t-88.5 90.5l-125 -58l-18 20l114 53q-94 37 -149 41l15 22 q26 -1 78.5 -16.5t86.5 -31.5l125 57zM61 215q0 -86 55.5 -140t143.5 -54q98 0 165 69.5t67 170.5q0 89 -55 143.5t-146 54.5q-98 0 -164 -70t-66 -174z" />
<glyph unicode="&#xf1;" horiz-adv-x="628" d="M251 570l-17 18q44 49 82 49q20 0 57 -24q24 -15 46 -15q35 0 70 41l17 -17q-49 -53 -94 -53q-24 0 -52 18q-33 21 -48 21q-26 0 -61 -38zM-4 0l5 27h87l75 426h-87l5 27h114l-17 -97q76 104 184 104q71 0 120 -47t49 -116q0 -25 -9 -81l-38 -216h87l-5 -27h-203l5 27h88 l38 216q9 54 9 79q0 58 -42 97.5t-103 39.5q-83 0 -142 -67q-45 -50 -60 -136l-40 -229h86l-5 -27h-201z" />
<glyph unicode="&#xf2;" horiz-adv-x="557" d="M339 550l-158 105l15 23l158 -104zM32 214q0 115 75 194t185 79q112 0 177 -76q51 -58 51 -156q0 -110 -75.5 -186t-184.5 -76q-100 0 -164 62t-64 159zM61 215q0 -86 55.5 -140t143.5 -54q97 0 164 69.5t67 170.5q0 89 -54.5 143.5t-145.5 54.5q-98 0 -164 -70t-66 -174 z" />
<glyph unicode="&#xf3;" horiz-adv-x="557" d="M293 550l-13 24l185 104l13 -23zM32 214q0 115 75 194t185 79q112 0 177 -76q51 -58 51 -156q0 -110 -75.5 -186t-184.5 -76q-100 0 -164 62t-64 159zM61 215q0 -86 55.5 -140t143.5 -54q97 0 164 69.5t67 170.5q0 89 -54.5 143.5t-145.5 54.5q-98 0 -164 -70t-66 -174z " />
<glyph unicode="&#xf4;" horiz-adv-x="557" d="M178 557l171 115l125 -115h-42l-87 80l-120 -80h-47zM32 214q0 115 75 194t185 79q112 0 177 -76q51 -58 51 -156q0 -110 -75.5 -186t-184.5 -76q-100 0 -164 62t-64 159zM61 215q0 -86 55.5 -140t143.5 -54q97 0 164 69.5t67 170.5q0 89 -54.5 143.5t-145.5 54.5 q-98 0 -164 -70t-66 -174z" />
<glyph unicode="&#xf5;" horiz-adv-x="557" d="M227 570l-17 18q44 49 82 49q20 0 57 -24q24 -15 46 -15q35 0 70 41l17 -17q-49 -53 -94 -53q-24 0 -52 18q-33 21 -48 21q-26 0 -61 -38zM32 214q0 115 75 194t185 79q112 0 177 -76q51 -58 51 -156q0 -110 -75.5 -186t-184.5 -76q-100 0 -164 62t-64 159zM61 215 q0 -86 55.5 -140t143.5 -54q97 0 164 69.5t67 170.5q0 89 -54.5 143.5t-145.5 54.5q-98 0 -164 -70t-66 -174z" />
<glyph unicode="&#xf6;" horiz-adv-x="557" d="M360 562l17 96h32l-17 -96h-32zM268 562l17 96h32l-17 -96h-32zM32 214q0 115 75 194t185 79q112 0 177 -76q51 -58 51 -156q0 -110 -75.5 -186t-184.5 -76q-100 0 -164 62t-64 159zM61 215q0 -86 55.5 -140t143.5 -54q97 0 164 69.5t67 170.5q0 89 -54.5 143.5 t-145.5 54.5q-98 0 -164 -70t-66 -174z" />
<glyph unicode="&#xf7;" d="M260 414v70h37v-70h-37zM67 325v29h423v-29h-423zM260 196v70h37v-70h-37z" />
<glyph unicode="&#xf8;" horiz-adv-x="557" d="M22 -17l69 76q-33 40 -46 74.5t-13 79.5q0 117 74 195.5t185 78.5q84 0 150 -49l71 75l19 -16l-71 -77q60 -62 60 -157q0 -113 -75 -191.5t-184 -78.5q-82 0 -151 50l-70 -76zM111 80l314 338q-59 41 -132 41q-99 0 -166 -70t-67 -173q0 -79 51 -136zM130 62 q51 -41 129 -41q98 0 165 69t67 169q0 87 -49 142z" />
<glyph unicode="&#xf9;" horiz-adv-x="633" d="M378 550l-158 105l15 23l158 -104zM438 0l20 108q-37 -55 -87.5 -85t-106.5 -30q-70 0 -120 46.5t-50 110.5q0 36 12 101l36 202h-87l5 27h114l-42 -241q-10 -62 -10 -87q0 -53 42.5 -92t101.5 -39q92 0 155 76q44 53 60 142l37 214h-88l5 27h116l-80 -453h87l-5 -27 h-115z" />
<glyph unicode="&#xfa;" horiz-adv-x="633" d="M324 550l-13 24l185 104l13 -23zM438 0l20 108q-37 -55 -87.5 -85t-106.5 -30q-70 0 -120 46.5t-50 110.5q0 36 12 101l36 202h-87l5 27h114l-42 -241q-10 -62 -10 -87q0 -53 42.5 -92t101.5 -39q92 0 155 76q44 53 60 142l37 214h-88l5 27h116l-80 -453h87l-5 -27h-115z " />
<glyph unicode="&#xfb;" horiz-adv-x="633" d="M202 557l171 115l125 -115h-42l-87 80l-120 -80h-47zM438 0l20 108q-37 -55 -87.5 -85t-106.5 -30q-70 0 -120 46.5t-50 110.5q0 36 12 101l36 202h-87l5 27h114l-42 -241q-10 -62 -10 -87q0 -53 42.5 -92t101.5 -39q92 0 155 76q44 53 60 142l37 214h-88l5 27h116 l-80 -453h87l-5 -27h-115z" />
<glyph unicode="&#xfc;" horiz-adv-x="633" d="M384 562l17 96h32l-17 -96h-32zM292 562l17 96h32l-17 -96h-32zM438 0l20 108q-37 -55 -87.5 -85t-106.5 -30q-70 0 -120 46.5t-50 110.5q0 36 12 101l36 202h-87l5 27h114l-42 -241q-10 -62 -10 -87q0 -53 42.5 -92t101.5 -39q92 0 155 76q44 53 60 142l37 214h-88l5 27 h116l-80 -453h87l-5 -27h-115z" />
<glyph unicode="&#xfd;" d="M291 550l-13 24l185 104l13 -23zM10 -160h86l90 148l-95 465h-86l5 27h205l-5 -27h-92l89 -430l253 430h-92l5 27h208l-5 -27h-85l-363 -613h89l-5 -27h-207z" />
<glyph unicode="&#xfe;" horiz-adv-x="639" d="M-35 -160h86l141 800h-86l4 27h115l-50 -283q84 103 199 103q98 0 164 -65t66 -162q0 -113 -75.5 -190t-185.5 -77q-94 0 -156 57q-34 31 -55 89l-53 -299h91l-5 -27h-205zM148 215q0 -87 54 -140.5t142 -53.5q95 0 163 69t68 166q0 91 -55.5 147t-144.5 56 q-99 0 -163 -69t-64 -175z" />
<glyph unicode="&#xff;" d="M348 562l17 96h32l-17 -96h-32zM256 562l17 96h32l-17 -96h-32zM10 -160h86l90 148l-95 465h-86l5 27h205l-5 -27h-92l89 -430l253 430h-92l5 27h208l-5 -27h-85l-363 -613h89l-5 -27h-207z" />
<glyph unicode="&#x152;" horiz-adv-x="1098" d="M633 0l28 156q-49 -77 -128 -120t-171 -43q-136 0 -224 86t-88 218q0 160 105.5 268.5t261.5 108.5q109 0 187.5 -57t109.5 -159l37 209h346l-28 -160h-30l24 131h-288l-47 -269h274l-5 -29h-274l-55 -311h312l25 140h29l-30 -169h-371zM80 297q0 -121 79 -197.5 t203 -76.5q143 0 239.5 98t96.5 243q0 117 -60 186q-81 94 -223 94q-144 0 -239.5 -99t-95.5 -248z" />
<glyph unicode="&#x153;" horiz-adv-x="1009" d="M925 143h29q-26 -67 -91 -108.5t-143 -41.5q-103 0 -167 64q-37 37 -56 100q-24 -73 -90.5 -118.5t-146.5 -45.5q-100 0 -164 63t-64 161q0 106 68 183q75 87 193 87q169 0 220 -160q74 161 237 161q97 0 159.5 -61.5t62.5 -156.5q0 -21 -1 -33h-450q-1 -11 -1 -26 q0 -83 56 -136.5t144 -53.5q138 0 205 122zM524 264h423q-5 94 -56.5 145t-142.5 51q-86 0 -149 -55t-75 -141zM61 215q0 -86 55.5 -140t143.5 -54q98 0 166 69.5t68 169.5q0 89 -55 144t-145 55q-100 0 -166.5 -69.5t-66.5 -174.5z" />
<glyph unicode="&#x178;" horiz-adv-x="578" d="M408 730l18 103h33l-18 -103h-33zM315 730l18 103h33l-18 -103h-33zM144 0l6 29h88l42 243l-146 366h-85l5 29h208l-5 -29h-89l131 -334l243 334h-92l5 29h210l-5 -29h-82l-268 -366l-43 -243h90l-5 -29h-208z" />
<glyph unicode="&#x2c6;" horiz-adv-x="500" d="M158 557l171 115l125 -115h-42l-87 80l-120 -80h-47z" />
<glyph unicode="&#x2dc;" horiz-adv-x="500" d="M197 570l-17 18q44 49 82 49q20 0 57 -24q24 -15 46 -15q35 0 70 41l17 -17q-49 -53 -94 -53q-24 0 -52 18q-33 21 -48 21q-26 0 -61 -38z" />
<glyph unicode="&#x2000;" horiz-adv-x="439" />
<glyph unicode="&#x2001;" horiz-adv-x="878" />
<glyph unicode="&#x2002;" horiz-adv-x="439" />
<glyph unicode="&#x2003;" horiz-adv-x="878" />
<glyph unicode="&#x2004;" horiz-adv-x="292" />
<glyph unicode="&#x2005;" horiz-adv-x="219" />
<glyph unicode="&#x2006;" horiz-adv-x="146" />
<glyph unicode="&#x2007;" horiz-adv-x="146" />
<glyph unicode="&#x2008;" horiz-adv-x="109" />
<glyph unicode="&#x2009;" horiz-adv-x="175" />
<glyph unicode="&#x200a;" horiz-adv-x="48" />
<glyph unicode="&#x2010;" horiz-adv-x="205" d="M-2 235l5 30h206l-6 -30h-205z" />
<glyph unicode="&#x2011;" horiz-adv-x="205" d="M-2 235l5 30h206l-6 -30h-205z" />
<glyph unicode="&#x2012;" horiz-adv-x="205" d="M-2 235l5 30h206l-6 -30h-205z" />
<glyph unicode="&#x2013;" d="M61 235l5 30h397l-5 -30h-397z" />
<glyph unicode="&#x2014;" horiz-adv-x="616" d="M-2 235l5 30h616l-5 -30h-616z" />
<glyph unicode="&#x2018;" horiz-adv-x="194" d="M92 501l103 166h27l-104 -166h-26z" />
<glyph unicode="&#x2019;" horiz-adv-x="194" d="M92 501l104 166h26l-103 -166h-27z" />
<glyph unicode="&#x201a;" horiz-adv-x="194" d="M13 -99h-27l104 166h26z" />
<glyph unicode="&#x201c;" horiz-adv-x="274" d="M172 501l103 166h27l-104 -166h-26zM92 501l103 166h27l-104 -166h-26z" />
<glyph unicode="&#x201d;" horiz-adv-x="274" d="M172 501l104 166h26l-103 -166h-27zM92 501l104 166h26l-103 -166h-27z" />
<glyph unicode="&#x201e;" horiz-adv-x="274" d="M67 -93l104 166h26l-103 -166h-27zM-13 -93l104 166h26l-103 -166h-27z" />
<glyph unicode="&#x2022;" horiz-adv-x="667" d="M335 200q-58 0 -98.5 40.5t-40.5 97.5q0 58 40.5 98.5t99.5 40.5q56 0 96.5 -41t40.5 -98t-40.5 -97.5t-97.5 -40.5z" />
<glyph unicode="&#x2026;" horiz-adv-x="521" d="M370 0l13 73h40l-13 -73h-40zM197 0l13 73h40l-13 -73h-40zM23 0l13 73h40l-13 -73h-40z" />
<glyph unicode="&#x202f;" horiz-adv-x="175" />
<glyph unicode="&#x2039;" horiz-adv-x="209" d="M111 65l-77 185l119 162l25 -6l-113 -155l68 -170z" />
<glyph unicode="&#x203a;" horiz-adv-x="202" d="M37 67l-19 15l123 170l-61 153l22 9l68 -164z" />
<glyph unicode="&#x205f;" horiz-adv-x="219" />
<glyph unicode="&#x20ac;" horiz-adv-x="815" d="M569 289h-416q4 -90 46 -150q38 -56 99 -86.5t134 -30.5q118 0 208 69q43 33 80 98h36q-41 -92 -125.5 -144t-192.5 -52q-137 0 -223.5 81t-91.5 215h-81l19 30h63q0 8 2 30h-72l19 30h58q28 135 126 215t235 80q86 0 153 -35t107 -100l23 128h29l-31 -178h-26 q-35 67 -84 103q-76 53 -173 53q-122 0 -211.5 -72.5t-116.5 -193.5h464l-19 -30h-450l-3 -30h434z" />
<glyph unicode="&#x2122;" horiz-adv-x="803" d="M327 287l5 29h48l57 322h-48l5 29h85l71 -336l205 336h86l-5 -29h-49l-56 -322h48l-5 -29h-124l5 29h47l51 295l-197 -324h-25l-70 323l-51 -294h50l-6 -29h-127zM102 287l5 29h50l57 322h-90l-13 -73h-29l18 102h268l-18 -102h-29l12 73h-90l-56 -322h52l-5 -29h-132z " />
<glyph unicode="&#x25fc;" horiz-adv-x="480" d="M0 480h480v-480h-480v480z" />
</font>
</defs>
</svg>
