<?xml version="1.0" standalone="no"?>
<!DOCTYPE svg PUBLIC "-//W3C//DTD SVG 1.1//EN" "http://www.w3.org/Graphics/SVG/1.1/DTD/svg11.dtd" >
<svg xmlns="http://www.w3.org/2000/svg">
<metadata></metadata>
<defs>
<font id="square_serifregular" horiz-adv-x="547" >
<font-face units-per-em="1000" ascent="800" descent="-200" />
<missing-glyph horiz-adv-x="250" />
<glyph unicode="&#xfb01;" horiz-adv-x="603" d="M35 0v58h82v373h-81v58h81q-2 95 36 139t130 52v-56q-61 -7 -84 -36.5t-21 -98.5h312v-431h82v-58h-226v58h83v373h-251v-373h85v-58h-228zM429 570v97h61v-97h-61z" />
<glyph unicode="&#xfb02;" horiz-adv-x="603" d="M35 0v58h82v373h-81v58h81q2 51 6.5 71.5t18.5 39.5q39 54 135 65q20 2 120 2h93v-609h82v-58h-230v58h87v551h-48q-95 0 -118 -5q-62 -14 -78 -53q-6 -15 -7 -62h105v-58h-105v-373h85v-58h-228z" />
<glyph unicode="&#xfb03;" horiz-adv-x="914" d="M35 0v58h82v373h-81v58h81q-2 95 36 139t130 52v-56q-61 -7 -84 -36.5t-21 -98.5h250q-2 95 36 139t130 52v-56q-61 -7 -84 -36.5t-21 -98.5h312v-431h82v-58h-225v58h82v373h-251v-373h85v-58h-228v58h82v373h-250v-373h85v-58h-228zM740 570v97h61v-97h-61z" />
<glyph unicode="&#xfb04;" horiz-adv-x="914" d="M35 0v58h82v373h-81v58h81q-2 95 36 139t130 52v-55q-61 -7 -84 -37t-21 -99h250q2 51 6.5 71.5t18.5 39.5q39 54 135 65q20 2 120 2h93v-609h82v-58h-230v58h87v551h-48q-95 0 -118 -5q-62 -14 -78 -53q-6 -15 -7 -62h105v-58h-105v-373h85v-58h-228v58h82v373h-250 v-373h85v-58h-228z" />
<glyph horiz-adv-x="0" />
<glyph horiz-adv-x="333" />
<glyph unicode=" "  horiz-adv-x="250" />
<glyph unicode="&#x09;" horiz-adv-x="250" />
<glyph unicode="&#xa0;" horiz-adv-x="250" />
<glyph unicode="!" horiz-adv-x="192" d="M63 171v496h65v-496h-65zM63 0v102h65v-102h-65z" />
<glyph unicode="&#x22;" horiz-adv-x="322" d="M213 400l-10 267h71l-10 -267h-51zM57 400l-10 267h71l-10 -267h-51z" />
<glyph unicode="#" d="M112 0l35 222h-84l8 50h84l20 122h-85l8 50h85l35 223h55l-35 -223h109l35 223h56l-36 -223h83l-8 -50h-82l-20 -122h85l-8 -50h-85l-35 -222h-56l35 222h-108l-35 -222h-56zM211 272h108l20 122h-109z" />
<glyph unicode="$" d="M74 0v179h58q4 -59 45 -97.5t99 -38.5t98 38.5t40 94.5q0 62 -49 102q-18 14 -40 21.5t-83 21.5q-88 20 -127 59q-50 48 -50 121q0 42 19.5 80t54.5 63q38 27 101 35v92h55v-96q66 -9 98 -64v55h50v-158h-55q-7 53 -41.5 82.5t-88.5 29.5t-90 -33.5t-36 -84.5 q0 -52 39 -86q20 -18 57 -29l86 -17q77 -16 122.5 -67.5t45.5 -123.5q0 -100 -81 -157q-40 -28 -106 -37v-87h-56v93q-45 10 -67 23.5t-45 45.5v-60h-53z" />
<glyph unicode="%" horiz-adv-x="752" d="M188 372q-64 0 -109.5 45.5t-45.5 109.5q0 63 45 108t109 45q65 0 110 -45t45 -110q0 -63 -45.5 -108t-108.5 -45zM202 0l296 667h53l-295 -667h-54zM188 426q41 0 70.5 29.5t29.5 69.5q0 43 -29.5 72t-71.5 29q-41 0 -70.5 -29t-29.5 -70t30 -71t71 -30zM410 142 q0 63 45 108t108 45q65 0 110 -45t45 -110q0 -63 -45.5 -108t-107.5 -45q-64 0 -109.5 45.5t-45.5 109.5zM464 142q0 -41 29.5 -71t70.5 -30t70.5 29t29.5 70q0 42 -29 71.5t-71 29.5q-41 0 -70.5 -29t-29.5 -70z" />
<glyph unicode="&#x26;" horiz-adv-x="651" d="M592 -13l-153 148q-27 -50 -42.5 -71.5t-36.5 -37.5q-55 -43 -127 -43q-83 0 -141.5 57t-58.5 137q0 78 65 138q21 21 92 62l-31 29q-60 56 -60 125q0 63 46 108t111 45t110.5 -44.5t45.5 -107.5q0 -50 -31 -88.5t-99 -72.5l149 -143l87 191h120v-58h-81l-83 -176 l160 -155zM243 409q61 30 86 57.5t25 63.5q0 40 -29 69t-69 29t-68 -27.5t-28 -67.5q0 -47 44 -88zM394 179l-163 157q-72 -35 -102.5 -70.5t-30.5 -84.5q0 -57 40.5 -98t96.5 -41q68 0 109 49q20 24 50 88z" />
<glyph unicode="'" horiz-adv-x="166" d="M57 400l-10 267h71l-10 -267h-51z" />
<glyph unicode="(" horiz-adv-x="297" d="M282 -124v-76q-113 61 -180 181.5t-67 264.5q0 199 128 347q57 65 119 94v-76q-82 -58 -130 -156t-48 -210t48.5 -212.5t129.5 -156.5z" />
<glyph unicode=")" horiz-adv-x="297" d="M15 -124q83 58 130.5 156.5t47.5 210.5t-48.5 212.5t-129.5 155.5v76q113 -61 180 -181.5t67 -263.5q0 -200 -128 -348q-57 -65 -119 -94v76z" />
<glyph unicode="*" horiz-adv-x="467" d="M158 350l-42 27l79 107l-129 40l16 48l125 -43v138h51v-138l125 43l17 -48l-127 -40l78 -101l-42 -33l-78 103z" />
<glyph unicode="+" d="M246 115v198h-203v53h203v199h54v-199h203v-53h-203v-198h-54z" />
<glyph unicode="," horiz-adv-x="179" d="M15 -83l69 171h60l-70 -171h-59z" />
<glyph unicode="-" horiz-adv-x="245" d="M0 223v61h245v-61h-245z" />
<glyph unicode="." horiz-adv-x="179" d="M57 0v102h65v-102h-65z" />
<glyph unicode="/" horiz-adv-x="422" d="M23 -182h-56l355 849h57z" />
<glyph unicode="0" d="M499 433v-199q0 -111 -52 -173q-29 -34 -76.5 -55t-97.5 -21q-54 0 -104 24t-79 64q-43 58 -43 161v199q0 111 52 173q29 34 76.5 55t97.5 21q54 0 104 -23.5t79 -63.5q43 -60 43 -162zM112 433v-199q0 -87 33 -130q20 -26 55 -42t71 -16q40 0 77.5 18.5t56.5 47.5 q29 46 29 105v233q0 66 -35 112q-19 26 -55 42.5t-73 16.5q-39 0 -75.5 -18t-56.5 -47q-27 -42 -27 -123z" />
<glyph unicode="1" d="M165 0v58h88v555h-129v54h194v-609h88v-58h-241z" />
<glyph unicode="2" d="M46 0v58l290 281q73 70 73 133t-42.5 106t-104.5 43q-40 0 -73.5 -19.5t-53.5 -54.5q-19 -32 -20 -89h-64q1 83 39 136q29 40 76.5 64t98.5 24q88 0 149 -60.5t61 -148.5q0 -50 -21 -89t-79 -94l-243 -232h277v103h65v-161h-428z" />
<glyph unicode="3" d="M49 189h67q8 -55 35 -87q47 -56 115 -56q63 0 107.5 44.5t44.5 107.5q0 62 -47 105.5t-114 43.5q-15 0 -26 -1h-9v54q21 -1 34 -1q56 0 90 30.5t34 81.5q0 48 -31.5 80.5t-78.5 32.5q-46 0 -76.5 -28.5t-34.5 -75.5h-63q4 62 40 102q54 60 135 60q73 0 122.5 -48 t49.5 -118q0 -101 -89 -139q40 -17 60 -33q71 -57 71 -150q0 -86 -63.5 -147.5t-152.5 -61.5q-91 0 -153 58t-67 146z" />
<glyph unicode="4" d="M28 163v54l313 450h80v-450h97v-54h-97v-105h88v-58h-241v58h88v105h-328zM102 217h254v370z" />
<glyph unicode="5" d="M36 181h70q15 -63 59 -99t106 -36q71 0 121.5 49.5t50.5 118.5q0 71 -50 120t-122 49q-86 0 -138 -69l-60 15l62 338h330v-58h-277l-41 -215q60 50 137 50q94 0 160 -66t66 -160q0 -98 -69.5 -165.5t-169.5 -67.5q-90 0 -153 52.5t-82 143.5z" />
<glyph unicode="6" d="M362 667l-171 -251q53 30 104 30q86 0 149.5 -67t63.5 -158q0 -98 -67.5 -167t-163.5 -69q-99 0 -168.5 69.5t-69.5 167.5q0 77 47 146l202 299h74zM106 220q0 -71 50 -122.5t119 -51.5q68 0 117 50.5t49 120.5q0 73 -48 122.5t-118 49.5t-119.5 -49.5t-49.5 -119.5z" />
<glyph unicode="7" d="M143 0l279 609h-273v-121h-65v179h405v-63l-272 -604h-74z" />
<glyph unicode="8" d="M60 186q0 78 54 134q28 28 76 48q-94 47 -94 144q0 71 52 120.5t126 49.5q72 0 122 -48.5t50 -118.5q0 -94 -91 -144q63 -24 97 -71t34 -110q0 -85 -63 -145t-151 -60q-89 0 -150.5 58.5t-61.5 142.5zM271 394q47 0 81 33t34 79q0 49 -33.5 82t-82.5 33q-47 0 -80.5 -33 t-33.5 -80t34 -80.5t81 -33.5zM127 192q0 -60 43 -103t103 -43t103 42t43 101q0 61 -42.5 104t-104.5 43q-60 0 -102.5 -42.5t-42.5 -101.5z" />
<glyph unicode="9" d="M184 0l171 244q-53 -28 -97 -28q-90 0 -156 67.5t-66 159.5q0 97 71 168t168 71q98 0 166.5 -70t68.5 -170q0 -77 -48 -148l-196 -294h-82zM274 273q69 0 119 50.5t50 120.5q0 74 -49.5 125.5t-121.5 51.5q-70 0 -119.5 -51.5t-49.5 -123.5q0 -71 50.5 -122t120.5 -51z " />
<glyph unicode=":" horiz-adv-x="179" d="M57 341v102h65v-102h-65zM57 0v102h65v-102h-65z" />
<glyph unicode=";" horiz-adv-x="181" d="M81 341v102h65v-102h-65zM15 -83l69 171h60l-70 -171h-59z" />
<glyph unicode="&#x3c;" horiz-adv-x="500" d="M33 309v54l433 200v-62l-367 -165l367 -165v-62z" />
<glyph unicode="=" d="M43 373v53h460v-53h-460zM43 253v53h460v-53h-460z" />
<glyph unicode="&#x3e;" horiz-adv-x="500" d="M34 109v62l367 165l-367 165v61l433 -199v-54z" />
<glyph unicode="?" horiz-adv-x="473" d="M200 168q1 57 23 100t74 90q45 40 59.5 64.5t14.5 60.5q0 58 -42 100.5t-100 42.5q-34 0 -65.5 -16.5t-51.5 -44.5q-23 -34 -27 -85h-65q3 74 43 129q28 38 73 60t93 22q86 0 147 -61t61 -147q0 -48 -17.5 -79.5t-72.5 -82.5q-42 -39 -60.5 -73.5t-21.5 -79.5h-65zM200 0 v102h65v-102h-65z" />
<glyph unicode="@" horiz-adv-x="754" d="M633 4l17 -42q-104 -52 -227 -52q-164 0 -269 99q-54 51 -84 121t-30 145q0 140 96 234t240 94q143 0 240.5 -91t97.5 -225q0 -74 -31 -135t-81 -85q-22 -11 -58 -11h-85l5 41q-48 -51 -125 -51q-81 0 -131.5 53t-50.5 138q0 90 53 147t137 57q93 0 150 -77l9 67h92 l-4 -44h-47l-37 -287h41q36 0 60 24q26 26 41.5 69t15.5 92q0 119 -82 196.5t-208 77.5q-124 0 -206.5 -82.5t-82.5 -204.5q0 -135 94 -229q91 -90 238 -90q109 0 212 51zM204 234q0 -64 36 -103.5t94 -39.5q64 0 106.5 46.5t42.5 116.5q0 63 -38 102.5t-99 39.5 q-62 0 -102 -45.5t-40 -116.5z" />
<glyph unicode="A" horiz-adv-x="743" d="M-7 0v58h83l242 551h-89v58h175l262 -609h83v-58h-245v58h87l-67 156h-308l-69 -156h84v-58h-238zM235 269h270l-134 322z" />
<glyph unicode="B" horiz-adv-x="589" d="M38 0v58h85v549h-85v60h286q88 0 137 -50q44 -44 44 -112q0 -101 -91 -148q60 -22 92.5 -67.5t32.5 -106.5q0 -82 -54 -134q-50 -49 -144 -49h-303zM190 379h114q63 0 97 27q41 33 41 88q0 52 -38 85q-32 28 -97 28h-117v-228zM190 60h127q78 0 112 31q42 39 42 98 q0 58 -41 96q-40 37 -121 37h-119v-262z" />
<glyph unicode="C" horiz-adv-x="715" d="M612 171h75q-45 -88 -126 -138.5t-179 -50.5q-146 0 -247.5 102.5t-101.5 250.5q0 145 102 247.5t247 102.5q134 0 233 -98v80h57v-164h-64q-81 115 -226 115q-118 0 -199.5 -82t-81.5 -201t81.5 -202.5t198.5 -83.5q70 0 130 32t101 90z" />
<glyph unicode="D" horiz-adv-x="703" d="M38 0v58h85v551h-85v58h307q142 0 234 -98q91 -97 91 -236q0 -146 -105 -249q-85 -84 -219 -84h-308zM190 60h142q128 0 198 82q72 83 72 192q0 58 -23.5 114t-63.5 93q-69 66 -180 66h-145v-547z" />
<glyph unicode="E" d="M38 0v58h85v551h-85v58h469v-172h-67v112h-250v-243h257v-55h-257v-249h250v112h67v-172h-469z" />
<glyph unicode="F" horiz-adv-x="525" d="M38 0v58h85v551h-85v58h471v-174h-67v114h-252v-244h254v-55h-254v-250h85v-58h-237z" />
<glyph unicode="G" horiz-adv-x="785" d="M665 0v148q-47 -80 -121 -123t-165 -43q-144 0 -245 103t-101 249q0 147 101.5 249t248.5 102q139 0 245 -106v88h57v-168h-71q-87 119 -229 119q-120 0 -202 -82t-82 -202q0 -119 82 -202t200 -83q131 0 213 99q35 41 54 103h-334v60h406v-311h-57z" />
<glyph unicode="H" horiz-adv-x="711" d="M38 0v58h85v551h-85v58h237v-58h-85v-245h331v245h-85v58h237v-58h-85v-551h85v-58h-237v58h85v251h-331v-251h85v-58h-237z" />
<glyph unicode="I" horiz-adv-x="313" d="M38 0v58h85v551h-85v58h237v-58h-85v-551h85v-58h-237z" />
<glyph unicode="J" horiz-adv-x="474" d="M365 609v-433q0 -89 -48 -140q-52 -54 -131 -54q-44 0 -83 19t-62 52q-28 39 -34 98h71q7 -47 36.5 -74.5t72.5 -27.5q54 0 89 46q22 30 22 95v419h-85v58h237v-58h-85z" />
<glyph unicode="K" horiz-adv-x="636" d="M38 0v57h85v552h-85v58h237v-58h-85v-251l274 251h-75v58h241v-58h-80l-287 -261l305 -291h78v-57h-245v57h78l-289 279v-279h85v-57h-237z" />
<glyph unicode="L" horiz-adv-x="485" d="M38 0v58h85v551h-85v58h237v-58h-85v-549h218v112h67v-172h-437z" />
<glyph unicode="M" horiz-adv-x="944" d="M38 0v58h85v551h-85v58h180l240 -573l265 573h183v-58h-85v-551h85v-58h-237v58h85v523l-272 -581h-52l-244 579v-521h85v-58h-233z" />
<glyph unicode="N" horiz-adv-x="773" d="M38 0v58h85v551h-85v58h153l399 -561v503h-85v58h237v-58h-85v-609h-69l-398 557v-499h85v-58h-237z" />
<glyph unicode="O" horiz-adv-x="768" d="M33 333q0 145 103 248.5t247 103.5q148 0 249.5 -103t101.5 -252q0 -142 -103.5 -245t-246.5 -103q-145 0 -248 103t-103 248zM101 334q0 -118 83 -201.5t200 -83.5q115 0 198.5 83t83.5 198q0 121 -82 204.5t-201 83.5q-116 0 -199 -83.5t-83 -200.5z" />
<glyph unicode="P" horiz-adv-x="571" d="M38 0v58h85v551h-85v58h283q98 0 159.5 -56.5t61.5 -145.5q0 -94 -73 -157q-54 -45 -141 -45h-138v-205h85v-58h-237zM190 323h132q67 0 106 36q46 43 46 105q0 63 -43 103t-110 40h-131v-284z" />
<glyph unicode="Q" horiz-adv-x="780" d="M802 113v-137q-116 0 -215 69q-95 -63 -202 -63q-148 0 -250 102t-102 250q0 146 102.5 248.5t247.5 102.5t247.5 -103t102.5 -249q0 -147 -103 -248q63 -41 119 -48v76h53zM115 259q76 25 144 25q108 0 203 -61q45 -29 116 -94q87 84 87 202q0 120 -82.5 203.5 t-201.5 83.5q-114 0 -197 -82t-83 -195q0 -39 14 -82zM131 204q37 -73 104 -114t149 -41q81 0 150 43q-85 74 -120 93q-76 44 -158 44q-62 0 -125 -25z" />
<glyph unicode="R" horiz-adv-x="631" d="M38 0v58h85v551h-85v58h299q110 0 170 -60q64 -66 64 -157q0 -103 -78 -165q-48 -38 -123 -42l139 -185h88v-58h-129l-206 287h50q85 0 132 37q59 45 59 125q0 74 -54 122q-42 36 -116 36h-143v-549h79v-58h-231z" />
<glyph unicode="S" horiz-adv-x="495" d="M43 0v181h63q6 -63 43 -97.5t99 -34.5q60 0 100 37.5t40 93.5q0 65 -49 98q-31 20 -105 38q-60 15 -86.5 26t-49.5 30q-60 51 -60 130q0 77 56 130t138 53q96 0 136 -75v57h57v-158h-64q-5 50 -38.5 79.5t-86.5 29.5q-57 0 -93.5 -32t-36.5 -82q0 -72 62 -102 q21 -11 120 -34q81 -19 124.5 -67.5t43.5 -119.5q0 -84 -58.5 -141.5t-144.5 -57.5q-97 0 -153 81v-63h-57z" />
<glyph unicode="T" horiz-adv-x="511" d="M137 0v58h86v549h-146v-119h-57v179h471v-179h-57v119h-144v-549h85v-58h-238z" />
<glyph unicode="U" horiz-adv-x="655" d="M545 609v-402q0 -99 -61 -162t-157 -63q-103 0 -167 75q-50 60 -50 159v393h-85v58h232v-58h-80v-386q0 -84 40 -127q23 -26 47.5 -36.5t61.5 -10.5q77 0 120 57q32 42 32 117v386h-80v58h232v-58h-85z" />
<glyph unicode="V" horiz-adv-x="705" d="M316 0l-239 609h-84v58h238v-58h-83l206 -522l209 522h-86v58h235v-58h-80l-246 -609h-70z" />
<glyph unicode="W" horiz-adv-x="962" d="M263 0l-175 609h-81v58h238v-58h-87l143 -507l155 565h53l157 -563l139 505h-89v58h240v-58h-85l-168 -609h-72l-148 535l-150 -535h-70z" />
<glyph unicode="X" horiz-adv-x="649" d="M0 0v58h83l204 284l-191 267h-81v58h240v-55h-82l154 -221l152 221h-84v55h239v-58h-77l-190 -267l204 -284h78v-58h-239v55h85l-168 239l-167 -239h81v-55h-241z" />
<glyph unicode="Y" horiz-adv-x="606" d="M189 0v58h85v166l-201 385h-80v58h233v-58h-83l165 -321l156 321h-84v58h232v-58h-79l-192 -385v-166h85v-58h-237z" />
<glyph unicode="Z" horiz-adv-x="541" d="M43 0v56l347 551h-269v-113h-67v173h418v-54l-342 -552h301v112h67v-173h-455z" />
<glyph unicode="[" horiz-adv-x="297" d="M138 -132h141v-63h-209v875h209v-60h-141v-752z" />
<glyph unicode="\" horiz-adv-x="452" d="M402 -182l-355 849h57l355 -849h-57z" />
<glyph unicode="]" horiz-adv-x="297" d="M18 -135h141v752h-141v63h209v-875h-209v60z" />
<glyph unicode="^" horiz-adv-x="500" d="M29 371l180 297h81l181 -297h-69l-153 249l-152 -249h-68z" />
<glyph unicode="_" horiz-adv-x="500" d="M0 -69h500v-57h-500v57z" />
<glyph unicode="`" horiz-adv-x="500" d="M320 555l-230 125l26 54l228 -132z" />
<glyph unicode="a" horiz-adv-x="664" d="M486 0v103q-25 -39 -45 -58q-63 -58 -155 -58q-104 0 -179 75.5t-75 180.5q0 106 75.5 182.5t180.5 76.5q65 0 112 -27.5t86 -89.5v104h143v-58h-82v-373h82v-58h-143zM95 244q0 -81 57.5 -139t138.5 -58q80 0 138 58t58 138q0 84 -56.5 141.5t-139.5 57.5 q-81 0 -138.5 -58t-57.5 -140z" />
<glyph unicode="b" horiz-adv-x="657" d="M31 0v58h82v551h-82v58h143v-285q70 120 197 120q104 0 179 -75.5t75 -181.5t-73.5 -182t-176.5 -76q-86 0 -148 53q-24 19 -53 65v-105h-143zM171 244q0 -81 57.5 -139t138.5 -58q79 0 137 57.5t58 137.5q0 84 -56.5 142t-138.5 58q-81 0 -138.5 -58t-57.5 -140z" />
<glyph unicode="c" horiz-adv-x="552" d="M460 155h69q-30 -77 -95 -122.5t-145 -45.5q-106 0 -181.5 76t-75.5 182t74.5 181.5t178.5 75.5q97 0 172 -79v66h55v-144h-57q-28 46 -72.5 71.5t-94.5 25.5q-80 0 -136.5 -58t-56.5 -140t57 -139.5t137 -57.5q116 0 171 108z" />
<glyph unicode="d" horiz-adv-x="661" d="M486 0v106q-21 -34 -45 -58q-64 -61 -155 -61q-104 0 -179 76t-75 182q0 105 74.5 181t177.5 76q134 0 202 -123v230h-82v58h143v-609h82v-58h-143zM95 244q0 -81 57.5 -139t138.5 -58t139 58t58 138q0 83 -57 141t-139 58t-139.5 -58t-57.5 -140z" />
<glyph unicode="e" horiz-adv-x="574" d="M541 225h-448q8 -72 49 -116q59 -65 146 -65q107 0 169 95h65q-35 -72 -96 -112t-137 -40q-107 0 -182 75t-75 182q0 106 75 182t179 76q106 0 181 -75t75 -180q0 -12 -1 -22zM93 275h391q-12 74 -67.5 122t-130.5 48q-72 0 -126.5 -48t-66.5 -122z" />
<glyph unicode="f" horiz-adv-x="304" d="M35 0v58h82v373h-81v58h81q-2 95 36 139t130 52v-56q-61 -7 -84 -36.5t-21 -98.5h105v-58h-105v-373h85v-58h-228z" />
<glyph unicode="g" horiz-adv-x="660" d="M66 -51h70q52 -88 161 -88q80 0 134.5 53t54.5 132v65q-26 -46 -52 -69q-63 -55 -149 -55q-103 0 -177.5 76t-74.5 181q0 106 75 182t179 76q134 0 201 -121v108h141v-58h-82v-373q0 -118 -72 -187q-73 -70 -180 -70q-80 0 -141.5 40t-87.5 108zM96 244q0 -81 57.5 -139 t138.5 -58t138.5 57t57.5 138q0 85 -56.5 142.5t-139.5 57.5q-81 0 -138.5 -58t-57.5 -140z" />
<glyph unicode="h" horiz-adv-x="626" d="M31 0v58h82v551h-82v58h143v-271q59 106 164 106q90 0 149 -76q42 -55 42 -156v-212h82v-58h-225v58h82v188q0 58 -6 85.5t-24 52.5q-42 58 -116 58q-72 0 -114 -55q-34 -45 -34 -125v-204h82v-58h-225z" />
<glyph unicode="i" horiz-adv-x="291" d="M117 570v97h61v-97h-61zM35 0v58h82v373h-82v58h143v-431h82v-58h-225z" />
<glyph unicode="j" horiz-adv-x="258" d="M114 570v97h61v-97h-61zM114 25v406h-82v58h143v-491q0 -85 -35 -128t-115 -57v59q49 7 72 43q17 25 17 110z" />
<glyph unicode="k" horiz-adv-x="543" d="M31 0v58h82v551h-82v58h143v-395l181 164h-74v53h230v-58h-79l-184 -166l206 -207h88v-58h-240v58h69l-197 197v-197h75v-58h-218z" />
<glyph unicode="l" horiz-adv-x="288" d="M31 0v58h82v551h-82v58h143v-609h82v-58h-225z" />
<glyph unicode="m" horiz-adv-x="948" d="M35 0v58h82v373h-82v58h139v-84q55 97 153 97q112 0 167 -116q23 55 68 85.5t103 30.5q43 0 83.5 -19.5t66.5 -53.5q37 -49 37 -141v-230h82v-58h-226v58h83v216q0 47 -8 74t-28 50q-41 44 -101 44q-68 0 -109 -51q-32 -40 -32 -102v-231h83v-58h-226v58h82v218 q0 78 -33 118q-42 48 -104 48q-61 0 -99 -44t-38 -115v-225h82v-58h-225z" />
<glyph unicode="n" horiz-adv-x="635" d="M35 0v58h82v373h-82v58h143v-87q52 100 163 100q43 0 84 -19t69 -53q44 -53 44 -144v-228h82v-58h-225v58h82v206q0 86 -38 128q-45 50 -114 50q-73 0 -117 -57q-30 -40 -30 -114v-213h82v-58h-225z" />
<glyph unicode="o" horiz-adv-x="577" d="M32 244q0 106 75.5 182t180.5 76q108 0 182.5 -75t74.5 -184q0 -105 -76 -180.5t-181 -75.5q-106 0 -181 75.5t-75 181.5zM95 245q0 -82 57 -140t137 -58q79 0 136 57.5t57 137.5q0 84 -56 142t-138 58q-79 0 -136 -58t-57 -139z" />
<glyph unicode="p" horiz-adv-x="661" d="M31 -123h82v554h-82v58h143v-108q70 121 201 121q104 0 178.5 -76t74.5 -182t-73 -181.5t-176 -75.5q-98 0 -164 64q-19 18 -41 55v-229h82v-59h-225v59zM173 244q0 -81 57.5 -139t138.5 -58q80 0 138 57.5t58 137.5q0 84 -57 142t-139 58q-81 0 -138.5 -58t-57.5 -140z " />
<glyph unicode="q" horiz-adv-x="660" d="M486 -123v229q-22 -37 -41 -55q-67 -64 -164 -64q-103 0 -176 76t-73 182q0 107 74 182t179 75q131 0 201 -121v108h143v-58h-82v-554h82v-59h-226v59h83zM95 247q0 -83 57 -141.5t139 -58.5q80 0 138 58t58 139q0 82 -58 140t-139 58q-80 0 -137.5 -57.5t-57.5 -137.5z " />
<glyph unicode="r" horiz-adv-x="354" d="M35 0v58h82v373h-82v58h140v-99q36 98 161 103v-62q-76 -6 -117 -49t-41 -117v-207h82v-58h-225z" />
<glyph unicode="s" horiz-adv-x="426" d="M38 0v144h62q15 -107 113 -107q47 0 78.5 27t31.5 67q0 42 -31 63q-19 14 -82 28q-81 17 -116 41q-54 35 -54 102q0 59 44 98t110 39q72 0 113 -54v41h50v-122h-61q-9 85 -93 85q-41 0 -69.5 -24.5t-28.5 -59.5q0 -40 36 -63q23 -15 74 -25q81 -17 117 -39 q56 -37 56 -106q0 -63 -48 -105.5t-119 -42.5q-86 0 -133 72v-59h-50z" />
<glyph unicode="t" horiz-adv-x="307" d="M114 0v431h-95v58h95v178h61v-178h108v-58h-108v-373h116v-58h-177z" />
<glyph unicode="u" horiz-adv-x="630" d="M97 190v241h-82v58h143v-276q0 -80 42 -122q42 -44 104 -44q70 0 116 56q33 38 33 108v220h-83v58h144v-431h82v-58h-140v81q-25 -44 -69.5 -69t-97.5 -25q-83 0 -137.5 57.5t-54.5 145.5z" />
<glyph unicode="v" horiz-adv-x="564" d="M248 0l-175 431h-83v58h225v-58h-74l142 -357l147 357h-79v58h223v-58h-78l-179 -431h-69z" />
<glyph unicode="w" horiz-adv-x="809" d="M221 0l-149 431h-82v58h222v-58h-77l123 -351l126 362h51l115 -358l125 347h-80v58h224v-58h-82l-156 -431h-64l-109 338l-124 -338h-63z" />
<glyph unicode="x" horiz-adv-x="536" d="M7 0v58h79l140 188l-141 185h-76v58h219v-50h-67l106 -149l105 149h-71v50h220v-58h-75l-138 -185l141 -188h81v-58h-223v53h65l-105 149l-104 -149h65v-53h-221z" />
<glyph unicode="y" horiz-adv-x="556" d="M109 -127h82l50 123l-172 435h-79v58h224v-58h-77l137 -357l148 357h-77v58h221v-58h-78l-233 -558h80v-58h-226v58z" />
<glyph unicode="z" horiz-adv-x="443" d="M32 0v52l281 379h-211v-93h-55v151h343v-56l-274 -375h233v91h55v-149h-372z" />
<glyph unicode="{" horiz-adv-x="297" d="M72 -46v168q0 41 -13 61.5t-44 29.5v59q31 9 44 29.5t13 61.5v168q0 73 21 107q24 42 95 42h83v-57h-30q-60 0 -81 -20t-21 -76v-168q0 -49 -13.5 -74.5t-47.5 -41.5q34 -17 47.5 -42.5t13.5 -74.5v-168q0 -56 21 -76t81 -20q17 0 30 1v-58h-83q-71 0 -95 42 q-21 35 -21 107z" />
<glyph unicode="|" horiz-adv-x="500" d="M219 -167v834h62v-834h-62z" />
<glyph unicode="}" horiz-adv-x="297" d="M25 -138h30q60 0 81 20t21 76v168q0 49 13.5 74.5t47.5 41.5q-34 17 -47.5 42.5t-13.5 74.5v168q0 56 -21 76t-81 20q-17 0 -30 -1v58h83q71 0 95 -42q21 -35 21 -107v-168q0 -41 13 -61.5t44 -29.5v-59q-31 -9 -44 -29.5t-13 -61.5v-168q0 -72 -21 -107q-24 -42 -95 -42 h-83v57z" />
<glyph unicode="~" horiz-adv-x="667" d="M132 587l-38 24q31 61 61 86t73 25q38 0 114 -36q69 -34 99 -34q29 0 49.5 16t44.5 56l39 -23q-55 -108 -140 -108q-23 0 -48.5 9t-91.5 40q-45 21 -70 21q-51 0 -92 -76z" />
<glyph unicode="&#xa1;" horiz-adv-x="192" d="M63 387v102h65v-102h-65zM63 -177v496h65v-496h-65z" />
<glyph unicode="&#xa2;" d="M259 37v89q-84 12 -135.5 68.5t-51.5 136.5t52 137.5t135 70.5v89h54v-88q66 -13 105 -59v52h44v-119h-57q-41 64 -120 64q-64 0 -107 -42t-43 -104t44.5 -105.5t107.5 -43.5q67 0 116 64h70q-42 -100 -160 -123v-87h-54z" />
<glyph unicode="&#xa3;" d="M64 0v55h100q51 41 51 108q0 37 -16.5 68.5t-60.5 78.5h-113v55h73q-30 50 -30 106q0 88 58 148.5t142 60.5t141 -77v64h61v-162h-61q-9 53 -45.5 85t-87.5 32q-59 0 -99 -44.5t-40 -110.5q0 -57 36 -102h211v-55h-169q40 -45 53.5 -75t13.5 -68q0 -63 -48 -112h85 q74 0 108 38q34 37 34 95q0 20 -7 36h60q7 -19 7 -42q0 -83 -62 -140q-47 -42 -132 -42h-263z" />
<glyph unicode="&#xa4;" d="M97 108l-34 34l45 46q-43 59 -43 128q0 70 46 131l-48 47l35 35l47 -48q60 44 129 44q68 0 128 -44l47 48l34 -34l-47 -48q46 -59 46 -129q0 -71 -44 -130l45 -45l-34 -34l-45 45q-59 -47 -131 -47q-70 0 -131 46zM274 166q60 0 103.5 44t43.5 104q0 64 -43 108t-105 44 q-61 0 -104 -44t-43 -106t43.5 -106t104.5 -44z" />
<glyph unicode="&#xa5;" d="M162 0v58h84v165h-161v55h136l-52 112h-117v55h92l-76 164h-61v58h181v-58h-51l142 -321l134 321h-54v58h182v-58h-61l-72 -164h88v-55h-112l-50 -112h129v-55h-152v-165h84v-58h-233z" />
<glyph unicode="&#xa6;" horiz-adv-x="500" d="M219 336v331h62v-331h-62zM219 153h62v-320h-62v320z" />
<glyph unicode="&#xa7;" d="M81 -23l66 -1q0 -56 34.5 -86.5t97.5 -30.5q55 0 90 30.5t35 78.5q0 54 -46 84q-29 18 -94 33q-163 37 -163 161q0 66 51 112q26 22 67 33q-54 25 -78.5 58t-24.5 81q0 66 47.5 110t119.5 44q85 0 137 -55q29 -31 32 -80l-61 1q-4 35 -32.5 56.5t-71.5 21.5 q-46 0 -76.5 -28t-30.5 -70q0 -40 28 -67.5t92 -49.5q69 -24 94 -43q66 -47 66 -123q0 -47 -26.5 -82.5t-74.5 -52.5q107 -39 107 -144q0 -74 -53 -120t-138 -46q-89 0 -141.5 47t-52.5 128zM162 248q0 -43 35 -74t84 -31t83.5 30t34.5 72q0 45 -34.5 76.5t-84.5 31.5 q-49 0 -83.5 -31t-34.5 -74z" />
<glyph unicode="&#xa8;" horiz-adv-x="500" d="M279 579v116h61v-116h-61zM160 579v116h61v-116h-61z" />
<glyph unicode="&#xa9;" horiz-adv-x="789" d="M47 333q0 146 102.5 247.5t250.5 101.5q140 0 241.5 -103t101.5 -246q0 -144 -102 -246t-246 -102q-143 0 -245.5 102.5t-102.5 245.5zM85 333q0 -130 91 -222t219 -92t219 92.5t91 222.5q0 128 -90.5 221t-215.5 93q-131 0 -222.5 -91.5t-91.5 -223.5zM533 249h49 q-26 -53 -72.5 -82.5t-103.5 -29.5q-83 0 -141 58.5t-58 142.5q0 82 58.5 140.5t140.5 58.5q73 0 127 -51v41h39v-98h-41q-45 63 -125 63q-64 0 -109 -45t-45 -109q0 -66 44.5 -111.5t109.5 -45.5q80 0 127 68z" />
<glyph unicode="&#xaa;" horiz-adv-x="365" d="M262 400v47q-40 -54 -103 -54q-57 0 -97.5 41t-40.5 99t41 99.5t98 41.5q61 0 102 -54v47h82v-37h-43v-193h43v-37h-82zM162 431q41 0 71 30.5t30 71.5q0 43 -29.5 73t-71.5 30t-71.5 -30t-29.5 -73q0 -42 29.5 -72t71.5 -30zM21 299v37h323v-37h-323z" />
<glyph unicode="&#xab;" horiz-adv-x="314" d="M145 74l-108 161v37l108 160l14 -53l-80 -127l80 -128zM257 88l-102 147v36l102 150l14 -54l-73 -116l73 -114z" />
<glyph unicode="&#xac;" horiz-adv-x="500" d="M33 209v57h433v-266h-62v209h-371z" />
<glyph unicode="&#xad;" horiz-adv-x="245" d="M0 223v61h245v-61h-245z" />
<glyph unicode="&#xae;" horiz-adv-x="789" d="M47 333q0 146 102.5 247.5t250.5 101.5q140 0 241.5 -103t101.5 -246q0 -144 -102 -246t-246 -102q-143 0 -245.5 102.5t-102.5 245.5zM85 333q0 -130 91 -222t219 -92t219 92.5t91 222.5q0 128 -90.5 221t-215.5 93q-131 0 -222.5 -91.5t-91.5 -223.5zM235 147v39h48 v302h-48v39h171q61 0 98 -34.5t37 -90.5q0 -49 -31 -82t-79 -37l73 -97h51v-39h-78l-120 167h35q49 0 76.5 23.5t27.5 64.5q0 39 -29 66q-22 19 -63 19h-77v-301h44v-39h-136z" />
<glyph unicode="&#xaf;" horiz-adv-x="500" d="M101 605v52h299v-52h-299z" />
<glyph unicode="&#xb0;" horiz-adv-x="371" d="M185 404q-58 0 -98 40t-40 97q0 55 41 94.5t97 39.5q57 0 97.5 -39.5t40.5 -95.5t-40.5 -96t-97.5 -40zM185 447q39 0 66.5 27.5t27.5 65.5t-27.5 65t-66.5 27q-38 0 -66 -27t-28 -64q0 -39 27.5 -66.5t66.5 -27.5z" />
<glyph unicode="&#xb1;" d="M246 115v198h-203v53h203v199h54v-199h203v-53h-203v-198h-54zM43 14v53h460v-53h-460z" />
<glyph unicode="&#xb2;" horiz-adv-x="356" d="M33 267v39l181 166q44 40 44 76t-25.5 60.5t-62.5 24.5q-50 0 -76 -42q-11 -19 -12 -54h-46q1 54 25 86q19 24 49 38.5t62 14.5q56 0 95 -37t39 -90q0 -30 -13.5 -54t-49.5 -56l-144 -131h159v60h47v-101h-272z" />
<glyph unicode="&#xb3;" horiz-adv-x="356" d="M110 573h-45q2 46 33.5 74.5t78.5 28.5q46 0 78 -29.5t32 -72.5q0 -58 -50 -82q35 -14 55.5 -42.5t20.5 -65.5q0 -52 -40.5 -89t-96.5 -37q-59 0 -97.5 35t-43.5 92h49q5 -40 29 -62.5t61 -22.5q38 0 64.5 25.5t26.5 61.5t-28 60.5t-69 24.5q-8 0 -16 -1l-9 -1v39h24 q34 0 54 17t20 46q0 27 -18.5 45t-46.5 18t-46 -17t-20 -45z" />
<glyph unicode="&#xb4;" horiz-adv-x="500" d="M177 557l-22 46l229 130l28 -54z" />
<glyph unicode="&#xb5;" d="M136 63v-230h-62v647h62v-275q0 -54 8.5 -83t31.5 -51q36 -36 93 -36q63 0 104 50q37 48 37 130v265h62v-480h-62v91q-45 -104 -143 -104q-82 0 -131 76z" />
<glyph unicode="&#xb6;" d="M157 -124h85v407h-5q-96 0 -151 54q-59 59 -59 139q0 84 61 137.5t156 53.5h277v-58h-79v-733h79v-58h-139v789h-80v-789h-145v58z" />
<glyph unicode="&#xb7;" horiz-adv-x="178" d="M57 202v102h65v-102h-65z" />
<glyph unicode="&#xb8;" horiz-adv-x="500" d="M207 -119l33 119h44l-24 -83q16 6 28 6q29 0 49.5 -22t20.5 -54q0 -35 -23.5 -58.5t-57.5 -23.5q-66 0 -79 69h43q11 -26 37 -26q16 0 26.5 11t10.5 27q0 17 -11 28.5t-28 11.5q-20 0 -34 -18z" />
<glyph unicode="&#xb9;" horiz-adv-x="356" d="M108 267v41h54v320h-80v39h127v-359h55v-41h-156z" />
<glyph unicode="&#xba;" horiz-adv-x="365" d="M182 394q-57 0 -98 41t-41 98q0 58 41 99t98 41q59 0 99.5 -40.5t40.5 -99.5q0 -57 -41.5 -98t-98.5 -41zM182 432q41 0 70.5 29.5t29.5 70.5q0 43 -29 73t-71 30q-40 0 -69.5 -30t-29.5 -71q0 -42 29 -72t70 -30zM21 299v37h323v-37h-323z" />
<glyph unicode="&#xbb;" horiz-adv-x="314" d="M169 74l-13 50l79 128l-79 127l13 53l108 -160v-37zM57 88l-14 49l73 114l-73 116l14 54l102 -150v-36z" />
<glyph unicode="&#xbc;" horiz-adv-x="834" d="M246 0l296 667h46l-295 -667h-47zM108 267v41h54v320h-80v39h127v-359h55v-41h-156zM501 106v39l196 255h55v-255h60v-39h-60v-65h54v-41h-156v41h55v65h-204zM557 145h148v195z" />
<glyph unicode="&#xbd;" horiz-adv-x="834" d="M246 0l296 667h46l-295 -667h-47zM108 267v41h54v320h-80v39h127v-359h55v-41h-156zM512 0v39l181 166q44 40 44 76t-25.5 60.5t-62.5 24.5q-50 0 -76 -42q-11 -19 -12 -54h-46q1 54 25 86q19 24 49 38.5t62 14.5q56 0 95 -37t39 -90q0 -30 -13.5 -54t-49.5 -56 l-144 -131h159v60h47v-101h-272z" />
<glyph unicode="&#xbe;" horiz-adv-x="834" d="M110 573h-45q2 46 33.5 74.5t78.5 28.5q46 0 78 -29.5t32 -72.5q0 -58 -50 -82q35 -14 55.5 -42.5t20.5 -65.5q0 -52 -40.5 -89t-96.5 -37q-59 0 -97.5 35t-43.5 92h49q5 -40 29 -62.5t61 -22.5q38 0 64.5 25.5t26.5 61.5t-28 60.5t-69 24.5q-8 0 -16 -1l-9 -1v39h24 q34 0 54 17t20 46q0 27 -18.5 45t-46.5 18t-46 -17t-20 -45zM246 0l296 667h47l-295 -667h-48zM501 106v39l196 255h55v-255h60v-39h-60v-65h54v-41h-156v41h55v65h-204zM557 145h148v195z" />
<glyph unicode="&#xbf;" horiz-adv-x="473" d="M208 387v102h65v-102h-65zM388 10h66q-4 -92 -63 -151.5t-146 -59.5q-86 0 -147 61.5t-61 147.5q0 46 17.5 77.5t72.5 83.5q42 39 60.5 73.5t20.5 79.5h66q-2 -58 -23.5 -101t-72.5 -89q-45 -41 -59.5 -65.5t-14.5 -58.5q0 -59 42 -101.5t100 -42.5q34 0 65 16.5t51 44.5 q23 34 26 85z" />
<glyph unicode="&#xc0;" horiz-adv-x="743" d="M152 811l18 57l248 -88l-14 -49zM-7 0v58h83l242 551h-89v58h175l262 -609h83v-58h-245v58h87l-67 156h-308l-69 -156h84v-58h-238zM235 269h270l-134 322z" />
<glyph unicode="&#xc1;" horiz-adv-x="743" d="M335 731l-14 49l249 88l17 -57zM-7 0v58h83l242 551h-89v58h175l262 -609h83v-58h-245v58h87l-67 156h-308l-69 -156h84v-58h-238zM235 269h270l-134 322z" />
<glyph unicode="&#xc2;" horiz-adv-x="743" d="M195 730l160 129h36l163 -129h-80l-102 76l-100 -76h-77zM-7 0v58h83l242 551h-89v58h175l262 -609h83v-58h-245v58h87l-67 156h-308l-69 -156h84v-58h-238zM235 269h270l-134 322z" />
<glyph unicode="&#xc3;" horiz-adv-x="743" d="M254 751l-36 41q35 42 81 42q19 0 60 -16q34 -13 55 -13q33 0 65 33l36 -40q-44 -47 -95 -47q-25 0 -75 20q-23 9 -37 9q-26 0 -54 -29zM-7 0v58h83l242 551h-89v58h175l262 -609h83v-58h-245v58h87l-67 156h-308l-69 -156h84v-58h-238zM235 269h270l-134 322z" />
<glyph unicode="&#xc4;" horiz-adv-x="743" d="M398 740v116h63v-116h-63zM281 740v116h63v-116h-63zM-7 0v58h83l242 551h-89v58h175l262 -609h83v-58h-245v58h87l-67 156h-308l-69 -156h84v-58h-238zM235 269h270l-134 322z" />
<glyph unicode="&#xc5;" horiz-adv-x="743" d="M368 709q-41 0 -70.5 29.5t-29.5 70.5t29.5 70.5t70.5 29.5q42 0 71 -29.5t29 -71.5q0 -40 -29.5 -69.5t-70.5 -29.5zM368 749q25 0 42.5 17.5t17.5 41.5q0 25 -17.5 43t-42.5 18t-42.5 -17.5t-17.5 -42.5t17.5 -42.5t42.5 -17.5zM-7 0v58h83l242 551h-89v58h175 l262 -609h83v-58h-245v58h87l-67 156h-308l-69 -156h84v-58h-238zM235 269h270l-134 322z" />
<glyph unicode="&#xc6;" horiz-adv-x="910" d="M-27 0v58h84l379 551h-83v58h517v-172h-67v112h-249v-243h260v-55h-260v-249h249v112h67v-172h-468v51h85v163h-249l-112 -163h85v-51h-238zM272 269h215v316z" />
<glyph unicode="&#xc7;" horiz-adv-x="715" d="M322 -126l33 108q-71 10 -118.5 31t-90.5 60q-113 102 -113 260q0 148 101.5 250t248.5 102q140 0 236 -103v85h57v-167h-65q-75 118 -225 118q-121 0 -203 -82t-82 -202q0 -119 81.5 -202t197.5 -83q70 0 133 32.5t98 85.5h76q-35 -78 -116.5 -131t-172.5 -56l-20 -66 q18 2 23 2q31 0 52.5 -22.5t21.5 -54.5q0 -35 -24.5 -59t-59.5 -24q-32 0 -54.5 20t-25.5 53h43q11 -30 39 -30q17 0 28 11.5t11 28.5t-11 28t-28 11q-21 0 -33 -16z" />
<glyph unicode="&#xc8;" d="M353 731l-252 80l18 57l248 -88zM38 0v58h85v551h-85v58h469v-172h-67v112h-250v-243h257v-55h-257v-249h250v112h67v-172h-469z" />
<glyph unicode="&#xc9;" d="M230 731l-14 49l249 88l17 -57zM38 0v58h85v551h-85v58h469v-172h-67v112h-250v-243h257v-55h-257v-249h250v112h67v-172h-469z" />
<glyph unicode="&#xca;" d="M121 730l160 129h36l163 -129h-80l-102 76l-100 -76h-77zM38 0v58h85v551h-85v58h469v-172h-67v112h-250v-243h257v-55h-257v-249h250v112h67v-172h-469z" />
<glyph unicode="&#xcb;" d="M324 740v116h63v-116h-63zM207 740v116h63v-116h-63zM38 0v58h85v551h-85v58h469v-172h-67v112h-250v-243h257v-55h-257v-249h250v112h67v-172h-469z" />
<glyph unicode="&#xcc;" horiz-adv-x="313" d="M206 731l-225 80l18 57l221 -88zM38 0v58h85v551h-85v58h237v-58h-85v-551h85v-58h-237z" />
<glyph unicode="&#xcd;" horiz-adv-x="313" d="M130 731l-14 49l222 88l18 -57zM38 0v58h85v551h-85v58h237v-58h-85v-551h85v-58h-237z" />
<glyph unicode="&#xce;" horiz-adv-x="313" d="M8 730l132 129h36l135 -129h-79l-75 76l-73 -76h-76zM38 0v58h85v551h-85v58h237v-58h-85v-551h85v-58h-237z" />
<glyph unicode="&#xcf;" horiz-adv-x="313" d="M180 740v116h60v-116h-60zM80 740v116h60v-116h-60zM38 0v58h85v551h-85v58h237v-58h-85v-551h85v-58h-237z" />
<glyph unicode="&#xd0;" horiz-adv-x="703" d="M38 0v58h85v251h-82v55h82v245h-85v58h308q141 0 233 -98q91 -97 91 -236q0 -146 -105 -249q-85 -84 -219 -84h-308zM190 60h143q127 0 197 82q72 83 72 192q0 58 -23.5 114t-63.5 93q-69 66 -179 66h-146v-243h167v-55h-167v-249z" />
<glyph unicode="&#xd1;" horiz-adv-x="773" d="M291 751l-36 41q35 42 81 42q19 0 60 -16q34 -13 55 -13q33 0 65 33l36 -40q-44 -47 -95 -47q-25 0 -75 20q-23 9 -37 9q-26 0 -54 -29zM38 0v58h85v551h-85v58h153l399 -561v503h-85v58h237v-58h-85v-609h-69l-398 557v-499h85v-58h-237z" />
<glyph unicode="&#xd2;" horiz-adv-x="768" d="M195 811l18 57l248 -88l-14 -49zM33 333q0 145 103 248.5t247 103.5q148 0 249.5 -103t101.5 -252q0 -142 -103.5 -245t-246.5 -103q-145 0 -248 103t-103 248zM101 334q0 -118 83 -201.5t200 -83.5q115 0 198.5 83t83.5 198q0 121 -82 204.5t-201 83.5 q-116 0 -199 -83.5t-83 -200.5z" />
<glyph unicode="&#xd3;" horiz-adv-x="768" d="M351 731l-14 49l249 88l17 -57zM33 333q0 145 103 248.5t247 103.5q148 0 249.5 -103t101.5 -252q0 -142 -103.5 -245t-246.5 -103q-145 0 -248 103t-103 248zM101 334q0 -118 83 -201.5t200 -83.5q115 0 198.5 83t83.5 198q0 121 -82 204.5t-201 83.5q-116 0 -199 -83.5 t-83 -200.5z" />
<glyph unicode="&#xd4;" horiz-adv-x="768" d="M208 730l160 129h36l163 -129h-80l-102 76l-100 -76h-77zM33 333q0 145 103 248.5t247 103.5q148 0 249.5 -103t101.5 -252q0 -142 -103.5 -245t-246.5 -103q-145 0 -248 103t-103 248zM101 334q0 -118 83 -201.5t200 -83.5q115 0 198.5 83t83.5 198q0 121 -82 204.5 t-201 83.5q-116 0 -199 -83.5t-83 -200.5z" />
<glyph unicode="&#xd5;" horiz-adv-x="768" d="M291 751l-36 41q35 42 81 42q19 0 60 -16q34 -13 55 -13q33 0 65 33l36 -40q-44 -47 -95 -47q-25 0 -75 20q-23 9 -37 9q-26 0 -54 -29zM33 333q0 145 103 248.5t247 103.5q148 0 249.5 -103t101.5 -252q0 -142 -103.5 -245t-246.5 -103q-145 0 -248 103t-103 248z M101 334q0 -118 83 -201.5t200 -83.5q115 0 198.5 83t83.5 198q0 121 -82 204.5t-201 83.5q-116 0 -199 -83.5t-83 -200.5z" />
<glyph unicode="&#xd6;" horiz-adv-x="768" d="M414 740v116h63v-116h-63zM297 740v116h63v-116h-63zM33 333q0 145 103 248.5t247 103.5q148 0 249.5 -103t101.5 -252q0 -142 -103.5 -245t-246.5 -103q-145 0 -248 103t-103 248zM101 334q0 -118 83 -201.5t200 -83.5q115 0 198.5 83t83.5 198q0 121 -82 204.5 t-201 83.5q-116 0 -199 -83.5t-83 -200.5z" />
<glyph unicode="&#xd7;" d="M120 149l-37 38l153 153l-153 153l38 38l153 -153l153 153l37 -38l-153 -152l153 -153l-38 -39l-153 153z" />
<glyph unicode="&#xd8;" horiz-adv-x="765" d="M62 -26l82 101q-36 36 -55 64q-56 82 -56 193q0 147 102.5 250t248.5 103q86 0 156 -38l45 -27l77 94l39 -33l-76 -94q107 -108 107 -254q0 -142 -96 -241q-104 -110 -252 -110q-67 0 -133 24q-5 2 -17.5 9.5t-36.5 18.5l-15 7l-80 -100zM188 130l354 436 q-52 31 -83.5 41.5t-75.5 10.5q-117 0 -199.5 -83.5t-82.5 -202.5q0 -58 19 -102.5t68 -99.5zM227 97q52 -28 84 -38t73 -10q116 0 198 83.5t82 202.5q0 59 -19 104t-64 94z" />
<glyph unicode="&#xd9;" horiz-adv-x="655" d="M139 811l18 57l248 -88l-14 -49zM545 609v-402q0 -99 -61 -162t-157 -63q-103 0 -167 75q-50 60 -50 159v393h-85v58h232v-58h-80v-386q0 -84 40 -127q23 -26 47.5 -36.5t61.5 -10.5q77 0 120 57q32 42 32 117v386h-80v58h232v-58h-85z" />
<glyph unicode="&#xda;" horiz-adv-x="655" d="M295 731l-14 49l249 88l17 -57zM545 609v-402q0 -99 -61 -162t-157 -63q-103 0 -167 75q-50 60 -50 159v393h-85v58h232v-58h-80v-386q0 -84 40 -127q23 -26 47.5 -36.5t61.5 -10.5q77 0 120 57q32 42 32 117v386h-80v58h232v-58h-85z" />
<glyph unicode="&#xdb;" horiz-adv-x="655" d="M155 730l160 129h36l163 -129h-80l-102 76l-100 -76h-77zM545 609v-402q0 -99 -61 -162t-157 -63q-103 0 -167 75q-50 60 -50 159v393h-85v58h232v-58h-80v-386q0 -84 40 -127q23 -26 47.5 -36.5t61.5 -10.5q77 0 120 57q32 42 32 117v386h-80v58h232v-58h-85z" />
<glyph unicode="&#xdc;" horiz-adv-x="655" d="M360 740v116h63v-116h-63zM243 740v116h63v-116h-63zM545 609v-402q0 -99 -61 -162t-157 -63q-103 0 -167 75q-50 60 -50 159v393h-85v58h232v-58h-80v-386q0 -84 40 -127q23 -26 47.5 -36.5t61.5 -10.5q77 0 120 57q32 42 32 117v386h-80v58h232v-58h-85z" />
<glyph unicode="&#xdd;" horiz-adv-x="606" d="M296 731l-14 49l249 88l17 -57zM189 0v58h85v166l-201 385h-80v58h233v-58h-83l165 -321l156 321h-84v58h232v-58h-79l-192 -385v-166h85v-58h-237z" />
<glyph unicode="&#xde;" horiz-adv-x="571" d="M38 0v58h85v551h-85v58h237v-58h-85v-56h131q98 0 159.5 -56.5t61.5 -145.5q0 -94 -73 -157q-54 -45 -141 -45h-138v-91h85v-58h-237zM190 209h132q67 0 106 36q46 43 46 105q0 63 -43 103t-110 40h-131v-284z" />
<glyph unicode="&#xdf;" horiz-adv-x="578" d="M31 0v58h82v414q0 91 54 149.5t139 58.5q77 0 131.5 -54t54.5 -130q0 -52 -26 -91.5t-72 -56.5q49 -9 79 -30q73 -51 73 -150q0 -78 -53 -129.5t-134 -51.5q-45 0 -93 20v60q42 -23 82 -23q56 0 95.5 37.5t39.5 90.5q0 57 -43 98q-43 40 -124 40q-16 0 -33 -1v57 q65 0 103.5 34.5t38.5 92.5q0 52 -35.5 89.5t-85.5 37.5q-66 0 -103 -58q-23 -35 -23 -100v-462h-147z" />
<glyph unicode="&#xe0;" horiz-adv-x="664" d="M362 555l-230 125l26 54l228 -132zM486 0v103q-25 -39 -45 -58q-63 -58 -155 -58q-104 0 -179 75.5t-75 180.5q0 106 75.5 182.5t180.5 76.5q65 0 112 -27.5t86 -89.5v104h143v-58h-82v-373h82v-58h-143zM95 244q0 -81 57.5 -139t138.5 -58q80 0 138 58t58 138 q0 84 -56.5 141.5t-139.5 57.5q-81 0 -138.5 -58t-57.5 -140z" />
<glyph unicode="&#xe1;" horiz-adv-x="664" d="M276 557l-22 46l229 130l28 -54zM486 0v103q-25 -39 -45 -58q-63 -58 -155 -58q-104 0 -179 75.5t-75 180.5q0 106 75.5 182.5t180.5 76.5q65 0 112 -27.5t86 -89.5v104h143v-58h-82v-373h82v-58h-143zM95 244q0 -81 57.5 -139t138.5 -58q80 0 138 58t58 138 q0 84 -56.5 141.5t-139.5 57.5q-81 0 -138.5 -58t-57.5 -140z" />
<glyph unicode="&#xe2;" horiz-adv-x="664" d="M136 576l160 129h36l163 -129h-80l-102 76l-100 -76h-77zM486 0v103q-25 -39 -45 -58q-63 -58 -155 -58q-104 0 -179 75.5t-75 180.5q0 106 75.5 182.5t180.5 76.5q65 0 112 -27.5t86 -89.5v104h143v-58h-82v-373h82v-58h-143zM95 244q0 -81 57.5 -139t138.5 -58 q80 0 138 58t58 138q0 84 -56.5 141.5t-139.5 57.5q-81 0 -138.5 -58t-57.5 -140z" />
<glyph unicode="&#xe3;" horiz-adv-x="664" d="M213 594l-36 41q35 42 81 42q19 0 60 -16q34 -13 55 -13q32 0 65 33l36 -40q-44 -47 -95 -47q-25 0 -75 20q-23 9 -37 9q-26 0 -54 -29zM486 0v103q-25 -39 -45 -58q-63 -58 -155 -58q-104 0 -179 75.5t-75 180.5q0 106 75.5 182.5t180.5 76.5q65 0 112 -27.5t86 -89.5 v104h143v-58h-82v-373h82v-58h-143zM95 244q0 -81 57.5 -139t138.5 -58q80 0 138 58t58 138q0 84 -56.5 141.5t-139.5 57.5q-81 0 -138.5 -58t-57.5 -140z" />
<glyph unicode="&#xe4;" horiz-adv-x="664" d="M340 579v116h61v-116h-61zM221 579v116h61v-116h-61zM486 0v103q-25 -39 -45 -58q-63 -58 -155 -58q-104 0 -179 75.5t-75 180.5q0 106 75.5 182.5t180.5 76.5q65 0 112 -27.5t86 -89.5v104h143v-58h-82v-373h82v-58h-143zM95 244q0 -81 57.5 -139t138.5 -58q80 0 138 58 t58 138q0 84 -56.5 141.5t-139.5 57.5q-81 0 -138.5 -58t-57.5 -140z" />
<glyph unicode="&#xe5;" horiz-adv-x="664" d="M311 557q-41 0 -70.5 29.5t-29.5 70.5t29.5 70.5t70.5 29.5q42 0 71 -29.5t29 -71.5q0 -40 -29.5 -69.5t-70.5 -29.5zM311 597q25 0 42.5 17.5t17.5 41.5q0 25 -17.5 43t-42.5 18t-42.5 -17.5t-17.5 -42.5t17.5 -42.5t42.5 -17.5zM486 0v103q-25 -39 -45 -58 q-63 -58 -155 -58q-104 0 -179 75.5t-75 180.5q0 106 75.5 182.5t180.5 76.5q65 0 112 -27.5t86 -89.5v104h143v-58h-82v-373h82v-58h-143zM95 244q0 -81 57.5 -139t138.5 -58q80 0 138 58t58 138q0 84 -56.5 141.5t-139.5 57.5q-81 0 -138.5 -58t-57.5 -140z" />
<glyph unicode="&#xe6;" horiz-adv-x="1033" d="M485 0v113q-65 -126 -194 -126q-106 0 -182.5 76t-76.5 182q0 104 75.5 180.5t178.5 76.5q130 0 199 -117v104h61v-110q70 123 201 123q103 0 178 -76t75 -181v-19h-449q5 -62 34 -101q26 -36 69.5 -57t90.5 -21q76 0 126 48q11 11 38 45h70q-38 -74 -97 -113.5 t-133 -39.5q-91 0 -158 62q-22 21 -45 59v-108h-61zM550 276h388q-15 75 -68.5 120.5t-127.5 45.5q-73 0 -126 -46t-66 -120zM95 246q0 -82 58.5 -140.5t140.5 -58.5q81 0 139.5 58.5t58.5 138.5q0 83 -58 140.5t-142 57.5q-82 0 -139.5 -57.5t-57.5 -138.5z" />
<glyph unicode="&#xe7;" horiz-adv-x="552" d="M227 -119l32 109q-90 17 -138 59q-89 78 -89 195q0 107 74 182.5t178 75.5q99 0 174 -79v66h55v-143h-58q-23 44 -67 70t-96 26q-82 0 -139.5 -57.5t-57.5 -140.5q0 -81 57 -138.5t138 -57.5q112 0 172 107h67q-28 -73 -90 -119t-138 -49l-20 -70q14 6 27 6 q30 0 50.5 -22t20.5 -54q0 -35 -23.5 -58.5t-57.5 -23.5q-66 0 -79 69h42q12 -26 38 -26q16 0 26.5 11t10.5 27q0 17 -11 28.5t-28 11.5q-20 0 -35 -18z" />
<glyph unicode="&#xe8;" horiz-adv-x="574" d="M334 555l-230 125l26 54l228 -132zM541 225h-448q8 -72 49 -116q59 -65 146 -65q107 0 169 95h65q-35 -72 -96 -112t-137 -40q-107 0 -182 75t-75 182q0 106 75 182t179 76q106 0 181 -75t75 -180q0 -12 -1 -22zM93 275h391q-12 74 -67.5 122t-130.5 48q-72 0 -126.5 -48 t-66.5 -122z" />
<glyph unicode="&#xe9;" horiz-adv-x="574" d="M257 557l-22 46l229 130l28 -54zM541 225h-448q8 -72 49 -116q59 -65 146 -65q107 0 169 95h65q-35 -72 -96 -112t-137 -40q-107 0 -182 75t-75 182q0 106 75 182t179 76q106 0 181 -75t75 -180q0 -12 -1 -22zM93 275h391q-12 74 -67.5 122t-130.5 48q-72 0 -126.5 -48 t-66.5 -122z" />
<glyph unicode="&#xea;" horiz-adv-x="574" d="M118 576l160 129h36l163 -129h-80l-102 76l-100 -76h-77zM541 225h-448q8 -72 49 -116q59 -65 146 -65q107 0 169 95h65q-35 -72 -96 -112t-137 -40q-107 0 -182 75t-75 182q0 106 75 182t179 76q106 0 181 -75t75 -180q0 -12 -1 -22zM93 275h391q-12 74 -67.5 122 t-130.5 48q-72 0 -126.5 -48t-66.5 -122z" />
<glyph unicode="&#xeb;" horiz-adv-x="574" d="M319 579v116h61v-116h-61zM200 579v116h61v-116h-61zM541 225h-448q8 -72 49 -116q59 -65 146 -65q107 0 169 95h65q-35 -72 -96 -112t-137 -40q-107 0 -182 75t-75 182q0 106 75 182t179 76q106 0 181 -75t75 -180q0 -12 -1 -22zM93 275h391q-12 74 -67.5 122t-130.5 48 q-72 0 -126.5 -48t-66.5 -122z" />
<glyph unicode="&#xec;" horiz-adv-x="291" d="M160 557l-175 134l39 44l169 -140zM35 0v58h82v373h-82v58h143v-431h82v-58h-225z" />
<glyph unicode="&#xed;" horiz-adv-x="291" d="M125 557l-33 38l169 140l39 -44zM35 0v58h82v373h-82v58h143v-431h82v-58h-225z" />
<glyph unicode="&#xee;" horiz-adv-x="291" d="M3 576l127 129h36l129 -129h-79l-69 73l-68 -73h-76zM35 0v58h82v373h-82v58h143v-431h82v-58h-225z" />
<glyph unicode="&#xef;" horiz-adv-x="291" d="M171 579v116h58v-116h-58zM63 579v116h58v-116h-58zM35 0v58h82v373h-82v58h143v-431h82v-58h-225z" />
<glyph unicode="&#xf0;" horiz-adv-x="578" d="M413 658l-98 -42q99 -44 165 -145.5t66 -210.5q0 -117 -73.5 -195t-183.5 -78q-107 0 -182 75.5t-75 182.5q0 106 73.5 181.5t177.5 75.5q55 0 121 -33q-17 28 -59 60.5t-87 53.5l-147 -66l-19 43l103 45q-77 21 -120 27l36 42q73 -8 146 -34l136 60zM95 245 q0 -82 57 -140t137 -58q79 0 136.5 57.5t57.5 137.5q0 84 -56.5 142t-137.5 58q-80 0 -137 -58t-57 -139z" />
<glyph unicode="&#xf1;" horiz-adv-x="635" d="M225 594l-36 41q35 42 81 42q19 0 60 -16q34 -13 55 -13q32 0 65 33l36 -40q-44 -47 -95 -47q-25 0 -75 20q-23 9 -37 9q-26 0 -54 -29zM35 0v58h82v373h-82v58h143v-87q52 100 163 100q43 0 84 -19t69 -53q44 -53 44 -144v-228h82v-58h-225v58h82v206q0 86 -38 128 q-45 50 -114 50q-73 0 -117 -57q-30 -40 -30 -114v-213h82v-58h-225z" />
<glyph unicode="&#xf2;" horiz-adv-x="577" d="M339 555l-230 125l26 54l228 -132zM32 244q0 106 75.5 182t180.5 76q108 0 182.5 -75t74.5 -184q0 -105 -76 -180.5t-181 -75.5q-106 0 -181 75.5t-75 181.5zM95 245q0 -82 57 -140t137 -58q79 0 136 57.5t57 137.5q0 84 -56 142t-138 58q-79 0 -136 -58t-57 -139z" />
<glyph unicode="&#xf3;" horiz-adv-x="577" d="M262 557l-22 46l229 130l28 -54zM32 244q0 106 75.5 182t180.5 76q108 0 182.5 -75t74.5 -184q0 -105 -76 -180.5t-181 -75.5q-106 0 -181 75.5t-75 181.5zM95 245q0 -82 57 -140t137 -58q79 0 136 57.5t57 137.5q0 84 -56 142t-138 58q-79 0 -136 -58t-57 -139z" />
<glyph unicode="&#xf4;" horiz-adv-x="577" d="M116 576l160 129h36l163 -129h-80l-102 76l-100 -76h-77zM32 244q0 106 75.5 182t180.5 76q108 0 182.5 -75t74.5 -184q0 -105 -76 -180.5t-181 -75.5q-106 0 -181 75.5t-75 181.5zM95 245q0 -82 57 -140t137 -58q79 0 136 57.5t57 137.5q0 84 -56 142t-138 58 q-79 0 -136 -58t-57 -139z" />
<glyph unicode="&#xf5;" horiz-adv-x="577" d="M193 594l-36 41q35 42 81 42q19 0 60 -16q34 -13 55 -13q32 0 65 33l36 -40q-44 -47 -95 -47q-25 0 -75 20q-23 9 -37 9q-26 0 -54 -29zM32 244q0 106 75.5 182t180.5 76q108 0 182.5 -75t74.5 -184q0 -105 -76 -180.5t-181 -75.5q-106 0 -181 75.5t-75 181.5zM95 245 q0 -82 57 -140t137 -58q79 0 136 57.5t57 137.5q0 84 -56 142t-138 58q-79 0 -136 -58t-57 -139z" />
<glyph unicode="&#xf6;" horiz-adv-x="577" d="M321 579v116h61v-116h-61zM202 579v116h61v-116h-61zM32 244q0 106 75.5 182t180.5 76q108 0 182.5 -75t74.5 -184q0 -105 -76 -180.5t-181 -75.5q-106 0 -181 75.5t-75 181.5zM95 245q0 -82 57 -140t137 -58q79 0 136 57.5t57 137.5q0 84 -56 142t-138 58 q-79 0 -136 -58t-57 -139z" />
<glyph unicode="&#xf7;" d="M242 426v95h62v-95h-62zM43 313v53h460v-53h-460zM242 159v95h62v-95h-62z" />
<glyph unicode="&#xf8;" horiz-adv-x="581" d="M69 -21l52 71q-39 40 -47 52q-42 59 -42 142q0 107 76 182.5t183 75.5q64 0 132 -36l52 73l39 -29l-52 -72q88 -85 88 -190q0 -110 -76 -185.5t-186 -75.5q-67 0 -128 34l-52 -70zM159 101l227 315q-51 26 -96 26q-80 0 -137.5 -57t-57.5 -136q0 -43 14.5 -76.5 t49.5 -71.5zM198 72q51 -25 92 -25q83 0 140 56.5t57 139.5q0 42 -14.5 74.5t-48.5 69.5z" />
<glyph unicode="&#xf9;" horiz-adv-x="630" d="M352 555l-230 125l26 54l228 -132zM97 190v241h-82v58h143v-276q0 -80 42 -122q42 -44 104 -44q70 0 116 56q33 38 33 108v220h-83v58h144v-431h82v-58h-140v81q-25 -44 -69.5 -69t-97.5 -25q-83 0 -137.5 57.5t-54.5 145.5z" />
<glyph unicode="&#xfa;" horiz-adv-x="630" d="M272 557l-22 46l229 130l28 -54zM97 190v241h-82v58h143v-276q0 -80 42 -122q42 -44 104 -44q70 0 116 56q33 38 33 108v220h-83v58h144v-431h82v-58h-140v81q-25 -44 -69.5 -69t-97.5 -25q-83 0 -137.5 57.5t-54.5 145.5z" />
<glyph unicode="&#xfb;" horiz-adv-x="630" d="M126 576l160 129h36l163 -129h-80l-102 76l-100 -76h-77zM97 190v241h-82v58h143v-276q0 -80 42 -122q42 -44 104 -44q70 0 116 56q33 38 33 108v220h-83v58h144v-431h82v-58h-140v81q-25 -44 -69.5 -69t-97.5 -25q-83 0 -137.5 57.5t-54.5 145.5z" />
<glyph unicode="&#xfc;" horiz-adv-x="630" d="M331 579v116h61v-116h-61zM212 579v116h61v-116h-61zM97 190v241h-82v58h143v-276q0 -80 42 -122q42 -44 104 -44q70 0 116 56q33 38 33 108v220h-83v58h144v-431h82v-58h-140v81q-25 -44 -69.5 -69t-97.5 -25q-83 0 -137.5 57.5t-54.5 145.5z" />
<glyph unicode="&#xfd;" horiz-adv-x="556" d="M265 557l-22 46l229 130l28 -54zM109 -127h82l50 123l-172 435h-79v58h224v-58h-77l137 -357l148 357h-77v58h221v-58h-78l-233 -558h80v-58h-226v58z" />
<glyph unicode="&#xfe;" horiz-adv-x="661" d="M31 -123h82v732h-82v58h143v-286q70 121 201 121q104 0 178.5 -76t74.5 -182t-73 -181.5t-176 -75.5q-98 0 -164 64q-19 18 -41 55v-229h82v-59h-225v59zM173 244q0 -81 57.5 -139t138.5 -58q80 0 138 57.5t58 137.5q0 84 -57 142t-139 58q-81 0 -138.5 -58t-57.5 -140z " />
<glyph unicode="&#xff;" horiz-adv-x="556" d="M314 579v116h61v-116h-61zM195 579v116h61v-116h-61zM109 -127h82l50 123l-172 435h-79v58h224v-58h-77l137 -357l148 357h-77v58h221v-58h-78l-233 -558h80v-58h-226v58z" />
<glyph unicode="&#x152;" horiz-adv-x="1082" d="M659 0v168q-28 -59 -65 -96q-90 -90 -216 -90q-142 0 -243.5 104t-101.5 249q0 143 101.5 246.5t242.5 103.5q125 0 212 -84q39 -38 70 -103v169h382v-170h-67v110h-248v-243h245v-55h-245v-249h248v112h67v-172h-382zM101 333q0 -117 81 -200.5t196 -83.5 q113 0 194.5 83t81.5 198q0 121 -80.5 204.5t-196.5 83.5q-114 0 -195 -83.5t-81 -201.5z" />
<glyph unicode="&#x153;" horiz-adv-x="1035" d="M914 142l70 1q-33 -73 -96.5 -114.5t-142.5 -41.5q-76 0 -135 37.5t-91 106.5q-34 -69 -93.5 -106.5t-133.5 -37.5q-107 0 -183.5 76t-76.5 183q0 106 76 181t183 75q108 0 180 -72q24 -24 48 -73q28 59 67 91q67 54 160 54q104 0 180.5 -74.5t76.5 -176.5q0 -13 -1 -24 h-450q6 -69 48 -116q58 -64 144 -64q105 0 170 95zM553 277h385q-13 54 -37 87q-27 37 -68 57.5t-88 20.5q-73 0 -126 -45t-66 -120zM95 244q0 -81 57.5 -139t139.5 -58q80 0 138.5 58t58.5 138q0 83 -57.5 141t-139.5 58t-139.5 -58t-57.5 -140z" />
<glyph unicode="&#x178;" horiz-adv-x="606" d="M337 740v116h63v-116h-63zM220 740v116h63v-116h-63zM189 0v58h85v166l-201 385h-80v58h233v-58h-83l165 -321l156 321h-84v58h232v-58h-79l-192 -385v-166h85v-58h-237z" />
<glyph unicode="&#x2c6;" horiz-adv-x="500" d="M71 576l160 129h36l163 -129h-80l-102 76l-100 -76h-77z" />
<glyph unicode="&#x2dc;" horiz-adv-x="500" d="M138 594l-36 41q35 42 81 42q19 0 60 -16q34 -13 55 -13q32 0 65 33l36 -40q-44 -47 -95 -47q-25 0 -75 20q-23 9 -37 9q-26 0 -54 -29z" />
<glyph unicode="&#x2000;" horiz-adv-x="454" />
<glyph unicode="&#x2001;" horiz-adv-x="909" />
<glyph unicode="&#x2002;" horiz-adv-x="454" />
<glyph unicode="&#x2003;" horiz-adv-x="909" />
<glyph unicode="&#x2004;" horiz-adv-x="303" />
<glyph unicode="&#x2005;" horiz-adv-x="227" />
<glyph unicode="&#x2006;" horiz-adv-x="151" />
<glyph unicode="&#x2007;" horiz-adv-x="151" />
<glyph unicode="&#x2008;" horiz-adv-x="113" />
<glyph unicode="&#x2009;" horiz-adv-x="181" />
<glyph unicode="&#x200a;" horiz-adv-x="50" />
<glyph unicode="&#x2010;" horiz-adv-x="245" d="M0 223v61h245v-61h-245z" />
<glyph unicode="&#x2011;" horiz-adv-x="245" d="M0 223v61h245v-61h-245z" />
<glyph unicode="&#x2012;" horiz-adv-x="245" d="M0 223v61h245v-61h-245z" />
<glyph unicode="&#x2013;" d="M62 222v62h422v-62h-422z" />
<glyph unicode="&#x2014;" horiz-adv-x="735" d="M0 222v62h735v-62h-735z" />
<glyph unicode="&#x2018;" horiz-adv-x="215" d="M43 495l69 172h60l-70 -172h-59z" />
<glyph unicode="&#x2019;" horiz-adv-x="215" d="M43 495l69 172h60l-70 -172h-59z" />
<glyph unicode="&#x201a;" horiz-adv-x="215" d="M43 -90l69 171h60l-70 -171h-59z" />
<glyph unicode="&#x201c;" horiz-adv-x="335" d="M163 495l69 172h60l-70 -172h-59zM43 495l69 172h60l-70 -172h-59z" />
<glyph unicode="&#x201d;" horiz-adv-x="335" d="M163 495l69 172h60l-70 -172h-59zM43 495l69 172h60l-70 -172h-59z" />
<glyph unicode="&#x201e;" horiz-adv-x="335" d="M163 -90l69 171h60l-70 -171h-59zM43 -90l69 171h60l-70 -171h-59z" />
<glyph unicode="&#x2022;" horiz-adv-x="667" d="M335 200q-57 0 -98 40.5t-41 97.5q0 58 41 98.5t100 40.5q55 0 95.5 -41t40.5 -97q0 -58 -40.5 -98.5t-97.5 -40.5z" />
<glyph unicode="&#x2026;" horiz-adv-x="536" d="M415 0v102h65v-102h-65zM236 0v102h65v-102h-65zM57 0v102h65v-102h-65z" />
<glyph unicode="&#x202f;" horiz-adv-x="181" />
<glyph unicode="&#x2039;" horiz-adv-x="202" d="M145 74l-108 161v37l108 160l14 -53l-80 -127l80 -128z" />
<glyph unicode="&#x203a;" horiz-adv-x="201" d="M56 74l-13 50l79 128l-79 127l13 53l108 -160v-37z" />
<glyph unicode="&#x205f;" horiz-adv-x="227" />
<glyph unicode="&#x20ac;" horiz-adv-x="834" d="M47 252l23 56h63q-1 12 -1 26q0 15 1 28h-86l23 56h71q29 117 124 192t216 75q134 0 233 -98v80h57v-164h-64q-81 115 -226 115q-94 0 -168.5 -55.5t-100.5 -144.5h434l-23 -55l-422 -1q-1 -10 -1 -27q0 -16 1 -27h399l-24 -56h-364q25 -90 100 -146.5t168 -56.5 q70 0 130.5 32t100.5 90h75q-45 -88 -126 -138.5t-179 -50.5q-122 0 -216 74.5t-124 195.5h-94z" />
<glyph unicode="&#x2122;" horiz-adv-x="835" d="M309 287v39h47v302h-47v39h106l132 -316l146 316h108v-39h-48v-302h48v-39h-139v39h47v274l-146 -313h-34l-131 311v-272h48v-39h-137zM86 287v39h47v301h-74v-67h-39v107h271v-107h-39v67h-75v-301h48v-39h-139z" />
<glyph unicode="&#x25fc;" horiz-adv-x="490" d="M0 490h490v-490h-490v490z" />
</font>
</defs>
</svg>
